Chunk size: 4
Events: 
Sequence/Track Name (Megalovania) | Time: 0
Copyright Notice (Toby Fox) | Time: 0
Time Signature (4/4, 24 clock/click, 8 32nd/beat) | Time: 0
Key Signature (-1, 1) | Time: 0
------------------------------------------------
Chunk size: 1
Events: 
Set Tempo (260870) | Time: 0
------------------------------------------------
Chunk size: 2477
Events: 
Control Change [9] (10, 64) | Time: 0
Control Change [9] (7, 105) | Time: 0
Pitch Bend [9] (8192) | Time: 0
Control Change [9] (101, 0) | Time: 0
Control Change [9] (100, 0) | Time: 0
Control Change [9] (6, 12) | Time: 0
Program Change [9] (0) | Time: 0
Control Change [9] (91, 19) | Time: 0
Control Change [9] (64, 0) | Time: 0
Note On [9] (55, 31) | Time: 5760
Note Off [9] (55, 64) | Time: 48
Note On [9] (55, 48) | Time: 48
Note Off [9] (55, 64) | Time: 48
Note On [9] (55, 65) | Time: 48
Note Off [9] (55, 64) | Time: 48
Note On [9] (55, 82) | Time: 48
Note Off [9] (55, 64) | Time: 48
Note On [9] (57, 84) | Time: 48
Note On [9] (46, 49) | Time: 0
Note On [9] (36, 82) | Time: 0
Note Off [9] (36, 64) | Time: 48
Note Off [9] (46, 64) | Time: 0
Note Off [9] (57, 64) | Time: 0
Note On [9] (40, 82) | Time: 48
Note On [9] (46, 49) | Time: 0
Note Off [9] (46, 64) | Time: 48
Note Off [9] (40, 64) | Time: 0
Note On [9] (46, 49) | Time: 48
Note On [9] (36, 82) | Time: 0
Note Off [9] (36, 64) | Time: 48
Note Off [9] (46, 64) | Time: 0
Note On [9] (40, 81) | Time: 48
Note On [9] (46, 49) | Time: 0
Note Off [9] (40, 64) | Time: 48
Note Off [9] (46, 64) | Time: 0
Note On [9] (36, 81) | Time: 0
Note Off [9] (36, 64) | Time: 48
Note On [9] (46, 49) | Time: 0
Note Off [9] (46, 64) | Time: 48
Note On [9] (36, 81) | Time: 0
Note Off [9] (36, 64) | Time: 48
Note On [9] (40, 81) | Time: 0
Note On [9] (46, 49) | Time: 0
Note Off [9] (46, 64) | Time: 48
Note Off [9] (40, 64) | Time: 0
Note On [9] (36, 80) | Time: 0
Note Off [9] (36, 64) | Time: 48
Note On [9] (46, 49) | Time: 0
Note On [9] (36, 80) | Time: 0
Note Off [9] (36, 64) | Time: 48
Note Off [9] (46, 64) | Time: 0
Note On [9] (40, 80) | Time: 48
Note On [9] (36, 80) | Time: 0
Note On [9] (46, 49) | Time: 0
Note Off [9] (46, 64) | Time: 48
Note Off [9] (36, 64) | Time: 0
Note Off [9] (40, 64) | Time: 0
Note On [9] (46, 49) | Time: 48
Note On [9] (36, 82) | Time: 0
Note Off [9] (36, 64) | Time: 48
Note Off [9] (46, 64) | Time: 0
Note On [9] (40, 82) | Time: 48
Note On [9] (46, 49) | Time: 0
Note Off [9] (46, 64) | Time: 48
Note Off [9] (40, 64) | Time: 0
Note On [9] (46, 49) | Time: 48
Note On [9] (36, 82) | Time: 0
Note Off [9] (36, 64) | Time: 48
Note Off [9] (46, 64) | Time: 0
Note On [9] (46, 49) | Time: 48
Note On [9] (40, 81) | Time: 0
Note Off [9] (46, 64) | Time: 48
Note Off [9] (40, 64) | Time: 0
Note On [9] (36, 81) | Time: 0
Note Off [9] (36, 64) | Time: 48
Note On [9] (46, 49) | Time: 0
Note Off [9] (46, 64) | Time: 48
Note On [9] (36, 81) | Time: 0
Note Off [9] (36, 64) | Time: 48
Note On [9] (46, 49) | Time: 0
Note On [9] (40, 81) | Time: 0
Note Off [9] (40, 64) | Time: 48
Note Off [9] (46, 64) | Time: 0
Note On [9] (36, 80) | Time: 0
Note Off [9] (36, 64) | Time: 48
Note On [9] (46, 49) | Time: 0
Note On [9] (36, 80) | Time: 0
Note Off [9] (36, 64) | Time: 48
Note Off [9] (46, 64) | Time: 0
Note On [9] (46, 49) | Time: 48
Note On [9] (36, 80) | Time: 0
Note On [9] (40, 80) | Time: 0
Note Off [9] (40, 64) | Time: 48
Note Off [9] (36, 64) | Time: 0
Note Off [9] (46, 64) | Time: 0
Note On [9] (46, 49) | Time: 48
Note On [9] (36, 82) | Time: 0
Note Off [9] (36, 64) | Time: 48
Note Off [9] (46, 64) | Time: 0
Note On [9] (46, 49) | Time: 48
Note On [9] (40, 82) | Time: 0
Note Off [9] (40, 64) | Time: 48
Note Off [9] (46, 64) | Time: 0
Note On [9] (46, 49) | Time: 48
Note On [9] (36, 82) | Time: 0
Note Off [9] (36, 64) | Time: 48
Note Off [9] (46, 64) | Time: 0
Note On [9] (46, 49) | Time: 48
Note On [9] (40, 81) | Time: 0
Note Off [9] (46, 64) | Time: 48
Note Off [9] (40, 64) | Time: 0
Note On [9] (36, 81) | Time: 0
Note Off [9] (36, 64) | Time: 48
Note On [9] (46, 49) | Time: 0
Note Off [9] (46, 64) | Time: 48
Note On [9] (36, 81) | Time: 0
Note Off [9] (36, 64) | Time: 48
Note On [9] (46, 49) | Time: 0
Note On [9] (40, 81) | Time: 0
Note Off [9] (40, 64) | Time: 48
Note Off [9] (46, 64) | Time: 0
Note On [9] (36, 80) | Time: 0
Note Off [9] (36, 64) | Time: 48
Note On [9] (46, 49) | Time: 0
Note On [9] (36, 80) | Time: 0
Note Off [9] (36, 64) | Time: 48
Note Off [9] (46, 64) | Time: 0
Note On [9] (46, 49) | Time: 48
Note On [9] (36, 80) | Time: 0
Note On [9] (40, 80) | Time: 0
Note Off [9] (40, 64) | Time: 48
Note Off [9] (36, 64) | Time: 0
Note Off [9] (46, 64) | Time: 0
Note On [9] (46, 49) | Time: 48
Note On [9] (36, 82) | Time: 0
Note Off [9] (36, 64) | Time: 48
Note Off [9] (46, 64) | Time: 0
Note On [9] (46, 49) | Time: 48
Note On [9] (40, 82) | Time: 0
Note Off [9] (40, 64) | Time: 48
Note Off [9] (46, 64) | Time: 0
Note On [9] (46, 49) | Time: 48
Note On [9] (36, 82) | Time: 0
Note Off [9] (36, 64) | Time: 48
Note Off [9] (46, 64) | Time: 0
Note On [9] (40, 81) | Time: 0
Note Off [9] (40, 64) | Time: 48
Note On [9] (46, 49) | Time: 0
Note Off [9] (46, 64) | Time: 48
Note On [9] (36, 81) | Time: 0
Note On [9] (40, 81) | Time: 0
Note Off [9] (40, 64) | Time: 48
Note Off [9] (36, 64) | Time: 0
Note On [9] (46, 49) | Time: 0
Note Off [9] (46, 64) | Time: 48
Note On [9] (36, 81) | Time: 0
Note Off [9] (36, 64) | Time: 48
Note On [9] (40, 81) | Time: 0
Note On [9] (46, 49) | Time: 0
Note Off [9] (46, 64) | Time: 48
Note Off [9] (40, 64) | Time: 0
Note On [9] (36, 80) | Time: 0
Note Off [9] (36, 64) | Time: 48
Note On [9] (46, 49) | Time: 0
Note On [9] (36, 80) | Time: 0
Note On [9] (40, 81) | Time: 0
Note Off [9] (40, 64) | Time: 48
Note Off [9] (46, 64) | Time: 0
Note Off [9] (36, 64) | Time: 0
Note On [9] (40, 80) | Time: 48
Note On [9] (36, 80) | Time: 0
Note On [9] (46, 49) | Time: 0
Note Off [9] (46, 64) | Time: 48
Note Off [9] (36, 64) | Time: 0
Note Off [9] (40, 64) | Time: 0
Note On [9] (57, 82) | Time: 48
Note On [9] (46, 49) | Time: 0
Note On [9] (36, 82) | Time: 0
Note Off [9] (36, 64) | Time: 48
Note Off [9] (46, 64) | Time: 0
Note Off [9] (57, 64) | Time: 0
Note On [9] (40, 82) | Time: 48
Note On [9] (46, 49) | Time: 0
Note Off [9] (46, 64) | Time: 48
Note Off [9] (40, 64) | Time: 0
Note On [9] (46, 49) | Time: 48
Note On [9] (36, 82) | Time: 0
Note Off [9] (36, 64) | Time: 48
Note Off [9] (46, 64) | Time: 0
Note On [9] (40, 81) | Time: 48
Note On [9] (46, 49) | Time: 0
Note Off [9] (40, 64) | Time: 48
Note Off [9] (46, 64) | Time: 0
Note On [9] (36, 81) | Time: 0
Note Off [9] (36, 64) | Time: 48
Note On [9] (46, 49) | Time: 0
Note Off [9] (46, 64) | Time: 48
Note On [9] (36, 81) | Time: 0
Note Off [9] (36, 64) | Time: 48
Note On [9] (40, 81) | Time: 0
Note On [9] (46, 49) | Time: 0
Note Off [9] (46, 64) | Time: 48
Note Off [9] (40, 64) | Time: 0
Note On [9] (36, 80) | Time: 0
Note Off [9] (36, 64) | Time: 48
Note On [9] (46, 49) | Time: 0
Note On [9] (36, 80) | Time: 0
Note Off [9] (36, 64) | Time: 48
Note Off [9] (46, 64) | Time: 0
Note On [9] (40, 80) | Time: 48
Note On [9] (36, 80) | Time: 0
Note On [9] (46, 49) | Time: 0
Note Off [9] (46, 64) | Time: 48
Note Off [9] (36, 64) | Time: 0
Note Off [9] (40, 64) | Time: 0
Note On [9] (46, 49) | Time: 48
Note On [9] (36, 82) | Time: 0
Note Off [9] (36, 64) | Time: 48
Note Off [9] (46, 64) | Time: 0
Note On [9] (40, 82) | Time: 48
Note On [9] (46, 49) | Time: 0
Note Off [9] (46, 64) | Time: 48
Note Off [9] (40, 64) | Time: 0
Note On [9] (46, 49) | Time: 48
Note On [9] (36, 82) | Time: 0
Note Off [9] (36, 64) | Time: 48
Note Off [9] (46, 64) | Time: 0
Note On [9] (46, 49) | Time: 48
Note On [9] (40, 81) | Time: 0
Note Off [9] (46, 64) | Time: 48
Note Off [9] (40, 64) | Time: 0
Note On [9] (36, 81) | Time: 0
Note Off [9] (36, 64) | Time: 48
Note On [9] (46, 49) | Time: 0
Note Off [9] (46, 64) | Time: 48
Note On [9] (36, 81) | Time: 0
Note Off [9] (36, 64) | Time: 48
Note On [9] (46, 49) | Time: 0
Note On [9] (40, 81) | Time: 0
Note Off [9] (40, 64) | Time: 48
Note Off [9] (46, 64) | Time: 0
Note On [9] (36, 80) | Time: 0
Note Off [9] (36, 64) | Time: 48
Note On [9] (46, 49) | Time: 0
Note On [9] (36, 80) | Time: 0
Note Off [9] (36, 64) | Time: 48
Note Off [9] (46, 64) | Time: 0
Note On [9] (46, 49) | Time: 48
Note On [9] (36, 80) | Time: 0
Note On [9] (40, 80) | Time: 0
Note Off [9] (40, 64) | Time: 48
Note Off [9] (36, 64) | Time: 0
Note Off [9] (46, 64) | Time: 0
Note On [9] (46, 49) | Time: 48
Note On [9] (36, 82) | Time: 0
Note Off [9] (36, 64) | Time: 48
Note Off [9] (46, 64) | Time: 0
Note On [9] (40, 82) | Time: 48
Note On [9] (46, 49) | Time: 0
Note Off [9] (46, 64) | Time: 48
Note Off [9] (40, 64) | Time: 0
Note On [9] (46, 49) | Time: 48
Note On [9] (36, 82) | Time: 0
Note Off [9] (36, 64) | Time: 48
Note Off [9] (46, 64) | Time: 0
Note On [9] (40, 81) | Time: 48
Note On [9] (46, 49) | Time: 0
Note Off [9] (40, 64) | Time: 48
Note Off [9] (46, 64) | Time: 0
Note On [9] (36, 81) | Time: 0
Note Off [9] (36, 64) | Time: 48
Note On [9] (46, 49) | Time: 0
Note Off [9] (46, 64) | Time: 48
Note On [9] (36, 81) | Time: 0
Note Off [9] (36, 64) | Time: 48
Note On [9] (40, 81) | Time: 0
Note On [9] (46, 49) | Time: 0
Note Off [9] (46, 64) | Time: 48
Note Off [9] (40, 64) | Time: 0
Note On [9] (36, 80) | Time: 0
Note Off [9] (36, 64) | Time: 48
Note On [9] (46, 49) | Time: 0
Note On [9] (36, 80) | Time: 0
Note Off [9] (36, 64) | Time: 48
Note Off [9] (46, 64) | Time: 0
Note On [9] (40, 80) | Time: 48
Note On [9] (36, 80) | Time: 0
Note On [9] (46, 49) | Time: 0
Note Off [9] (46, 64) | Time: 48
Note Off [9] (36, 64) | Time: 0
Note Off [9] (40, 64) | Time: 0
Note On [9] (46, 49) | Time: 48
Note On [9] (36, 82) | Time: 0
Note Off [9] (36, 64) | Time: 48
Note Off [9] (46, 64) | Time: 0
Note On [9] (40, 82) | Time: 48
Note On [9] (46, 49) | Time: 0
Note Off [9] (46, 64) | Time: 48
Note Off [9] (40, 64) | Time: 0
Note On [9] (46, 49) | Time: 48
Note On [9] (36, 82) | Time: 0
Note Off [9] (36, 64) | Time: 48
Note Off [9] (46, 64) | Time: 0
Note On [9] (40, 81) | Time: 0
Note Off [9] (40, 64) | Time: 48
Note On [9] (46, 49) | Time: 0
Note Off [9] (46, 64) | Time: 48
Note On [9] (36, 81) | Time: 0
Note On [9] (40, 81) | Time: 0
Note Off [9] (40, 64) | Time: 48
Note Off [9] (36, 64) | Time: 0
Note On [9] (46, 49) | Time: 0
Note Off [9] (46, 64) | Time: 48
Note On [9] (36, 81) | Time: 0
Note Off [9] (36, 64) | Time: 48
Note On [9] (46, 49) | Time: 0
Note On [9] (40, 81) | Time: 0
Note Off [9] (40, 64) | Time: 48
Note Off [9] (46, 64) | Time: 0
Note On [9] (36, 80) | Time: 0
Note Off [9] (36, 64) | Time: 48
Note On [9] (46, 49) | Time: 0
Note On [9] (36, 80) | Time: 0
Note On [9] (40, 81) | Time: 0
Note Off [9] (40, 64) | Time: 48
Note Off [9] (46, 64) | Time: 0
Note Off [9] (36, 64) | Time: 0
Note On [9] (46, 49) | Time: 48
Note On [9] (36, 80) | Time: 0
Note On [9] (40, 80) | Time: 0
Note Off [9] (40, 64) | Time: 48
Note Off [9] (36, 64) | Time: 0
Note Off [9] (46, 64) | Time: 0
Note On [9] (44, 63) | Time: 48
Note On [9] (57, 82) | Time: 0
Note On [9] (36, 82) | Time: 0
Note Off [9] (36, 64) | Time: 48
Note Off [9] (57, 64) | Time: 0
Note Off [9] (44, 64) | Time: 0
Note On [9] (44, 63) | Time: 0
Note Off [9] (44, 64) | Time: 48
Note On [9] (40, 82) | Time: 0
Note Off [9] (40, 64) | Time: 48
Note On [9] (44, 63) | Time: 0
Note Off [9] (44, 64) | Time: 48
Note On [9] (44, 63) | Time: 0
Note On [9] (36, 82) | Time: 0
Note Off [9] (36, 64) | Time: 48
Note Off [9] (44, 64) | Time: 0
Note On [9] (44, 63) | Time: 0
Note Off [9] (44, 64) | Time: 48
Note On [9] (40, 81) | Time: 0
Note Off [9] (40, 64) | Time: 48
Note On [9] (36, 81) | Time: 0
Note Off [9] (36, 64) | Time: 48
Note On [9] (44, 63) | Time: 0
Note Off [9] (44, 64) | Time: 48
Note On [9] (36, 81) | Time: 0
Note On [9] (44, 63) | Time: 0
Note Off [9] (44, 64) | Time: 48
Note Off [9] (36, 64) | Time: 0
Note On [9] (40, 81) | Time: 0
Note Off [9] (40, 64) | Time: 48
Note On [9] (44, 63) | Time: 0
Note On [9] (36, 80) | Time: 0
Note Off [9] (36, 64) | Time: 48
Note Off [9] (44, 64) | Time: 0
Note On [9] (44, 63) | Time: 0
Note On [9] (36, 80) | Time: 0
Note Off [9] (36, 64) | Time: 48
Note Off [9] (44, 64) | Time: 0
Note On [9] (44, 63) | Time: 0
Note Off [9] (44, 64) | Time: 48
Note On [9] (40, 80) | Time: 0
Note On [9] (36, 80) | Time: 0
Note Off [9] (36, 64) | Time: 48
Note Off [9] (40, 64) | Time: 0
Note On [9] (36, 82) | Time: 48
Note On [9] (44, 63) | Time: 0
Note Off [9] (44, 64) | Time: 48
Note Off [9] (36, 64) | Time: 0
Note On [9] (44, 63) | Time: 0
Note Off [9] (44, 64) | Time: 48
Note On [9] (40, 82) | Time: 0
Note Off [9] (40, 64) | Time: 48
Note On [9] (44, 63) | Time: 0
Note Off [9] (44, 64) | Time: 48
Note On [9] (36, 82) | Time: 0
Note On [9] (44, 63) | Time: 0
Note Off [9] (44, 64) | Time: 48
Note Off [9] (36, 64) | Time: 0
Note On [9] (44, 63) | Time: 0
Note Off [9] (44, 64) | Time: 48
Note On [9] (40, 81) | Time: 0
Note Off [9] (40, 64) | Time: 48
Note On [9] (36, 81) | Time: 0
Note Off [9] (36, 64) | Time: 48
Note On [9] (44, 63) | Time: 0
Note Off [9] (44, 64) | Time: 48
Note On [9] (36, 81) | Time: 0
Note On [9] (44, 63) | Time: 0
Note Off [9] (44, 64) | Time: 48
Note Off [9] (36, 64) | Time: 0
Note On [9] (40, 81) | Time: 0
Note Off [9] (40, 64) | Time: 48
Note On [9] (44, 63) | Time: 0
Note On [9] (36, 80) | Time: 0
Note Off [9] (36, 64) | Time: 48
Note Off [9] (44, 64) | Time: 0
Note On [9] (44, 63) | Time: 0
Note On [9] (36, 80) | Time: 0
Note Off [9] (36, 64) | Time: 48
Note Off [9] (44, 64) | Time: 0
Note On [9] (44, 63) | Time: 0
Note Off [9] (44, 64) | Time: 48
Note On [9] (36, 80) | Time: 0
Note On [9] (40, 80) | Time: 0
Note Off [9] (40, 64) | Time: 48
Note Off [9] (36, 64) | Time: 0
Note On [9] (44, 63) | Time: 48
Note On [9] (36, 82) | Time: 0
Note Off [9] (36, 64) | Time: 48
Note Off [9] (44, 64) | Time: 0
Note On [9] (44, 63) | Time: 0
Note Off [9] (44, 64) | Time: 48
Note On [9] (40, 82) | Time: 0
Note Off [9] (40, 64) | Time: 48
Note On [9] (44, 63) | Time: 0
Note Off [9] (44, 64) | Time: 48
Note On [9] (44, 63) | Time: 0
Note On [9] (36, 82) | Time: 0
Note Off [9] (36, 64) | Time: 48
Note Off [9] (44, 64) | Time: 0
Note On [9] (44, 63) | Time: 0
Note Off [9] (44, 64) | Time: 48
Note On [9] (40, 81) | Time: 0
Note Off [9] (40, 64) | Time: 48
Note On [9] (36, 81) | Time: 0
Note Off [9] (36, 64) | Time: 48
Note On [9] (44, 63) | Time: 0
Note Off [9] (44, 64) | Time: 48
Note On [9] (44, 63) | Time: 0
Note On [9] (36, 81) | Time: 0
Note Off [9] (36, 64) | Time: 48
Note Off [9] (44, 64) | Time: 0
Note On [9] (40, 81) | Time: 0
Note Off [9] (40, 64) | Time: 48
Note On [9] (36, 80) | Time: 0
Note On [9] (44, 63) | Time: 0
Note Off [9] (44, 64) | Time: 48
Note Off [9] (36, 64) | Time: 0
Note On [9] (44, 63) | Time: 0
Note On [9] (36, 80) | Time: 0
Note Off [9] (36, 64) | Time: 48
Note Off [9] (44, 64) | Time: 0
Note On [9] (44, 63) | Time: 0
Note Off [9] (44, 64) | Time: 48
Note On [9] (40, 80) | Time: 0
Note On [9] (36, 80) | Time: 0
Note Off [9] (36, 64) | Time: 48
Note Off [9] (40, 64) | Time: 0
Note On [9] (44, 63) | Time: 48
Note On [9] (36, 82) | Time: 0
Note Off [9] (36, 64) | Time: 48
Note Off [9] (44, 64) | Time: 0
Note On [9] (44, 63) | Time: 0
Note Off [9] (44, 64) | Time: 48
Note On [9] (40, 82) | Time: 0
Note Off [9] (40, 64) | Time: 48
Note On [9] (44, 63) | Time: 0
Note Off [9] (44, 64) | Time: 48
Note On [9] (44, 63) | Time: 0
Note On [9] (36, 82) | Time: 0
Note Off [9] (36, 64) | Time: 48
Note Off [9] (44, 64) | Time: 0
Note On [9] (44, 63) | Time: 0
Note On [9] (40, 81) | Time: 0
Note Off [9] (40, 64) | Time: 48
Note Off [9] (44, 64) | Time: 0
Note On [9] (36, 81) | Time: 48
Note On [9] (40, 81) | Time: 0
Note Off [9] (40, 64) | Time: 48
Note Off [9] (36, 64) | Time: 0
Note On [9] (44, 63) | Time: 0
Note Off [9] (44, 64) | Time: 48
Note On [9] (57, 82) | Time: 0
Note On [9] (44, 63) | Time: 0
Note On [9] (36, 81) | Time: 0
Note Off [9] (36, 64) | Time: 48
Note Off [9] (44, 64) | Time: 0
Note Off [9] (57, 64) | Time: 0
Note On [9] (40, 81) | Time: 0
Note Off [9] (40, 64) | Time: 48
Note On [9] (36, 80) | Time: 0
Note On [9] (49, 83) | Time: 0
Note Off [9] (49, 64) | Time: 48
Note Off [9] (36, 64) | Time: 0
Note On [9] (44, 63) | Time: 0
Note On [9] (40, 81) | Time: 0
Note On [9] (36, 80) | Time: 0
Note Off [9] (36, 64) | Time: 48
Note Off [9] (40, 64) | Time: 0
Note Off [9] (44, 64) | Time: 0
Note On [9] (57, 82) | Time: 0
Note On [9] (44, 63) | Time: 0
Note Off [9] (44, 64) | Time: 48
Note On [9] (40, 80) | Time: 0
Note On [9] (36, 80) | Time: 0
Note On [9] (44, 63) | Time: 0
Note Off [9] (44, 64) | Time: 48
Note Off [9] (57, 64) | Time: 0
Note Off [9] (36, 64) | Time: 0
Note Off [9] (40, 64) | Time: 0
Note On [9] (57, 82) | Time: 48
Note On [9] (46, 49) | Time: 0
Note On [9] (36, 82) | Time: 0
Note Off [9] (36, 64) | Time: 48
Note Off [9] (46, 64) | Time: 0
Note Off [9] (57, 64) | Time: 0
Note On [9] (46, 49) | Time: 48
Note On [9] (40, 82) | Time: 0
Note Off [9] (40, 64) | Time: 48
Note Off [9] (46, 64) | Time: 0
Note On [9] (46, 49) | Time: 48
Note On [9] (36, 82) | Time: 0
Note Off [9] (36, 64) | Time: 48
Note Off [9] (46, 64) | Time: 0
Note On [9] (46, 49) | Time: 48
Note On [9] (40, 81) | Time: 0
Note Off [9] (46, 64) | Time: 48
Note Off [9] (40, 64) | Time: 0
Note On [9] (36, 81) | Time: 0
Note Off [9] (36, 64) | Time: 48
Note On [9] (46, 49) | Time: 0
Note Off [9] (46, 64) | Time: 48
Note On [9] (36, 81) | Time: 0
Note Off [9] (36, 64) | Time: 48
Note On [9] (46, 49) | Time: 0
Note On [9] (40, 81) | Time: 0
Note Off [9] (40, 64) | Time: 48
Note Off [9] (46, 64) | Time: 0
Note On [9] (36, 80) | Time: 0
Note Off [9] (36, 64) | Time: 48
Note On [9] (46, 49) | Time: 0
Note On [9] (36, 80) | Time: 0
Note Off [9] (36, 64) | Time: 48
Note Off [9] (46, 64) | Time: 0
Note On [9] (46, 49) | Time: 48
Note On [9] (36, 80) | Time: 0
Note On [9] (40, 80) | Time: 0
Note Off [9] (40, 64) | Time: 48
Note Off [9] (36, 64) | Time: 0
Note Off [9] (46, 64) | Time: 0
Note On [9] (46, 49) | Time: 48
Note On [9] (36, 82) | Time: 0
Note Off [9] (36, 64) | Time: 48
Note Off [9] (46, 64) | Time: 0
Note On [9] (46, 49) | Time: 48
Note On [9] (40, 82) | Time: 0
Note Off [9] (40, 64) | Time: 48
Note Off [9] (46, 64) | Time: 0
Note On [9] (46, 49) | Time: 48
Note On [9] (36, 82) | Time: 0
Note Off [9] (36, 64) | Time: 48
Note Off [9] (46, 64) | Time: 0
Note On [9] (40, 81) | Time: 48
Note On [9] (46, 49) | Time: 0
Note Off [9] (40, 64) | Time: 48
Note Off [9] (46, 64) | Time: 0
Note On [9] (36, 81) | Time: 0
Note Off [9] (36, 64) | Time: 48
Note On [9] (46, 49) | Time: 0
Note Off [9] (46, 64) | Time: 48
Note On [9] (36, 81) | Time: 0
Note Off [9] (36, 64) | Time: 48
Note On [9] (40, 81) | Time: 0
Note On [9] (46, 49) | Time: 0
Note Off [9] (46, 64) | Time: 48
Note Off [9] (40, 64) | Time: 0
Note On [9] (36, 80) | Time: 0
Note Off [9] (36, 64) | Time: 48
Note On [9] (46, 49) | Time: 0
Note On [9] (36, 80) | Time: 0
Note Off [9] (36, 64) | Time: 48
Note Off [9] (46, 64) | Time: 0
Note On [9] (40, 80) | Time: 48
Note On [9] (36, 80) | Time: 0
Note On [9] (46, 49) | Time: 0
Note Off [9] (46, 64) | Time: 48
Note Off [9] (36, 64) | Time: 0
Note Off [9] (40, 64) | Time: 0
Note On [9] (46, 49) | Time: 48
Note On [9] (36, 82) | Time: 0
Note Off [9] (36, 64) | Time: 48
Note Off [9] (46, 64) | Time: 0
Note On [9] (46, 49) | Time: 48
Note On [9] (40, 82) | Time: 0
Note Off [9] (40, 64) | Time: 48
Note Off [9] (46, 64) | Time: 0
Note On [9] (46, 49) | Time: 48
Note On [9] (36, 82) | Time: 0
Note Off [9] (36, 64) | Time: 48
Note Off [9] (46, 64) | Time: 0
Note On [9] (46, 49) | Time: 48
Note On [9] (40, 81) | Time: 0
Note Off [9] (40, 64) | Time: 48
Note Off [9] (46, 64) | Time: 0
Note On [9] (36, 81) | Time: 0
Note Off [9] (36, 64) | Time: 48
Note On [9] (46, 49) | Time: 0
Note Off [9] (46, 64) | Time: 48
Note On [9] (36, 81) | Time: 0
Note Off [9] (36, 64) | Time: 48
Note On [9] (46, 49) | Time: 0
Note On [9] (40, 81) | Time: 0
Note Off [9] (40, 64) | Time: 48
Note Off [9] (46, 64) | Time: 0
Note On [9] (36, 80) | Time: 0
Note Off [9] (36, 64) | Time: 48
Note On [9] (46, 49) | Time: 0
Note On [9] (36, 80) | Time: 0
Note Off [9] (36, 64) | Time: 48
Note Off [9] (46, 64) | Time: 0
Note On [9] (46, 49) | Time: 48
Note On [9] (36, 80) | Time: 0
Note On [9] (40, 80) | Time: 0
Note Off [9] (40, 64) | Time: 48
Note Off [9] (36, 64) | Time: 0
Note Off [9] (46, 64) | Time: 0
Note On [9] (46, 49) | Time: 48
Note On [9] (36, 82) | Time: 0
Note Off [9] (36, 64) | Time: 48
Note Off [9] (46, 64) | Time: 0
Note On [9] (46, 49) | Time: 48
Note On [9] (40, 82) | Time: 0
Note Off [9] (40, 64) | Time: 48
Note Off [9] (46, 64) | Time: 0
Note On [9] (46, 49) | Time: 48
Note On [9] (36, 82) | Time: 0
Note Off [9] (36, 64) | Time: 48
Note Off [9] (46, 64) | Time: 0
Note On [9] (40, 81) | Time: 0
Note Off [9] (40, 64) | Time: 48
Note On [9] (46, 49) | Time: 0
Note Off [9] (46, 64) | Time: 48
Note On [9] (36, 81) | Time: 0
Note On [9] (40, 81) | Time: 0
Note Off [9] (40, 64) | Time: 48
Note Off [9] (36, 64) | Time: 0
Note On [9] (46, 49) | Time: 0
Note Off [9] (46, 64) | Time: 48
Note On [9] (36, 81) | Time: 0
Note On [9] (57, 82) | Time: 0
Note Off [9] (57, 64) | Time: 48
Note Off [9] (36, 64) | Time: 0
Note On [9] (40, 81) | Time: 0
Note On [9] (46, 49) | Time: 0
Note Off [9] (46, 64) | Time: 48
Note Off [9] (40, 64) | Time: 0
Note On [9] (49, 83) | Time: 0
Note On [9] (36, 80) | Time: 0
Note Off [9] (36, 64) | Time: 48
Note Off [9] (49, 64) | Time: 0
Note On [9] (46, 49) | Time: 0
Note On [9] (36, 80) | Time: 0
Note On [9] (40, 81) | Time: 0
Note Off [9] (40, 64) | Time: 48
Note Off [9] (36, 64) | Time: 0
Note Off [9] (46, 64) | Time: 0
Note On [9] (57, 82) | Time: 0
Note On [9] (40, 80) | Time: 48
Note On [9] (36, 80) | Time: 0
Note On [9] (46, 49) | Time: 0
Note Off [9] (57, 64) | Time: 48
Note Off [9] (46, 64) | Time: 0
Note Off [9] (36, 64) | Time: 0
Note Off [9] (40, 64) | Time: 0
Note On [9] (57, 82) | Time: 48
Note On [9] (46, 49) | Time: 0
Note On [9] (36, 82) | Time: 0
Note On [9] (57, 82) | Time: 0
Note Off [9] (57, 64) | Time: 48
Note Off [9] (36, 64) | Time: 0
Note Off [9] (46, 64) | Time: 0
Note Off [9] (57, 64) | Time: 0
Note On [9] (46, 49) | Time: 48
Note On [9] (40, 82) | Time: 0
Note Off [9] (40, 64) | Time: 48
Note Off [9] (46, 64) | Time: 0
Note On [9] (46, 49) | Time: 48
Note On [9] (36, 82) | Time: 0
Note Off [9] (36, 64) | Time: 48
Note Off [9] (46, 64) | Time: 0
Note On [9] (46, 49) | Time: 48
Note On [9] (40, 81) | Time: 0
Note Off [9] (46, 64) | Time: 48
Note Off [9] (40, 64) | Time: 0
Note On [9] (36, 81) | Time: 0
Note Off [9] (36, 64) | Time: 48
Note On [9] (46, 49) | Time: 0
Note Off [9] (46, 64) | Time: 48
Note On [9] (36, 81) | Time: 0
Note Off [9] (36, 64) | Time: 48
Note On [9] (46, 49) | Time: 0
Note On [9] (40, 81) | Time: 0
Note Off [9] (40, 64) | Time: 48
Note Off [9] (46, 64) | Time: 0
Note On [9] (36, 80) | Time: 0
Note Off [9] (36, 64) | Time: 48
Note On [9] (46, 49) | Time: 0
Note On [9] (36, 80) | Time: 0
Note Off [9] (36, 64) | Time: 48
Note Off [9] (46, 64) | Time: 0
Note On [9] (46, 49) | Time: 48
Note On [9] (36, 80) | Time: 0
Note On [9] (40, 80) | Time: 0
Note Off [9] (40, 64) | Time: 48
Note Off [9] (36, 64) | Time: 0
Note Off [9] (46, 64) | Time: 0
Note On [9] (46, 49) | Time: 48
Note On [9] (36, 82) | Time: 0
Note Off [9] (36, 64) | Time: 48
Note Off [9] (46, 64) | Time: 0
Note On [9] (46, 49) | Time: 48
Note On [9] (40, 82) | Time: 0
Note Off [9] (40, 64) | Time: 48
Note Off [9] (46, 64) | Time: 0
Note On [9] (46, 49) | Time: 48
Note On [9] (36, 82) | Time: 0
Note Off [9] (36, 64) | Time: 48
Note Off [9] (46, 64) | Time: 0
Note On [9] (40, 81) | Time: 48
Note On [9] (46, 49) | Time: 0
Note Off [9] (40, 64) | Time: 48
Note Off [9] (46, 64) | Time: 0
Note On [9] (36, 81) | Time: 0
Note Off [9] (36, 64) | Time: 48
Note On [9] (46, 49) | Time: 0
Note Off [9] (46, 64) | Time: 48
Note On [9] (36, 81) | Time: 0
Note Off [9] (36, 64) | Time: 48
Note On [9] (40, 81) | Time: 0
Note On [9] (46, 49) | Time: 0
Note Off [9] (46, 64) | Time: 48
Note Off [9] (40, 64) | Time: 0
Note On [9] (36, 80) | Time: 0
Note Off [9] (36, 64) | Time: 48
Note On [9] (46, 49) | Time: 0
Note On [9] (36, 80) | Time: 0
Note Off [9] (36, 64) | Time: 48
Note Off [9] (46, 64) | Time: 0
Note On [9] (40, 80) | Time: 48
Note On [9] (36, 80) | Time: 0
Note On [9] (46, 49) | Time: 0
Note Off [9] (46, 64) | Time: 48
Note Off [9] (36, 64) | Time: 0
Note Off [9] (40, 64) | Time: 0
Note On [9] (46, 49) | Time: 48
Note On [9] (36, 82) | Time: 0
Note Off [9] (36, 64) | Time: 48
Note Off [9] (46, 64) | Time: 0
Note On [9] (46, 49) | Time: 48
Note On [9] (40, 82) | Time: 0
Note Off [9] (40, 64) | Time: 48
Note Off [9] (46, 64) | Time: 0
Note On [9] (46, 49) | Time: 48
Note On [9] (36, 82) | Time: 0
Note Off [9] (36, 64) | Time: 48
Note Off [9] (46, 64) | Time: 0
Note On [9] (46, 49) | Time: 48
Note On [9] (40, 81) | Time: 0
Note Off [9] (40, 64) | Time: 48
Note Off [9] (46, 64) | Time: 0
Note On [9] (36, 81) | Time: 0
Note Off [9] (36, 64) | Time: 48
Note On [9] (46, 49) | Time: 0
Note Off [9] (46, 64) | Time: 48
Note On [9] (36, 81) | Time: 0
Note Off [9] (36, 64) | Time: 48
Note On [9] (46, 49) | Time: 0
Note On [9] (40, 81) | Time: 0
Note Off [9] (40, 64) | Time: 48
Note Off [9] (46, 64) | Time: 0
Note On [9] (36, 80) | Time: 0
Note Off [9] (36, 64) | Time: 48
Note On [9] (46, 49) | Time: 0
Note On [9] (36, 80) | Time: 0
Note Off [9] (36, 64) | Time: 48
Note Off [9] (46, 64) | Time: 0
Note On [9] (46, 49) | Time: 48
Note On [9] (36, 80) | Time: 0
Note On [9] (40, 80) | Time: 0
Note Off [9] (40, 64) | Time: 48
Note Off [9] (36, 64) | Time: 0
Note Off [9] (46, 64) | Time: 0
Note On [9] (46, 49) | Time: 48
Note On [9] (36, 82) | Time: 0
Note Off [9] (36, 64) | Time: 48
Note Off [9] (46, 64) | Time: 0
Note On [9] (46, 49) | Time: 48
Note On [9] (40, 82) | Time: 0
Note Off [9] (40, 64) | Time: 48
Note Off [9] (46, 64) | Time: 0
Note On [9] (46, 49) | Time: 48
Note On [9] (36, 82) | Time: 0
Note Off [9] (36, 64) | Time: 48
Note Off [9] (46, 64) | Time: 0
Note On [9] (40, 81) | Time: 0
Note Off [9] (40, 64) | Time: 48
Note On [9] (46, 49) | Time: 0
Note Off [9] (46, 64) | Time: 48
Note On [9] (36, 81) | Time: 0
Note On [9] (40, 81) | Time: 0
Note Off [9] (40, 64) | Time: 48
Note Off [9] (36, 64) | Time: 0
Note On [9] (46, 49) | Time: 0
Note Off [9] (46, 64) | Time: 48
Note On [9] (36, 81) | Time: 0
Note On [9] (57, 82) | Time: 0
Note Off [9] (57, 64) | Time: 48
Note Off [9] (36, 64) | Time: 0
Note On [9] (40, 81) | Time: 0
Note On [9] (46, 49) | Time: 0
Note Off [9] (46, 64) | Time: 48
Note Off [9] (40, 64) | Time: 0
Note On [9] (49, 83) | Time: 0
Note On [9] (36, 80) | Time: 0
Note On [9] (40, 81) | Time: 0
Note Off [9] (40, 64) | Time: 48
Note Off [9] (36, 64) | Time: 0
Note Off [9] (49, 64) | Time: 0
Note On [9] (46, 49) | Time: 0
Note On [9] (36, 80) | Time: 0
Note Off [9] (36, 64) | Time: 48
Note Off [9] (46, 64) | Time: 0
Note On [9] (40, 80) | Time: 0
Note On [9] (57, 82) | Time: 0
Note Off [9] (40, 64) | Time: 48
Note On [9] (40, 80) | Time: 0
Note On [9] (36, 80) | Time: 0
Note On [9] (46, 49) | Time: 0
Note Off [9] (57, 64) | Time: 48
Note Off [9] (46, 64) | Time: 0
Note Off [9] (36, 64) | Time: 0
Note Off [9] (40, 64) | Time: 0
Note On [9] (57, 82) | Time: 48
Note On [9] (57, 82) | Time: 0
Note On [9] (46, 49) | Time: 0
Note On [9] (36, 82) | Time: 0
Note On [9] (57, 82) | Time: 0
Note Off [9] (57, 64) | Time: 48
Note Off [9] (36, 64) | Time: 0
Note Off [9] (46, 64) | Time: 0
Note Off [9] (57, 64) | Time: 0
Note Off [9] (57, 64) | Time: 0
Note On [9] (46, 49) | Time: 48
Note On [9] (40, 82) | Time: 0
Note Off [9] (40, 64) | Time: 48
Note Off [9] (46, 64) | Time: 0
Note On [9] (36, 82) | Time: 48
Note On [9] (46, 49) | Time: 0
Note Off [9] (46, 64) | Time: 48
Note Off [9] (36, 64) | Time: 0
Note On [9] (40, 81) | Time: 48
Note On [9] (46, 49) | Time: 0
Note Off [9] (46, 64) | Time: 48
Note Off [9] (40, 64) | Time: 0
Note On [9] (36, 81) | Time: 0
Note Off [9] (36, 64) | Time: 48
Note On [9] (46, 49) | Time: 0
Note Off [9] (46, 64) | Time: 48
Note On [9] (36, 81) | Time: 0
Note Off [9] (36, 64) | Time: 48
Note On [9] (40, 81) | Time: 0
Note On [9] (46, 49) | Time: 0
Note Off [9] (46, 64) | Time: 48
Note Off [9] (40, 64) | Time: 0
Note On [9] (36, 80) | Time: 0
Note Off [9] (36, 64) | Time: 48
Note On [9] (36, 80) | Time: 0
Note On [9] (46, 49) | Time: 0
Note Off [9] (46, 64) | Time: 48
Note Off [9] (36, 64) | Time: 0
Note On [9] (46, 49) | Time: 48
Note On [9] (36, 80) | Time: 0
Note On [9] (40, 80) | Time: 0
Note Off [9] (40, 64) | Time: 48
Note Off [9] (36, 64) | Time: 0
Note Off [9] (46, 64) | Time: 0
Note On [9] (46, 49) | Time: 48
Note On [9] (36, 82) | Time: 0
Note Off [9] (36, 64) | Time: 48
Note Off [9] (46, 64) | Time: 0
Note On [9] (46, 49) | Time: 48
Note On [9] (40, 82) | Time: 0
Note Off [9] (40, 64) | Time: 48
Note Off [9] (46, 64) | Time: 0
Note On [9] (36, 82) | Time: 48
Note On [9] (46, 49) | Time: 0
Note Off [9] (46, 64) | Time: 48
Note Off [9] (36, 64) | Time: 0
Note On [9] (46, 49) | Time: 48
Note On [9] (40, 81) | Time: 0
Note Off [9] (46, 64) | Time: 48
Note Off [9] (40, 64) | Time: 0
Note On [9] (36, 81) | Time: 0
Note Off [9] (36, 64) | Time: 48
Note On [9] (46, 49) | Time: 0
Note Off [9] (46, 64) | Time: 48
Note On [9] (36, 81) | Time: 0
Note Off [9] (36, 64) | Time: 48
Note On [9] (46, 49) | Time: 0
Note On [9] (40, 81) | Time: 0
Note Off [9] (40, 64) | Time: 48
Note Off [9] (46, 64) | Time: 0
Note On [9] (36, 80) | Time: 0
Note Off [9] (36, 64) | Time: 48
Note On [9] (36, 80) | Time: 0
Note On [9] (46, 49) | Time: 0
Note Off [9] (46, 64) | Time: 48
Note Off [9] (36, 64) | Time: 0
Note On [9] (40, 80) | Time: 48
Note On [9] (36, 80) | Time: 0
Note On [9] (46, 49) | Time: 0
Note Off [9] (46, 64) | Time: 48
Note Off [9] (36, 64) | Time: 0
Note Off [9] (40, 64) | Time: 0
Note On [9] (46, 49) | Time: 48
Note On [9] (36, 82) | Time: 0
Note Off [9] (36, 64) | Time: 48
Note Off [9] (46, 64) | Time: 0
Note On [9] (46, 49) | Time: 48
Note On [9] (40, 82) | Time: 0
Note Off [9] (40, 64) | Time: 48
Note Off [9] (46, 64) | Time: 0
Note On [9] (36, 82) | Time: 48
Note On [9] (46, 49) | Time: 0
Note Off [9] (46, 64) | Time: 48
Note Off [9] (36, 64) | Time: 0
Note On [9] (40, 81) | Time: 48
Note On [9] (46, 49) | Time: 0
Note Off [9] (40, 64) | Time: 48
Note Off [9] (46, 64) | Time: 0
Note On [9] (36, 81) | Time: 0
Note Off [9] (36, 64) | Time: 48
Note On [9] (46, 49) | Time: 0
Note Off [9] (46, 64) | Time: 48
Note On [9] (36, 81) | Time: 0
Note Off [9] (36, 64) | Time: 48
Note On [9] (40, 81) | Time: 0
Note On [9] (46, 49) | Time: 0
Note Off [9] (46, 64) | Time: 48
Note Off [9] (40, 64) | Time: 0
Note On [9] (36, 80) | Time: 0
Note Off [9] (36, 64) | Time: 48
Note On [9] (36, 80) | Time: 0
Note On [9] (46, 49) | Time: 0
Note Off [9] (46, 64) | Time: 48
Note Off [9] (36, 64) | Time: 0
Note On [9] (40, 80) | Time: 48
Note On [9] (36, 80) | Time: 0
Note On [9] (46, 49) | Time: 0
Note Off [9] (46, 64) | Time: 48
Note Off [9] (36, 64) | Time: 0
Note Off [9] (40, 64) | Time: 0
Note On [9] (46, 49) | Time: 48
Note On [9] (36, 82) | Time: 0
Note Off [9] (36, 64) | Time: 48
Note Off [9] (46, 64) | Time: 0
Note On [9] (46, 49) | Time: 48
Note On [9] (40, 82) | Time: 0
Note Off [9] (40, 64) | Time: 48
Note Off [9] (46, 64) | Time: 0
Note On [9] (36, 82) | Time: 48
Note On [9] (46, 49) | Time: 0
Note Off [9] (46, 64) | Time: 48
Note Off [9] (36, 64) | Time: 0
Note On [9] (40, 81) | Time: 0
Note Off [9] (40, 64) | Time: 48
Note On [9] (46, 49) | Time: 0
Note Off [9] (46, 64) | Time: 48
Note On [9] (40, 81) | Time: 0
Note On [9] (36, 81) | Time: 0
Note Off [9] (36, 64) | Time: 48
Note Off [9] (40, 64) | Time: 0
Note On [9] (46, 49) | Time: 0
Note Off [9] (46, 64) | Time: 48
Note On [9] (57, 82) | Time: 0
Note On [9] (36, 81) | Time: 0
Note Off [9] (36, 64) | Time: 48
Note Off [9] (57, 64) | Time: 0
Note On [9] (46, 49) | Time: 0
Note On [9] (40, 81) | Time: 0
Note Off [9] (40, 64) | Time: 48
Note Off [9] (46, 64) | Time: 0
Note On [9] (40, 81) | Time: 0
Note On [9] (36, 80) | Time: 0
Note On [9] (49, 83) | Time: 0
Note Off [9] (49, 64) | Time: 48
Note Off [9] (36, 64) | Time: 0
Note Off [9] (40, 64) | Time: 0
Note On [9] (36, 80) | Time: 0
Note On [9] (46, 49) | Time: 0
Note Off [9] (46, 64) | Time: 48
Note Off [9] (36, 64) | Time: 0
Note On [9] (57, 82) | Time: 0
Note On [9] (40, 80) | Time: 0
Note Off [9] (40, 64) | Time: 48
Note On [9] (40, 80) | Time: 0
Note On [9] (36, 80) | Time: 0
Note On [9] (46, 49) | Time: 0
Note Off [9] (46, 64) | Time: 48
Note Off [9] (57, 64) | Time: 0
Note Off [9] (36, 64) | Time: 0
Note Off [9] (40, 64) | Time: 0
Note On [9] (57, 82) | Time: 48
Note On [9] (46, 49) | Time: 0
Note On [9] (36, 82) | Time: 0
Note On [9] (57, 82) | Time: 0
Note On [9] (57, 82) | Time: 0
Note Off [9] (57, 64) | Time: 48
Note Off [9] (57, 64) | Time: 0
Note Off [9] (36, 64) | Time: 0
Note Off [9] (46, 64) | Time: 0
Note Off [9] (57, 64) | Time: 0
Note On [9] (46, 49) | Time: 48
Note On [9] (40, 82) | Time: 0
Note Off [9] (40, 64) | Time: 48
Note Off [9] (46, 64) | Time: 0
Note On [9] (36, 82) | Time: 48
Note On [9] (46, 49) | Time: 0
Note Off [9] (46, 64) | Time: 48
Note Off [9] (36, 64) | Time: 0
Note On [9] (40, 81) | Time: 48
Note On [9] (46, 49) | Time: 0
Note Off [9] (40, 64) | Time: 48
Note Off [9] (46, 64) | Time: 0
Note On [9] (36, 81) | Time: 0
Note Off [9] (36, 64) | Time: 48
Note On [9] (46, 49) | Time: 0
Note Off [9] (46, 64) | Time: 48
Note On [9] (36, 81) | Time: 0
Note Off [9] (36, 64) | Time: 48
Note On [9] (40, 81) | Time: 0
Note On [9] (46, 49) | Time: 0
Note Off [9] (46, 64) | Time: 48
Note Off [9] (40, 64) | Time: 0
Note On [9] (36, 80) | Time: 0
Note Off [9] (36, 64) | Time: 48
Note On [9] (36, 80) | Time: 0
Note On [9] (46, 49) | Time: 0
Note Off [9] (46, 64) | Time: 48
Note Off [9] (36, 64) | Time: 0
Note On [9] (46, 49) | Time: 48
Note On [9] (36, 80) | Time: 0
Note On [9] (40, 80) | Time: 0
Note Off [9] (40, 64) | Time: 48
Note Off [9] (36, 64) | Time: 0
Note Off [9] (46, 64) | Time: 0
Note On [9] (46, 49) | Time: 48
Note On [9] (36, 82) | Time: 0
Note Off [9] (36, 64) | Time: 48
Note Off [9] (46, 64) | Time: 0
Note On [9] (46, 49) | Time: 48
Note On [9] (40, 82) | Time: 0
Note Off [9] (40, 64) | Time: 48
Note Off [9] (46, 64) | Time: 0
Note On [9] (36, 82) | Time: 48
Note On [9] (46, 49) | Time: 0
Note Off [9] (46, 64) | Time: 48
Note Off [9] (36, 64) | Time: 0
Note On [9] (46, 49) | Time: 48
Note On [9] (40, 81) | Time: 0
Note Off [9] (46, 64) | Time: 48
Note Off [9] (40, 64) | Time: 0
Note On [9] (36, 81) | Time: 0
Note Off [9] (36, 64) | Time: 48
Note On [9] (46, 49) | Time: 0
Note Off [9] (46, 64) | Time: 48
Note On [9] (36, 81) | Time: 0
Note Off [9] (36, 64) | Time: 48
Note On [9] (46, 49) | Time: 0
Note On [9] (40, 81) | Time: 0
Note Off [9] (40, 64) | Time: 48
Note Off [9] (46, 64) | Time: 0
Note On [9] (36, 80) | Time: 0
Note Off [9] (36, 64) | Time: 48
Note On [9] (36, 80) | Time: 0
Note On [9] (46, 49) | Time: 0
Note Off [9] (46, 64) | Time: 48
Note Off [9] (36, 64) | Time: 0
Note On [9] (40, 80) | Time: 48
Note On [9] (36, 80) | Time: 0
Note On [9] (46, 49) | Time: 0
Note Off [9] (46, 64) | Time: 48
Note Off [9] (36, 64) | Time: 0
Note Off [9] (40, 64) | Time: 0
Note On [9] (46, 49) | Time: 48
Note On [9] (36, 82) | Time: 0
Note Off [9] (36, 64) | Time: 48
Note Off [9] (46, 64) | Time: 0
Note On [9] (46, 49) | Time: 48
Note On [9] (40, 82) | Time: 0
Note Off [9] (40, 64) | Time: 48
Note Off [9] (46, 64) | Time: 0
Note On [9] (36, 82) | Time: 48
Note On [9] (46, 49) | Time: 0
Note Off [9] (46, 64) | Time: 48
Note Off [9] (36, 64) | Time: 0
Note On [9] (40, 81) | Time: 48
Note On [9] (46, 49) | Time: 0
Note Off [9] (46, 64) | Time: 48
Note Off [9] (40, 64) | Time: 0
Note On [9] (36, 81) | Time: 0
Note Off [9] (36, 64) | Time: 48
Note On [9] (46, 49) | Time: 0
Note Off [9] (46, 64) | Time: 48
Note On [9] (36, 81) | Time: 0
Note Off [9] (36, 64) | Time: 48
Note On [9] (40, 81) | Time: 0
Note On [9] (46, 49) | Time: 0
Note Off [9] (46, 64) | Time: 48
Note Off [9] (40, 64) | Time: 0
Note On [9] (36, 80) | Time: 0
Note Off [9] (36, 64) | Time: 48
Note On [9] (36, 80) | Time: 0
Note On [9] (46, 49) | Time: 0
Note Off [9] (46, 64) | Time: 48
Note Off [9] (36, 64) | Time: 0
Note On [9] (40, 80) | Time: 48
Note On [9] (36, 80) | Time: 0
Note On [9] (46, 49) | Time: 0
Note Off [9] (46, 64) | Time: 48
Note Off [9] (36, 64) | Time: 0
Note Off [9] (40, 64) | Time: 0
Note On [9] (46, 49) | Time: 48
Note On [9] (36, 82) | Time: 0
Note Off [9] (36, 64) | Time: 48
Note Off [9] (46, 64) | Time: 0
Note On [9] (46, 49) | Time: 48
Note On [9] (40, 82) | Time: 0
Note Off [9] (40, 64) | Time: 48
Note Off [9] (46, 64) | Time: 0
Note On [9] (36, 82) | Time: 48
Note On [9] (46, 49) | Time: 0
Note Off [9] (46, 64) | Time: 48
Note Off [9] (36, 64) | Time: 0
Note On [9] (40, 81) | Time: 0
Note Off [9] (40, 64) | Time: 48
Note On [9] (46, 49) | Time: 0
Note Off [9] (46, 64) | Time: 48
Note On [9] (40, 81) | Time: 0
Note On [9] (36, 81) | Time: 0
Note Off [9] (36, 64) | Time: 48
Note Off [9] (40, 64) | Time: 0
Note On [9] (46, 49) | Time: 0
Note Off [9] (46, 64) | Time: 48
Note On [9] (57, 82) | Time: 0
Note On [9] (36, 81) | Time: 0
Note Off [9] (36, 64) | Time: 48
Note Off [9] (57, 64) | Time: 0
Note On [9] (46, 49) | Time: 0
Note On [9] (40, 81) | Time: 0
Note Off [9] (40, 64) | Time: 48
Note Off [9] (46, 64) | Time: 0
Note On [9] (40, 81) | Time: 0
Note On [9] (36, 80) | Time: 0
Note On [9] (49, 83) | Time: 0
Note Off [9] (49, 64) | Time: 48
Note Off [9] (36, 64) | Time: 0
Note Off [9] (40, 64) | Time: 0
Note On [9] (36, 80) | Time: 0
Note On [9] (46, 49) | Time: 0
Note Off [9] (46, 64) | Time: 48
Note Off [9] (36, 64) | Time: 0
Note On [9] (57, 82) | Time: 0
Note On [9] (40, 80) | Time: 0
Note Off [9] (40, 64) | Time: 48
Note On [9] (40, 80) | Time: 0
Note On [9] (36, 80) | Time: 0
Note On [9] (46, 49) | Time: 0
Note Off [9] (46, 64) | Time: 48
Note Off [9] (57, 64) | Time: 0
Note Off [9] (36, 64) | Time: 0
Note Off [9] (40, 64) | Time: 0
Note On [9] (57, 82) | Time: 48
Note On [9] (57, 82) | Time: 0
Note On [9] (46, 49) | Time: 0
Note On [9] (36, 82) | Time: 0
Note On [9] (57, 82) | Time: 0
Note Off [9] (57, 64) | Time: 48
Note Off [9] (36, 64) | Time: 0
Note Off [9] (46, 64) | Time: 0
Note Off [9] (57, 64) | Time: 0
Note Off [9] (57, 64) | Time: 0
Note On [9] (40, 82) | Time: 48
Note On [9] (46, 49) | Time: 0
Note Off [9] (46, 64) | Time: 48
Note Off [9] (40, 64) | Time: 0
Note On [9] (36, 82) | Time: 48
Note On [9] (46, 49) | Time: 0
Note Off [9] (46, 64) | Time: 48
Note Off [9] (36, 64) | Time: 0
Note On [9] (46, 49) | Time: 48
Note On [9] (40, 81) | Time: 0
Note Off [9] (40, 64) | Time: 48
Note Off [9] (46, 64) | Time: 0
Note On [9] (36, 81) | Time: 0
Note Off [9] (36, 64) | Time: 48
Note On [9] (46, 49) | Time: 0
Note Off [9] (46, 64) | Time: 48
Note On [9] (36, 81) | Time: 0
Note Off [9] (36, 64) | Time: 48
Note On [9] (46, 49) | Time: 0
Note On [9] (40, 81) | Time: 0
Note Off [9] (40, 64) | Time: 48
Note Off [9] (46, 64) | Time: 0
Note On [9] (36, 80) | Time: 0
Note Off [9] (36, 64) | Time: 48
Note On [9] (36, 80) | Time: 0
Note On [9] (46, 49) | Time: 0
Note Off [9] (46, 64) | Time: 48
Note Off [9] (36, 64) | Time: 0
Note On [9] (40, 80) | Time: 48
Note On [9] (36, 80) | Time: 0
Note On [9] (46, 49) | Time: 0
Note Off [9] (46, 64) | Time: 48
Note Off [9] (36, 64) | Time: 0
Note Off [9] (40, 64) | Time: 0
Note On [9] (46, 49) | Time: 48
Note On [9] (36, 82) | Time: 0
Note Off [9] (36, 64) | Time: 48
Note Off [9] (46, 64) | Time: 0
Note On [9] (40, 82) | Time: 48
Note On [9] (46, 49) | Time: 0
Note Off [9] (46, 64) | Time: 48
Note Off [9] (40, 64) | Time: 0
Note On [9] (36, 82) | Time: 48
Note On [9] (46, 49) | Time: 0
Note Off [9] (46, 64) | Time: 48
Note Off [9] (36, 64) | Time: 0
Note On [9] (40, 81) | Time: 48
Note On [9] (46, 49) | Time: 0
Note Off [9] (40, 64) | Time: 48
Note Off [9] (46, 64) | Time: 0
Note On [9] (36, 81) | Time: 0
Note Off [9] (36, 64) | Time: 48
Note On [9] (46, 49) | Time: 0
Note Off [9] (46, 64) | Time: 48
Note On [9] (36, 81) | Time: 0
Note Off [9] (36, 64) | Time: 48
Note On [9] (40, 81) | Time: 0
Note On [9] (46, 49) | Time: 0
Note Off [9] (46, 64) | Time: 48
Note Off [9] (40, 64) | Time: 0
Note On [9] (36, 80) | Time: 0
Note Off [9] (36, 64) | Time: 48
Note On [9] (36, 80) | Time: 0
Note On [9] (46, 49) | Time: 0
Note Off [9] (46, 64) | Time: 48
Note Off [9] (36, 64) | Time: 0
Note On [9] (46, 49) | Time: 48
Note On [9] (36, 80) | Time: 0
Note On [9] (40, 80) | Time: 0
Note Off [9] (40, 64) | Time: 48
Note Off [9] (36, 64) | Time: 0
Note Off [9] (46, 64) | Time: 0
Note On [9] (46, 49) | Time: 48
Note On [9] (36, 82) | Time: 0
Note Off [9] (36, 64) | Time: 48
Note Off [9] (46, 64) | Time: 0
Note On [9] (40, 82) | Time: 48
Note On [9] (46, 49) | Time: 0
Note Off [9] (46, 64) | Time: 48
Note Off [9] (40, 64) | Time: 0
Note On [9] (36, 82) | Time: 48
Note On [9] (46, 49) | Time: 0
Note Off [9] (46, 64) | Time: 48
Note Off [9] (36, 64) | Time: 0
Note On [9] (46, 49) | Time: 48
Note On [9] (40, 81) | Time: 0
Note Off [9] (46, 64) | Time: 48
Note Off [9] (40, 64) | Time: 0
Note On [9] (36, 81) | Time: 0
Note Off [9] (36, 64) | Time: 48
Note On [9] (46, 49) | Time: 0
Note Off [9] (46, 64) | Time: 48
Note On [9] (36, 81) | Time: 0
Note Off [9] (36, 64) | Time: 48
Note On [9] (46, 49) | Time: 0
Note On [9] (40, 81) | Time: 0
Note Off [9] (40, 64) | Time: 48
Note Off [9] (46, 64) | Time: 0
Note On [9] (36, 80) | Time: 0
Note Off [9] (36, 64) | Time: 48
Note On [9] (36, 80) | Time: 0
Note On [9] (46, 49) | Time: 0
Note Off [9] (46, 64) | Time: 48
Note Off [9] (36, 64) | Time: 0
Note On [9] (46, 49) | Time: 48
Note On [9] (36, 80) | Time: 0
Note On [9] (40, 80) | Time: 0
Note Off [9] (40, 64) | Time: 48
Note Off [9] (36, 64) | Time: 0
Note Off [9] (46, 64) | Time: 0
Note On [9] (46, 49) | Time: 48
Note On [9] (36, 82) | Time: 0
Note Off [9] (36, 64) | Time: 48
Note Off [9] (46, 64) | Time: 0
Note On [9] (40, 82) | Time: 48
Note On [9] (46, 49) | Time: 0
Note Off [9] (46, 64) | Time: 48
Note Off [9] (40, 64) | Time: 0
Note On [9] (36, 82) | Time: 48
Note On [9] (46, 49) | Time: 0
Note Off [9] (46, 64) | Time: 48
Note Off [9] (36, 64) | Time: 0
Note On [9] (40, 81) | Time: 0
Note Off [9] (40, 64) | Time: 48
Note On [9] (46, 49) | Time: 0
Note Off [9] (46, 64) | Time: 48
Note On [9] (40, 81) | Time: 0
Note On [9] (36, 81) | Time: 0
Note Off [9] (36, 64) | Time: 48
Note Off [9] (40, 64) | Time: 0
Note On [9] (46, 49) | Time: 0
Note Off [9] (46, 64) | Time: 48
Note On [9] (57, 82) | Time: 0
Note On [9] (36, 81) | Time: 0
Note Off [9] (36, 64) | Time: 48
Note Off [9] (57, 64) | Time: 0
Note On [9] (40, 81) | Time: 0
Note On [9] (46, 49) | Time: 0
Note Off [9] (46, 64) | Time: 48
Note Off [9] (40, 64) | Time: 0
Note On [9] (40, 81) | Time: 0
Note On [9] (36, 80) | Time: 0
Note On [9] (49, 82) | Time: 0
Note Off [9] (49, 64) | Time: 48
Note Off [9] (36, 64) | Time: 0
Note Off [9] (40, 64) | Time: 0
Note On [9] (46, 49) | Time: 0
Note On [9] (36, 80) | Time: 0
Note Off [9] (36, 64) | Time: 48
Note Off [9] (46, 64) | Time: 0
Note On [9] (57, 82) | Time: 0
Note On [9] (40, 80) | Time: 0
Note Off [9] (40, 64) | Time: 48
Note On [9] (46, 49) | Time: 0
Note On [9] (40, 80) | Time: 0
Note On [9] (36, 80) | Time: 0
Note Off [9] (36, 64) | Time: 48
Note Off [9] (57, 64) | Time: 0
Note Off [9] (40, 64) | Time: 0
Note Off [9] (46, 64) | Time: 0
Note On [9] (44, 49) | Time: 48
Note On [9] (36, 80) | Time: 0
Note On [9] (57, 82) | Time: 0
Note Off [9] (57, 64) | Time: 48
Note Off [9] (36, 64) | Time: 0
Note Off [9] (44, 64) | Time: 0
Note On [9] (44, 49) | Time: 48
Note Off [9] (44, 64) | Time: 48
Note On [9] (44, 49) | Time: 48
Note On [9] (40, 80) | Time: 0
Note Off [9] (40, 64) | Time: 48
Note Off [9] (44, 64) | Time: 0
Note On [9] (44, 49) | Time: 48
Note Off [9] (44, 64) | Time: 48
Note On [9] (36, 80) | Time: 0
Note Off [9] (36, 64) | Time: 48
Note On [9] (44, 49) | Time: 0
Note Off [9] (44, 64) | Time: 48
Note On [9] (36, 80) | Time: 0
Note Off [9] (36, 64) | Time: 48
Note On [9] (44, 49) | Time: 0
Note Off [9] (44, 64) | Time: 48
Note On [9] (36, 80) | Time: 0
Note Off [9] (36, 64) | Time: 48
Note On [9] (44, 49) | Time: 0
Note On [9] (36, 80) | Time: 0
Note On [9] (40, 80) | Time: 0
Note Off [9] (40, 64) | Time: 48
Note Off [9] (36, 64) | Time: 0
Note Off [9] (44, 64) | Time: 0
Note On [9] (44, 49) | Time: 48
Note Off [9] (44, 64) | Time: 48
Note On [9] (40, 80) | Time: 0
Note Off [9] (40, 64) | Time: 48
Note On [9] (44, 49) | Time: 0
Note On [9] (36, 80) | Time: 0
Note Off [9] (36, 64) | Time: 48
Note Off [9] (44, 64) | Time: 0
Note On [9] (44, 49) | Time: 48
Note Off [9] (44, 64) | Time: 48
Note On [9] (44, 49) | Time: 48
Note On [9] (40, 80) | Time: 0
Note Off [9] (40, 64) | Time: 48
Note Off [9] (44, 64) | Time: 0
Note On [9] (44, 49) | Time: 48
Note Off [9] (44, 64) | Time: 48
Note On [9] (36, 80) | Time: 0
Note Off [9] (36, 64) | Time: 48
Note On [9] (44, 49) | Time: 0
Note Off [9] (44, 64) | Time: 48
Note On [9] (36, 80) | Time: 0
Note Off [9] (36, 64) | Time: 48
Note On [9] (44, 49) | Time: 0
Note Off [9] (44, 64) | Time: 48
Note On [9] (36, 80) | Time: 0
Note Off [9] (36, 64) | Time: 48
Note On [9] (44, 49) | Time: 0
Note On [9] (36, 80) | Time: 0
Note On [9] (40, 80) | Time: 0
Note Off [9] (40, 64) | Time: 48
Note Off [9] (44, 64) | Time: 0
Note Off [9] (36, 64) | Time: 0
Note On [9] (44, 49) | Time: 48
Note Off [9] (44, 64) | Time: 48
Note On [9] (40, 80) | Time: 0
Note Off [9] (40, 64) | Time: 48
Note On [9] (44, 49) | Time: 0
Note On [9] (36, 80) | Time: 0
Note Off [9] (36, 64) | Time: 48
Note Off [9] (44, 64) | Time: 0
Note On [9] (44, 49) | Time: 48
Note Off [9] (44, 64) | Time: 48
Note On [9] (44, 49) | Time: 48
Note On [9] (40, 80) | Time: 0
Note Off [9] (40, 64) | Time: 48
Note Off [9] (44, 64) | Time: 0
Note On [9] (44, 49) | Time: 48
Note Off [9] (44, 64) | Time: 48
Note On [9] (36, 80) | Time: 0
Note Off [9] (36, 64) | Time: 48
Note On [9] (44, 49) | Time: 0
Note Off [9] (44, 64) | Time: 48
Note On [9] (36, 80) | Time: 0
Note Off [9] (36, 64) | Time: 48
Note On [9] (44, 49) | Time: 0
Note Off [9] (44, 64) | Time: 48
Note On [9] (36, 80) | Time: 0
Note Off [9] (36, 64) | Time: 48
Note On [9] (44, 49) | Time: 0
Note On [9] (36, 80) | Time: 0
Note On [9] (40, 80) | Time: 0
Note Off [9] (40, 64) | Time: 48
Note Off [9] (44, 64) | Time: 0
Note Off [9] (36, 64) | Time: 0
Note On [9] (44, 49) | Time: 48
Note Off [9] (44, 64) | Time: 48
Note On [9] (40, 80) | Time: 0
Note Off [9] (40, 64) | Time: 48
Note On [9] (44, 49) | Time: 0
Note On [9] (36, 80) | Time: 0
Note Off [9] (36, 64) | Time: 48
Note Off [9] (44, 64) | Time: 0
Note On [9] (44, 49) | Time: 48
Note Off [9] (44, 64) | Time: 48
Note On [9] (44, 49) | Time: 48
Note On [9] (40, 80) | Time: 0
Note Off [9] (40, 64) | Time: 48
Note Off [9] (44, 64) | Time: 0
Note On [9] (44, 49) | Time: 48
Note Off [9] (44, 64) | Time: 48
Note On [9] (36, 80) | Time: 0
Note Off [9] (36, 64) | Time: 48
Note On [9] (44, 49) | Time: 0
Note Off [9] (44, 64) | Time: 48
Note On [9] (36, 80) | Time: 0
Note Off [9] (36, 64) | Time: 48
Note On [9] (44, 49) | Time: 0
Note Off [9] (44, 64) | Time: 48
Note On [9] (36, 80) | Time: 0
Note Off [9] (36, 64) | Time: 48
Note On [9] (44, 49) | Time: 0
Note On [9] (36, 80) | Time: 0
Note On [9] (40, 80) | Time: 0
Note Off [9] (40, 64) | Time: 48
Note Off [9] (44, 64) | Time: 0
Note Off [9] (36, 64) | Time: 0
Note On [9] (44, 49) | Time: 48
Note Off [9] (44, 64) | Time: 48
Note On [9] (40, 80) | Time: 0
Note Off [9] (40, 64) | Time: 48
Note On [9] (44, 49) | Time: 0
Note On [9] (36, 80) | Time: 0
Note Off [9] (36, 64) | Time: 48
Note Off [9] (44, 64) | Time: 0
Note On [9] (44, 49) | Time: 48
Note Off [9] (44, 64) | Time: 48
Note On [9] (44, 49) | Time: 48
Note On [9] (40, 80) | Time: 0
Note Off [9] (40, 64) | Time: 48
Note Off [9] (44, 64) | Time: 0
Note On [9] (44, 49) | Time: 48
Note Off [9] (44, 64) | Time: 48
Note On [9] (36, 80) | Time: 0
Note Off [9] (36, 64) | Time: 48
Note On [9] (44, 49) | Time: 0
Note Off [9] (44, 64) | Time: 48
Note On [9] (36, 80) | Time: 0
Note Off [9] (36, 64) | Time: 48
Note On [9] (44, 49) | Time: 0
Note Off [9] (44, 64) | Time: 48
Note On [9] (36, 80) | Time: 0
Note Off [9] (36, 64) | Time: 48
Note On [9] (44, 49) | Time: 0
Note On [9] (36, 80) | Time: 0
Note On [9] (40, 80) | Time: 0
Note Off [9] (40, 64) | Time: 48
Note Off [9] (36, 64) | Time: 0
Note Off [9] (44, 64) | Time: 0
Note On [9] (44, 49) | Time: 48
Note Off [9] (44, 64) | Time: 48
Note On [9] (40, 80) | Time: 0
Note Off [9] (40, 64) | Time: 48
Note On [9] (44, 49) | Time: 0
Note On [9] (36, 80) | Time: 0
Note Off [9] (36, 64) | Time: 48
Note Off [9] (44, 64) | Time: 0
Note On [9] (44, 49) | Time: 48
Note Off [9] (44, 64) | Time: 48
Note On [9] (44, 49) | Time: 48
Note On [9] (40, 80) | Time: 0
Note Off [9] (40, 64) | Time: 48
Note Off [9] (44, 64) | Time: 0
Note On [9] (44, 49) | Time: 48
Note Off [9] (44, 64) | Time: 48
Note On [9] (36, 80) | Time: 0
Note Off [9] (36, 64) | Time: 48
Note On [9] (44, 49) | Time: 0
Note Off [9] (44, 64) | Time: 48
Note On [9] (36, 80) | Time: 0
Note Off [9] (36, 64) | Time: 48
Note On [9] (44, 49) | Time: 0
Note Off [9] (44, 64) | Time: 48
Note On [9] (36, 80) | Time: 0
Note Off [9] (36, 64) | Time: 48
Note On [9] (44, 49) | Time: 0
Note On [9] (36, 80) | Time: 0
Note On [9] (40, 80) | Time: 0
Note Off [9] (40, 64) | Time: 48
Note Off [9] (44, 64) | Time: 0
Note Off [9] (36, 64) | Time: 0
Note On [9] (44, 49) | Time: 48
Note Off [9] (44, 64) | Time: 48
Note On [9] (40, 80) | Time: 0
Note Off [9] (40, 64) | Time: 48
Note On [9] (44, 49) | Time: 0
Note On [9] (36, 80) | Time: 0
Note Off [9] (36, 64) | Time: 48
Note Off [9] (44, 64) | Time: 0
Note On [9] (44, 49) | Time: 48
Note Off [9] (44, 64) | Time: 48
Note On [9] (40, 80) | Time: 48
Note On [9] (44, 49) | Time: 0
Note Off [9] (44, 64) | Time: 48
Note Off [9] (40, 64) | Time: 0
Note On [9] (44, 49) | Time: 48
Note Off [9] (44, 64) | Time: 48
Note On [9] (36, 80) | Time: 0
Note Off [9] (36, 64) | Time: 48
Note On [9] (44, 49) | Time: 0
Note Off [9] (44, 64) | Time: 48
Note On [9] (36, 80) | Time: 0
Note Off [9] (36, 64) | Time: 48
Note On [9] (44, 49) | Time: 0
Note Off [9] (44, 64) | Time: 48
Note On [9] (36, 80) | Time: 0
Note Off [9] (36, 64) | Time: 48
Note On [9] (40, 80) | Time: 0
Note On [9] (36, 80) | Time: 0
Note On [9] (44, 49) | Time: 0
Note Off [9] (44, 64) | Time: 48
Note Off [9] (40, 64) | Time: 0
Note Off [9] (36, 64) | Time: 0
Note On [9] (44, 49) | Time: 48
Note Off [9] (44, 64) | Time: 48
Note On [9] (40, 80) | Time: 0
Note Off [9] (40, 64) | Time: 48
Note On [9] (44, 49) | Time: 0
Note On [9] (36, 80) | Time: 0
Note Off [9] (36, 64) | Time: 48
Note Off [9] (44, 64) | Time: 0
Note On [9] (44, 49) | Time: 48
Note Off [9] (44, 64) | Time: 48
Note On [9] (40, 80) | Time: 48
Note On [9] (44, 49) | Time: 0
Note Off [9] (44, 64) | Time: 48
Note Off [9] (40, 64) | Time: 0
Note On [9] (44, 49) | Time: 48
Note Off [9] (44, 64) | Time: 48
Note On [9] (36, 80) | Time: 0
Note Off [9] (36, 64) | Time: 48
Note On [9] (44, 49) | Time: 0
Note Off [9] (44, 64) | Time: 48
Note On [9] (36, 80) | Time: 0
Note Off [9] (36, 64) | Time: 48
Note On [9] (44, 49) | Time: 0
Note Off [9] (44, 64) | Time: 48
Note On [9] (36, 80) | Time: 0
Note Off [9] (36, 64) | Time: 48
Note On [9] (40, 80) | Time: 0
Note On [9] (36, 80) | Time: 0
Note On [9] (44, 49) | Time: 0
Note Off [9] (44, 64) | Time: 48
Note Off [9] (40, 64) | Time: 0
Note Off [9] (36, 64) | Time: 0
Note On [9] (44, 49) | Time: 48
Note Off [9] (44, 64) | Time: 48
Note On [9] (40, 80) | Time: 0
Note Off [9] (40, 64) | Time: 48
Note On [9] (36, 80) | Time: 0
Note On [9] (44, 49) | Time: 0
Note On [9] (55, 82) | Time: 0
Note Off [9] (55, 64) | Time: 48
Note Off [9] (44, 64) | Time: 0
Note Off [9] (36, 64) | Time: 0
Note On [9] (44, 49) | Time: 48
Note Off [9] (44, 64) | Time: 48
Note On [9] (40, 80) | Time: 48
Note On [9] (44, 49) | Time: 0
Note Off [9] (44, 64) | Time: 48
Note Off [9] (40, 64) | Time: 0
Note On [9] (44, 49) | Time: 48
Note Off [9] (44, 64) | Time: 48
Note On [9] (36, 80) | Time: 0
Note Off [9] (36, 64) | Time: 48
Note On [9] (44, 49) | Time: 0
Note Off [9] (44, 64) | Time: 48
Note On [9] (36, 80) | Time: 0
Note Off [9] (36, 64) | Time: 48
Note On [9] (44, 49) | Time: 0
Note Off [9] (44, 64) | Time: 48
Note On [9] (36, 80) | Time: 0
Note Off [9] (36, 64) | Time: 48
Note On [9] (40, 80) | Time: 0
Note On [9] (36, 80) | Time: 0
Note On [9] (44, 49) | Time: 0
Note Off [9] (44, 64) | Time: 48
Note Off [9] (40, 64) | Time: 0
Note Off [9] (36, 64) | Time: 0
Note On [9] (44, 49) | Time: 48
Note Off [9] (44, 64) | Time: 48
Note On [9] (40, 80) | Time: 0
Note Off [9] (40, 64) | Time: 48
Note On [9] (36, 80) | Time: 0
Note On [9] (44, 49) | Time: 0
Note Off [9] (44, 64) | Time: 48
Note Off [9] (36, 64) | Time: 0
Note On [9] (44, 49) | Time: 48
Note Off [9] (44, 64) | Time: 48
Note On [9] (40, 80) | Time: 48
Note On [9] (44, 49) | Time: 0
Note Off [9] (44, 64) | Time: 48
Note Off [9] (40, 64) | Time: 0
Note On [9] (44, 49) | Time: 48
Note Off [9] (44, 64) | Time: 48
Note On [9] (36, 80) | Time: 0
Note Off [9] (36, 64) | Time: 48
Note On [9] (44, 49) | Time: 0
Note Off [9] (44, 64) | Time: 48
Note On [9] (36, 80) | Time: 0
Note Off [9] (36, 64) | Time: 48
Note On [9] (44, 49) | Time: 0
Note Off [9] (44, 64) | Time: 48
Note On [9] (36, 80) | Time: 0
Note Off [9] (36, 64) | Time: 48
Note On [9] (40, 80) | Time: 0
Note On [9] (36, 80) | Time: 0
Note On [9] (44, 49) | Time: 0
Note Off [9] (44, 64) | Time: 48
Note Off [9] (40, 64) | Time: 0
Note Off [9] (36, 64) | Time: 0
Note On [9] (44, 49) | Time: 48
Note Off [9] (44, 64) | Time: 48
Note On [9] (40, 80) | Time: 0
Note Off [9] (40, 64) | Time: 48
Note On [9] (44, 49) | Time: 0
Note On [9] (36, 80) | Time: 0
Note Off [9] (36, 64) | Time: 48
Note Off [9] (44, 64) | Time: 0
Note On [9] (44, 49) | Time: 48
Note Off [9] (44, 64) | Time: 48
Note On [9] (44, 49) | Time: 48
Note On [9] (40, 80) | Time: 0
Note Off [9] (40, 64) | Time: 48
Note Off [9] (44, 64) | Time: 0
Note On [9] (44, 49) | Time: 48
Note Off [9] (44, 64) | Time: 48
Note On [9] (36, 80) | Time: 0
Note Off [9] (36, 64) | Time: 48
Note On [9] (44, 49) | Time: 0
Note Off [9] (44, 64) | Time: 48
Note On [9] (36, 80) | Time: 0
Note Off [9] (36, 64) | Time: 48
Note On [9] (44, 49) | Time: 0
Note Off [9] (44, 64) | Time: 48
Note On [9] (36, 80) | Time: 0
Note Off [9] (36, 64) | Time: 48
Note On [9] (40, 80) | Time: 0
Note On [9] (36, 80) | Time: 0
Note On [9] (44, 49) | Time: 0
Note Off [9] (44, 64) | Time: 48
Note Off [9] (40, 64) | Time: 0
Note Off [9] (36, 64) | Time: 0
Note On [9] (44, 49) | Time: 48
Note Off [9] (44, 64) | Time: 48
Note On [9] (40, 80) | Time: 0
Note Off [9] (40, 64) | Time: 48
Note On [9] (36, 80) | Time: 0
Note On [9] (44, 49) | Time: 0
Note Off [9] (44, 64) | Time: 48
Note Off [9] (36, 64) | Time: 0
Note On [9] (44, 49) | Time: 48
Note Off [9] (44, 64) | Time: 48
Note On [9] (40, 80) | Time: 48
Note On [9] (44, 49) | Time: 0
Note Off [9] (44, 64) | Time: 48
Note Off [9] (40, 64) | Time: 0
Note On [9] (44, 49) | Time: 48
Note Off [9] (44, 64) | Time: 48
Note On [9] (36, 80) | Time: 0
Note Off [9] (36, 64) | Time: 48
Note On [9] (44, 49) | Time: 0
Note Off [9] (44, 64) | Time: 48
Note On [9] (36, 80) | Time: 0
Note Off [9] (36, 64) | Time: 48
Note On [9] (44, 49) | Time: 0
Note Off [9] (44, 64) | Time: 48
Note On [9] (36, 80) | Time: 0
Note Off [9] (36, 64) | Time: 48
Note On [9] (40, 80) | Time: 0
Note On [9] (36, 80) | Time: 0
Note On [9] (44, 49) | Time: 0
Note Off [9] (44, 64) | Time: 48
Note Off [9] (40, 64) | Time: 0
Note Off [9] (36, 64) | Time: 0
Note On [9] (44, 49) | Time: 48
Note Off [9] (44, 64) | Time: 48
Note On [9] (40, 80) | Time: 0
Note Off [9] (40, 64) | Time: 48
Note On [9] (36, 80) | Time: 0
Note On [9] (44, 49) | Time: 0
Note Off [9] (44, 64) | Time: 48
Note Off [9] (36, 64) | Time: 0
Note On [9] (44, 49) | Time: 48
Note Off [9] (44, 64) | Time: 48
Note On [9] (40, 80) | Time: 48
Note On [9] (44, 49) | Time: 0
Note Off [9] (44, 64) | Time: 48
Note Off [9] (40, 64) | Time: 0
Note On [9] (44, 49) | Time: 48
Note Off [9] (44, 64) | Time: 48
Note On [9] (36, 80) | Time: 0
Note Off [9] (36, 64) | Time: 48
Note On [9] (44, 49) | Time: 0
Note Off [9] (44, 64) | Time: 48
Note On [9] (36, 80) | Time: 0
Note Off [9] (36, 64) | Time: 48
Note On [9] (44, 49) | Time: 0
Note Off [9] (44, 64) | Time: 48
Note On [9] (36, 80) | Time: 0
Note Off [9] (36, 64) | Time: 48
Note On [9] (40, 80) | Time: 0
Note On [9] (36, 80) | Time: 0
Note On [9] (44, 49) | Time: 0
Note Off [9] (44, 64) | Time: 48
Note Off [9] (40, 64) | Time: 0
Note Off [9] (36, 64) | Time: 0
Note On [9] (44, 49) | Time: 48
Note Off [9] (44, 64) | Time: 48
Note On [9] (40, 80) | Time: 0
Note Off [9] (40, 64) | Time: 48
Note On [9] (36, 80) | Time: 0
Note On [9] (44, 49) | Time: 0
Note Off [9] (44, 64) | Time: 48
Note Off [9] (36, 64) | Time: 0
Note On [9] (44, 49) | Time: 48
Note Off [9] (44, 64) | Time: 48
Note On [9] (40, 80) | Time: 48
Note On [9] (44, 49) | Time: 0
Note Off [9] (44, 64) | Time: 48
Note Off [9] (40, 64) | Time: 0
Note On [9] (44, 49) | Time: 48
Note Off [9] (44, 64) | Time: 48
Note On [9] (36, 80) | Time: 0
Note Off [9] (36, 64) | Time: 48
Note On [9] (44, 49) | Time: 0
Note Off [9] (44, 64) | Time: 48
Note On [9] (36, 80) | Time: 0
Note Off [9] (36, 64) | Time: 48
Note On [9] (44, 49) | Time: 0
Note Off [9] (44, 64) | Time: 48
Note On [9] (36, 80) | Time: 0
Note Off [9] (36, 64) | Time: 48
Note On [9] (40, 80) | Time: 0
Note On [9] (36, 80) | Time: 0
Note On [9] (44, 49) | Time: 0
Note Off [9] (44, 64) | Time: 48
Note Off [9] (40, 64) | Time: 0
Note Off [9] (36, 64) | Time: 0
Note On [9] (44, 49) | Time: 48
Note Off [9] (44, 64) | Time: 48
Note On [9] (40, 80) | Time: 0
Note Off [9] (40, 64) | Time: 48
Note On [9] (57, 82) | Time: 1200
Note Off [9] (57, 64) | Time: 48
Note On [9] (49, 81) | Time: 48
Note Off [9] (49, 64) | Time: 48
Note On [9] (57, 82) | Time: 48
Note Off [9] (57, 64) | Time: 96
Note On [9] (57, 82) | Time: 48
Note On [9] (46, 49) | Time: 0
Note On [9] (36, 82) | Time: 0
Note Off [9] (36, 64) | Time: 48
Note Off [9] (46, 64) | Time: 0
Note Off [9] (57, 64) | Time: 0
Note On [9] (40, 82) | Time: 48
Note On [9] (46, 49) | Time: 0
Note Off [9] (46, 64) | Time: 48
Note Off [9] (40, 64) | Time: 0
Note On [9] (46, 49) | Time: 48
Note On [9] (36, 82) | Time: 0
Note Off [9] (36, 64) | Time: 48
Note Off [9] (46, 64) | Time: 0
Note On [9] (40, 81) | Time: 48
Note On [9] (46, 49) | Time: 0
Note Off [9] (40, 64) | Time: 48
Note Off [9] (46, 64) | Time: 0
Note On [9] (36, 81) | Time: 0
Note Off [9] (36, 64) | Time: 48
Note On [9] (46, 49) | Time: 0
Note Off [9] (46, 64) | Time: 48
Note On [9] (36, 81) | Time: 0
Note Off [9] (36, 64) | Time: 48
Note On [9] (40, 81) | Time: 0
Note On [9] (46, 49) | Time: 0
Note Off [9] (46, 64) | Time: 48
Note Off [9] (40, 64) | Time: 0
Note On [9] (36, 80) | Time: 0
Note Off [9] (36, 64) | Time: 48
Note On [9] (46, 49) | Time: 0
Note On [9] (36, 80) | Time: 0
Note Off [9] (36, 64) | Time: 48
Note Off [9] (46, 64) | Time: 0
Note On [9] (40, 80) | Time: 48
Note On [9] (36, 80) | Time: 0
Note On [9] (46, 49) | Time: 0
Note Off [9] (46, 64) | Time: 48
Note Off [9] (36, 64) | Time: 0
Note Off [9] (40, 64) | Time: 0
Note On [9] (46, 49) | Time: 48
Note On [9] (36, 82) | Time: 0
Note Off [9] (36, 64) | Time: 48
Note Off [9] (46, 64) | Time: 0
Note On [9] (40, 82) | Time: 48
Note On [9] (46, 49) | Time: 0
Note Off [9] (46, 64) | Time: 48
Note Off [9] (40, 64) | Time: 0
Note On [9] (46, 49) | Time: 48
Note On [9] (36, 82) | Time: 0
Note Off [9] (36, 64) | Time: 48
Note Off [9] (46, 64) | Time: 0
Note On [9] (46, 49) | Time: 48
Note On [9] (40, 81) | Time: 0
Note Off [9] (46, 64) | Time: 48
Note Off [9] (40, 64) | Time: 0
Note On [9] (36, 81) | Time: 0
Note Off [9] (36, 64) | Time: 48
Note On [9] (46, 49) | Time: 0
Note Off [9] (46, 64) | Time: 48
Note On [9] (36, 81) | Time: 0
Note Off [9] (36, 64) | Time: 48
Note On [9] (46, 49) | Time: 0
Note On [9] (40, 81) | Time: 0
Note Off [9] (40, 64) | Time: 48
Note Off [9] (46, 64) | Time: 0
Note On [9] (36, 80) | Time: 0
Note Off [9] (36, 64) | Time: 48
Note On [9] (46, 49) | Time: 0
Note On [9] (36, 80) | Time: 0
Note Off [9] (36, 64) | Time: 48
Note Off [9] (46, 64) | Time: 0
Note On [9] (46, 49) | Time: 48
Note On [9] (36, 80) | Time: 0
Note On [9] (40, 80) | Time: 0
Note Off [9] (40, 64) | Time: 48
Note Off [9] (36, 64) | Time: 0
Note Off [9] (46, 64) | Time: 0
Note On [9] (46, 49) | Time: 48
Note On [9] (36, 82) | Time: 0
Note Off [9] (36, 64) | Time: 48
Note Off [9] (46, 64) | Time: 0
Note On [9] (40, 82) | Time: 48
Note On [9] (46, 49) | Time: 0
Note Off [9] (46, 64) | Time: 48
Note Off [9] (40, 64) | Time: 0
Note On [9] (46, 49) | Time: 48
Note On [9] (36, 82) | Time: 0
Note Off [9] (36, 64) | Time: 48
Note Off [9] (46, 64) | Time: 0
Note On [9] (40, 81) | Time: 48
Note On [9] (46, 49) | Time: 0
Note Off [9] (40, 64) | Time: 48
Note Off [9] (46, 64) | Time: 0
Note On [9] (36, 81) | Time: 0
Note Off [9] (36, 64) | Time: 48
Note On [9] (46, 49) | Time: 0
Note Off [9] (46, 64) | Time: 48
Note On [9] (36, 81) | Time: 0
Note Off [9] (36, 64) | Time: 48
Note On [9] (40, 81) | Time: 0
Note On [9] (46, 49) | Time: 0
Note Off [9] (46, 64) | Time: 48
Note Off [9] (40, 64) | Time: 0
Note On [9] (36, 80) | Time: 0
Note Off [9] (36, 64) | Time: 48
Note On [9] (46, 49) | Time: 0
Note On [9] (36, 80) | Time: 0
Note Off [9] (36, 64) | Time: 48
Note Off [9] (46, 64) | Time: 0
Note On [9] (40, 80) | Time: 48
Note On [9] (36, 80) | Time: 0
Note On [9] (46, 49) | Time: 0
Note Off [9] (46, 64) | Time: 48
Note Off [9] (36, 64) | Time: 0
Note Off [9] (40, 64) | Time: 0
Note On [9] (46, 49) | Time: 48
Note On [9] (36, 82) | Time: 0
Note Off [9] (36, 64) | Time: 48
Note Off [9] (46, 64) | Time: 0
Note On [9] (40, 82) | Time: 48
Note On [9] (46, 49) | Time: 0
Note Off [9] (46, 64) | Time: 48
Note Off [9] (40, 64) | Time: 0
Note On [9] (46, 49) | Time: 48
Note On [9] (36, 82) | Time: 0
Note Off [9] (36, 64) | Time: 48
Note Off [9] (46, 64) | Time: 0
Note On [9] (40, 81) | Time: 0
Note Off [9] (40, 64) | Time: 48
Note On [9] (46, 49) | Time: 0
Note Off [9] (46, 64) | Time: 48
Note On [9] (36, 81) | Time: 0
Note On [9] (40, 81) | Time: 0
Note Off [9] (40, 64) | Time: 48
Note Off [9] (36, 64) | Time: 0
Note On [9] (46, 49) | Time: 0
Note Off [9] (46, 64) | Time: 48
Note On [9] (57, 82) | Time: 0
Note On [9] (36, 81) | Time: 0
Note Off [9] (36, 64) | Time: 48
Note Off [9] (57, 64) | Time: 0
Note On [9] (46, 49) | Time: 0
Note On [9] (40, 81) | Time: 0
Note Off [9] (40, 64) | Time: 48
Note Off [9] (46, 64) | Time: 0
Note On [9] (49, 81) | Time: 0
Note On [9] (36, 80) | Time: 0
Note Off [9] (36, 64) | Time: 48
Note Off [9] (49, 64) | Time: 0
Note On [9] (46, 49) | Time: 0
Note On [9] (36, 80) | Time: 0
Note On [9] (40, 81) | Time: 0
Note Off [9] (40, 64) | Time: 48
Note Off [9] (36, 64) | Time: 0
Note Off [9] (46, 64) | Time: 0
Note On [9] (57, 82) | Time: 0
Note On [9] (46, 49) | Time: 48
Note On [9] (36, 80) | Time: 0
Note On [9] (40, 80) | Time: 0
Note Off [9] (57, 64) | Time: 48
Note Off [9] (40, 64) | Time: 0
Note Off [9] (36, 64) | Time: 0
Note Off [9] (46, 64) | Time: 0
Note On [9] (57, 82) | Time: 48
Note On [9] (46, 49) | Time: 0
Note On [9] (36, 82) | Time: 0
Note On [9] (57, 82) | Time: 0
Note Off [9] (57, 64) | Time: 48
Note Off [9] (36, 64) | Time: 0
Note Off [9] (46, 64) | Time: 0
Note Off [9] (57, 64) | Time: 0
Note On [9] (40, 82) | Time: 48
Note On [9] (46, 49) | Time: 0
Note Off [9] (46, 64) | Time: 48
Note Off [9] (40, 64) | Time: 0
Note On [9] (46, 49) | Time: 48
Note On [9] (36, 82) | Time: 0
Note Off [9] (36, 64) | Time: 48
Note Off [9] (46, 64) | Time: 0
Note On [9] (40, 81) | Time: 48
Note On [9] (46, 49) | Time: 0
Note Off [9] (40, 64) | Time: 48
Note Off [9] (46, 64) | Time: 0
Note On [9] (36, 81) | Time: 0
Note Off [9] (36, 64) | Time: 48
Note On [9] (46, 49) | Time: 0
Note Off [9] (46, 64) | Time: 48
Note On [9] (36, 81) | Time: 0
Note Off [9] (36, 64) | Time: 48
Note On [9] (40, 81) | Time: 0
Note On [9] (46, 49) | Time: 0
Note Off [9] (46, 64) | Time: 48
Note Off [9] (40, 64) | Time: 0
Note On [9] (36, 80) | Time: 0
Note Off [9] (36, 64) | Time: 48
Note On [9] (46, 49) | Time: 0
Note On [9] (36, 80) | Time: 0
Note Off [9] (36, 64) | Time: 48
Note Off [9] (46, 64) | Time: 0
Note On [9] (40, 80) | Time: 48
Note On [9] (36, 80) | Time: 0
Note On [9] (46, 49) | Time: 0
Note Off [9] (46, 64) | Time: 48
Note Off [9] (36, 64) | Time: 0
Note Off [9] (40, 64) | Time: 0
Note On [9] (46, 49) | Time: 48
Note On [9] (36, 82) | Time: 0
Note Off [9] (36, 64) | Time: 48
Note Off [9] (46, 64) | Time: 0
Note On [9] (40, 82) | Time: 48
Note On [9] (46, 49) | Time: 0
Note Off [9] (46, 64) | Time: 48
Note Off [9] (40, 64) | Time: 0
Note On [9] (46, 49) | Time: 48
Note On [9] (36, 82) | Time: 0
Note Off [9] (36, 64) | Time: 48
Note Off [9] (46, 64) | Time: 0
Note On [9] (46, 49) | Time: 48
Note On [9] (40, 81) | Time: 0
Note Off [9] (46, 64) | Time: 48
Note Off [9] (40, 64) | Time: 0
Note On [9] (36, 81) | Time: 0
Note Off [9] (36, 64) | Time: 48
Note On [9] (46, 49) | Time: 0
Note Off [9] (46, 64) | Time: 48
Note On [9] (36, 81) | Time: 0
Note Off [9] (36, 64) | Time: 48
Note On [9] (46, 49) | Time: 0
Note On [9] (40, 81) | Time: 0
Note Off [9] (40, 64) | Time: 48
Note Off [9] (46, 64) | Time: 0
Note On [9] (36, 80) | Time: 0
Note Off [9] (36, 64) | Time: 48
Note On [9] (46, 49) | Time: 0
Note On [9] (36, 80) | Time: 0
Note Off [9] (36, 64) | Time: 48
Note Off [9] (46, 64) | Time: 0
Note On [9] (46, 49) | Time: 48
Note On [9] (36, 80) | Time: 0
Note On [9] (40, 80) | Time: 0
Note Off [9] (40, 64) | Time: 48
Note Off [9] (36, 64) | Time: 0
Note Off [9] (46, 64) | Time: 0
Note On [9] (46, 49) | Time: 48
Note On [9] (36, 82) | Time: 0
Note Off [9] (36, 64) | Time: 48
Note Off [9] (46, 64) | Time: 0
Note On [9] (40, 82) | Time: 48
Note On [9] (46, 49) | Time: 0
Note Off [9] (46, 64) | Time: 48
Note Off [9] (40, 64) | Time: 0
Note On [9] (46, 49) | Time: 48
Note On [9] (36, 82) | Time: 0
Note Off [9] (36, 64) | Time: 48
Note Off [9] (46, 64) | Time: 0
Note On [9] (40, 81) | Time: 48
Note On [9] (46, 49) | Time: 0
Note Off [9] (40, 64) | Time: 48
Note Off [9] (46, 64) | Time: 0
Note On [9] (36, 81) | Time: 0
Note Off [9] (36, 64) | Time: 48
Note On [9] (46, 49) | Time: 0
Note Off [9] (46, 64) | Time: 48
Note On [9] (36, 81) | Time: 0
Note Off [9] (36, 64) | Time: 48
Note On [9] (40, 81) | Time: 0
Note On [9] (46, 49) | Time: 0
Note Off [9] (46, 64) | Time: 48
Note Off [9] (40, 64) | Time: 0
Note On [9] (36, 80) | Time: 0
Note Off [9] (36, 64) | Time: 48
Note On [9] (46, 49) | Time: 0
Note On [9] (36, 80) | Time: 0
Note Off [9] (36, 64) | Time: 48
Note Off [9] (46, 64) | Time: 0
Note On [9] (40, 80) | Time: 48
Note On [9] (36, 80) | Time: 0
Note On [9] (46, 49) | Time: 0
Note Off [9] (46, 64) | Time: 48
Note Off [9] (36, 64) | Time: 0
Note Off [9] (40, 64) | Time: 0
Note On [9] (46, 49) | Time: 48
Note On [9] (36, 82) | Time: 0
Note Off [9] (36, 64) | Time: 48
Note Off [9] (46, 64) | Time: 0
Note On [9] (40, 82) | Time: 48
Note On [9] (46, 49) | Time: 0
Note Off [9] (46, 64) | Time: 48
Note Off [9] (40, 64) | Time: 0
Note On [9] (46, 49) | Time: 48
Note On [9] (36, 82) | Time: 0
Note Off [9] (36, 64) | Time: 48
Note Off [9] (46, 64) | Time: 0
Note On [9] (40, 81) | Time: 0
Note Off [9] (40, 64) | Time: 48
Note On [9] (46, 49) | Time: 0
Note Off [9] (46, 64) | Time: 48
Note On [9] (36, 81) | Time: 0
Note On [9] (40, 81) | Time: 0
Note Off [9] (40, 64) | Time: 48
Note Off [9] (36, 64) | Time: 0
Note On [9] (46, 49) | Time: 0
Note Off [9] (46, 64) | Time: 48
Note On [9] (57, 82) | Time: 0
Note On [9] (36, 81) | Time: 0
Note Off [9] (36, 64) | Time: 48
Note Off [9] (57, 64) | Time: 0
Note On [9] (46, 49) | Time: 0
Note On [9] (40, 81) | Time: 0
Note Off [9] (40, 64) | Time: 48
Note Off [9] (46, 64) | Time: 0
Note On [9] (49, 81) | Time: 0
Note On [9] (36, 80) | Time: 0
Note On [9] (40, 81) | Time: 0
Note Off [9] (40, 64) | Time: 48
Note Off [9] (36, 64) | Time: 0
Note Off [9] (49, 64) | Time: 0
Note On [9] (46, 49) | Time: 0
Note On [9] (36, 80) | Time: 0
Note Off [9] (36, 64) | Time: 48
Note Off [9] (46, 64) | Time: 0
Note On [9] (57, 82) | Time: 0
Note On [9] (40, 80) | Time: 0
Note Off [9] (40, 64) | Time: 48
Note On [9] (46, 49) | Time: 0
Note On [9] (36, 80) | Time: 0
Note On [9] (40, 80) | Time: 0
Note Off [9] (40, 64) | Time: 48
Note Off [9] (57, 64) | Time: 0
Note Off [9] (36, 64) | Time: 0
Note Off [9] (46, 64) | Time: 0
Note On [9] (57, 82) | Time: 48
Note On [9] (46, 49) | Time: 0
Note On [9] (36, 82) | Time: 0
Note Off [9] (36, 64) | Time: 48
Note Off [9] (46, 64) | Time: 0
Note Off [9] (57, 64) | Time: 0
Note On [9] (46, 49) | Time: 48
Note On [9] (40, 82) | Time: 0
Note Off [9] (40, 64) | Time: 48
Note Off [9] (46, 64) | Time: 0
Note On [9] (46, 49) | Time: 48
Note On [9] (36, 82) | Time: 0
Note Off [9] (36, 64) | Time: 48
Note Off [9] (46, 64) | Time: 0
Note On [9] (46, 49) | Time: 48
Note On [9] (40, 81) | Time: 0
Note Off [9] (46, 64) | Time: 48
Note Off [9] (40, 64) | Time: 0
Note On [9] (36, 81) | Time: 0
Note Off [9] (36, 64) | Time: 48
Note On [9] (46, 49) | Time: 0
Note Off [9] (46, 64) | Time: 48
Note On [9] (36, 81) | Time: 0
Note Off [9] (36, 64) | Time: 48
Note On [9] (46, 49) | Time: 0
Note On [9] (40, 81) | Time: 0
Note Off [9] (40, 64) | Time: 48
Note Off [9] (46, 64) | Time: 0
Note On [9] (36, 80) | Time: 0
Note Off [9] (36, 64) | Time: 48
Note On [9] (46, 49) | Time: 0
Note On [9] (36, 80) | Time: 0
Note Off [9] (36, 64) | Time: 48
Note Off [9] (46, 64) | Time: 0
Note On [9] (46, 49) | Time: 48
Note On [9] (36, 80) | Time: 0
Note On [9] (40, 80) | Time: 0
Note Off [9] (40, 64) | Time: 48
Note Off [9] (36, 64) | Time: 0
Note Off [9] (46, 64) | Time: 0
Note On [9] (46, 49) | Time: 48
Note On [9] (36, 82) | Time: 0
Note Off [9] (36, 64) | Time: 48
Note Off [9] (46, 64) | Time: 0
Note On [9] (46, 49) | Time: 48
Note On [9] (40, 82) | Time: 0
Note Off [9] (40, 64) | Time: 48
Note Off [9] (46, 64) | Time: 0
Note On [9] (46, 49) | Time: 48
Note On [9] (36, 82) | Time: 0
Note Off [9] (36, 64) | Time: 48
Note Off [9] (46, 64) | Time: 0
Note On [9] (40, 81) | Time: 48
Note On [9] (46, 49) | Time: 0
Note Off [9] (40, 64) | Time: 48
Note Off [9] (46, 64) | Time: 0
Note On [9] (36, 81) | Time: 0
Note Off [9] (36, 64) | Time: 48
Note On [9] (46, 49) | Time: 0
Note Off [9] (46, 64) | Time: 48
Note On [9] (36, 81) | Time: 0
Note Off [9] (36, 64) | Time: 48
Note On [9] (40, 81) | Time: 0
Note On [9] (46, 49) | Time: 0
Note Off [9] (46, 64) | Time: 48
Note Off [9] (40, 64) | Time: 0
Note On [9] (36, 80) | Time: 0
Note Off [9] (36, 64) | Time: 48
Note On [9] (46, 49) | Time: 0
Note On [9] (36, 80) | Time: 0
Note Off [9] (36, 64) | Time: 48
Note Off [9] (46, 64) | Time: 0
Note On [9] (40, 80) | Time: 48
Note On [9] (36, 80) | Time: 0
Note On [9] (46, 49) | Time: 0
Note Off [9] (46, 64) | Time: 48
Note Off [9] (36, 64) | Time: 0
Note Off [9] (40, 64) | Time: 0
Note On [9] (46, 49) | Time: 48
Note On [9] (36, 82) | Time: 0
Note Off [9] (36, 64) | Time: 48
Note Off [9] (46, 64) | Time: 0
Note On [9] (46, 49) | Time: 48
Note On [9] (40, 82) | Time: 0
Note Off [9] (40, 64) | Time: 48
Note Off [9] (46, 64) | Time: 0
Note On [9] (46, 49) | Time: 48
Note On [9] (36, 82) | Time: 0
Note Off [9] (36, 64) | Time: 48
Note Off [9] (46, 64) | Time: 0
Note On [9] (46, 49) | Time: 48
Note On [9] (40, 81) | Time: 0
Note Off [9] (46, 64) | Time: 48
Note Off [9] (40, 64) | Time: 0
Note On [9] (36, 81) | Time: 0
Note Off [9] (36, 64) | Time: 48
Note On [9] (46, 49) | Time: 0
Note Off [9] (46, 64) | Time: 48
Note On [9] (36, 81) | Time: 0
Note Off [9] (36, 64) | Time: 48
Note On [9] (46, 49) | Time: 0
Note On [9] (40, 81) | Time: 0
Note Off [9] (40, 64) | Time: 48
Note Off [9] (46, 64) | Time: 0
Note On [9] (36, 80) | Time: 0
Note Off [9] (36, 64) | Time: 48
Note On [9] (46, 49) | Time: 0
Note On [9] (36, 80) | Time: 0
Note Off [9] (36, 64) | Time: 48
Note Off [9] (46, 64) | Time: 0
Note On [9] (46, 49) | Time: 48
Note On [9] (36, 80) | Time: 0
Note On [9] (40, 80) | Time: 0
Note Off [9] (40, 64) | Time: 48
Note Off [9] (36, 64) | Time: 0
Note Off [9] (46, 64) | Time: 0
Note On [9] (46, 49) | Time: 48
Note On [9] (36, 82) | Time: 0
Note Off [9] (36, 64) | Time: 48
Note Off [9] (46, 64) | Time: 0
Note On [9] (46, 49) | Time: 48
Note On [9] (40, 82) | Time: 0
Note Off [9] (40, 64) | Time: 48
Note Off [9] (46, 64) | Time: 0
Note On [9] (46, 49) | Time: 48
Note On [9] (36, 82) | Time: 0
Note Off [9] (36, 64) | Time: 48
Note Off [9] (46, 64) | Time: 0
Note On [9] (40, 81) | Time: 0
Note Off [9] (40, 64) | Time: 48
Note On [9] (46, 49) | Time: 0
Note Off [9] (46, 64) | Time: 48
Note On [9] (36, 81) | Time: 0
Note On [9] (40, 81) | Time: 0
Note Off [9] (40, 64) | Time: 48
Note Off [9] (36, 64) | Time: 0
Note On [9] (46, 49) | Time: 0
Note Off [9] (46, 64) | Time: 48
Note On [9] (36, 81) | Time: 0
Note On [9] (57, 82) | Time: 0
Note Off [9] (57, 64) | Time: 48
Note Off [9] (36, 64) | Time: 0
Note On [9] (40, 81) | Time: 0
Note On [9] (46, 49) | Time: 0
Note Off [9] (46, 64) | Time: 48
Note Off [9] (40, 64) | Time: 0
Note On [9] (49, 81) | Time: 0
Note On [9] (36, 80) | Time: 0
Note Off [9] (36, 64) | Time: 48
Note Off [9] (49, 64) | Time: 0
Note On [9] (46, 49) | Time: 0
Note On [9] (36, 80) | Time: 0
Note On [9] (40, 81) | Time: 0
Note Off [9] (40, 64) | Time: 48
Note Off [9] (36, 64) | Time: 0
Note Off [9] (46, 64) | Time: 0
Note On [9] (57, 82) | Time: 0
Note On [9] (40, 80) | Time: 48
Note On [9] (36, 80) | Time: 0
Note On [9] (46, 49) | Time: 0
Note Off [9] (57, 64) | Time: 48
Note Off [9] (46, 64) | Time: 0
Note Off [9] (36, 64) | Time: 0
Note Off [9] (40, 64) | Time: 0
Note On [9] (57, 82) | Time: 48
Note On [9] (46, 49) | Time: 0
Note On [9] (36, 82) | Time: 0
Note On [9] (57, 82) | Time: 0
Note Off [9] (57, 64) | Time: 48
Note Off [9] (36, 64) | Time: 0
Note Off [9] (46, 64) | Time: 0
Note Off [9] (57, 64) | Time: 0
Note On [9] (46, 49) | Time: 48
Note On [9] (40, 82) | Time: 0
Note Off [9] (40, 64) | Time: 48
Note Off [9] (46, 64) | Time: 0
Note On [9] (46, 49) | Time: 48
Note On [9] (36, 82) | Time: 0
Note Off [9] (36, 64) | Time: 48
Note Off [9] (46, 64) | Time: 0
Note On [9] (46, 49) | Time: 48
Note On [9] (40, 81) | Time: 0
Note Off [9] (46, 64) | Time: 48
Note Off [9] (40, 64) | Time: 0
Note On [9] (36, 81) | Time: 0
Note Off [9] (36, 64) | Time: 48
Note On [9] (46, 49) | Time: 0
Note Off [9] (46, 64) | Time: 48
Note On [9] (36, 81) | Time: 0
Note Off [9] (36, 64) | Time: 48
Note On [9] (46, 49) | Time: 0
Note On [9] (40, 81) | Time: 0
Note Off [9] (40, 64) | Time: 48
Note Off [9] (46, 64) | Time: 0
Note On [9] (36, 80) | Time: 0
Note Off [9] (36, 64) | Time: 48
Note On [9] (46, 49) | Time: 0
Note On [9] (36, 80) | Time: 0
Note Off [9] (36, 64) | Time: 48
Note Off [9] (46, 64) | Time: 0
Note On [9] (46, 49) | Time: 48
Note On [9] (36, 80) | Time: 0
Note On [9] (40, 80) | Time: 0
Note Off [9] (40, 64) | Time: 48
Note Off [9] (36, 64) | Time: 0
Note Off [9] (46, 64) | Time: 0
Note On [9] (46, 49) | Time: 48
Note On [9] (36, 82) | Time: 0
Note Off [9] (36, 64) | Time: 48
Note Off [9] (46, 64) | Time: 0
Note On [9] (46, 49) | Time: 48
Note On [9] (40, 82) | Time: 0
Note Off [9] (40, 64) | Time: 48
Note Off [9] (46, 64) | Time: 0
Note On [9] (46, 49) | Time: 48
Note On [9] (36, 82) | Time: 0
Note Off [9] (36, 64) | Time: 48
Note Off [9] (46, 64) | Time: 0
Note On [9] (40, 81) | Time: 48
Note On [9] (46, 49) | Time: 0
Note Off [9] (40, 64) | Time: 48
Note Off [9] (46, 64) | Time: 0
Note On [9] (36, 81) | Time: 0
Note Off [9] (36, 64) | Time: 48
Note On [9] (46, 49) | Time: 0
Note Off [9] (46, 64) | Time: 48
Note On [9] (36, 81) | Time: 0
Note Off [9] (36, 64) | Time: 48
Note On [9] (40, 81) | Time: 0
Note On [9] (46, 49) | Time: 0
Note Off [9] (46, 64) | Time: 48
Note Off [9] (40, 64) | Time: 0
Note On [9] (36, 80) | Time: 0
Note Off [9] (36, 64) | Time: 48
Note On [9] (46, 49) | Time: 0
Note On [9] (36, 80) | Time: 0
Note Off [9] (36, 64) | Time: 48
Note Off [9] (46, 64) | Time: 0
Note On [9] (40, 80) | Time: 48
Note On [9] (36, 80) | Time: 0
Note On [9] (46, 49) | Time: 0
Note Off [9] (46, 64) | Time: 48
Note Off [9] (36, 64) | Time: 0
Note Off [9] (40, 64) | Time: 0
Note On [9] (46, 49) | Time: 48
Note On [9] (36, 82) | Time: 0
Note Off [9] (36, 64) | Time: 48
Note Off [9] (46, 64) | Time: 0
Note On [9] (46, 49) | Time: 48
Note On [9] (40, 82) | Time: 0
Note Off [9] (40, 64) | Time: 48
Note Off [9] (46, 64) | Time: 0
Note On [9] (46, 49) | Time: 48
Note On [9] (36, 82) | Time: 0
Note Off [9] (36, 64) | Time: 48
Note Off [9] (46, 64) | Time: 0
Note On [9] (46, 49) | Time: 48
Note On [9] (40, 81) | Time: 0
Note Off [9] (46, 64) | Time: 48
Note Off [9] (40, 64) | Time: 0
Note On [9] (36, 81) | Time: 0
Note Off [9] (36, 64) | Time: 48
Note On [9] (46, 49) | Time: 0
Note Off [9] (46, 64) | Time: 48
Note On [9] (36, 81) | Time: 0
Note Off [9] (36, 64) | Time: 48
Note On [9] (46, 49) | Time: 0
Note On [9] (40, 81) | Time: 0
Note Off [9] (40, 64) | Time: 48
Note Off [9] (46, 64) | Time: 0
Note On [9] (36, 80) | Time: 0
Note Off [9] (36, 64) | Time: 48
Note On [9] (46, 49) | Time: 0
Note On [9] (36, 80) | Time: 0
Note Off [9] (36, 64) | Time: 48
Note Off [9] (46, 64) | Time: 0
Note On [9] (46, 49) | Time: 48
Note On [9] (36, 80) | Time: 0
Note On [9] (40, 80) | Time: 0
Note Off [9] (40, 64) | Time: 48
Note Off [9] (36, 64) | Time: 0
Note Off [9] (46, 64) | Time: 0
Note On [9] (46, 49) | Time: 48
Note On [9] (36, 82) | Time: 0
Note Off [9] (36, 64) | Time: 48
Note Off [9] (46, 64) | Time: 0
Note On [9] (46, 49) | Time: 48
Note On [9] (40, 82) | Time: 0
Note Off [9] (40, 64) | Time: 48
Note Off [9] (46, 64) | Time: 0
Note On [9] (46, 49) | Time: 48
Note On [9] (36, 82) | Time: 0
Note Off [9] (36, 64) | Time: 48
Note Off [9] (46, 64) | Time: 0
Note On [9] (40, 81) | Time: 0
Note Off [9] (40, 64) | Time: 48
Note On [9] (46, 49) | Time: 0
Note Off [9] (46, 64) | Time: 48
Note On [9] (36, 81) | Time: 0
Note On [9] (40, 81) | Time: 0
Note Off [9] (40, 64) | Time: 48
Note Off [9] (36, 64) | Time: 0
Note On [9] (46, 49) | Time: 0
Note Off [9] (46, 64) | Time: 48
Note On [9] (36, 81) | Time: 0
Note On [9] (57, 82) | Time: 0
Note Off [9] (57, 64) | Time: 48
Note Off [9] (36, 64) | Time: 0
Note On [9] (40, 81) | Time: 0
Note On [9] (46, 49) | Time: 0
Note Off [9] (46, 64) | Time: 48
Note Off [9] (40, 64) | Time: 0
Note On [9] (49, 81) | Time: 0
Note On [9] (36, 80) | Time: 0
Note On [9] (40, 81) | Time: 0
Note Off [9] (40, 64) | Time: 48
Note Off [9] (36, 64) | Time: 0
Note Off [9] (49, 64) | Time: 0
Note On [9] (46, 49) | Time: 0
Note On [9] (36, 80) | Time: 0
Note Off [9] (36, 64) | Time: 48
Note Off [9] (46, 64) | Time: 0
Note On [9] (40, 80) | Time: 0
Note On [9] (57, 82) | Time: 0
Note Off [9] (40, 64) | Time: 48
Note On [9] (40, 80) | Time: 0
Note On [9] (36, 80) | Time: 0
Note On [9] (46, 49) | Time: 0
Note Off [9] (57, 64) | Time: 48
Note Off [9] (46, 64) | Time: 0
Note Off [9] (36, 64) | Time: 0
Note Off [9] (40, 64) | Time: 0
------------------------------------------------
Chunk size: 1599
Events: 
Control Change [0] (10, 51) | Time: 0
Control Change [0] (7, 100) | Time: 0
Pitch Bend [0] (8192) | Time: 0
Control Change [0] (101, 0) | Time: 0
Control Change [0] (100, 0) | Time: 0
Control Change [0] (6, 12) | Time: 0
Program Change [0] (0) | Time: 0
Control Change [0] (91, 48) | Time: 0
Control Change [0] (64, 0) | Time: 0
Note On [0] (62, 81) | Time: 0
Note Off [0] (62, 0) | Time: 48
Note On [0] (62, 82) | Time: 0
Note Off [0] (62, 0) | Time: 48
Note On [0] (74, 82) | Time: 0
Note Off [0] (74, 0) | Time: 96
Note On [0] (69, 82) | Time: 0
Note Off [0] (69, 0) | Time: 144
Note On [0] (68, 82) | Time: 0
Note Off [0] (68, 0) | Time: 96
Note On [0] (67, 82) | Time: 0
Note Off [0] (67, 0) | Time: 96
Note On [0] (65, 82) | Time: 0
Note Off [0] (65, 0) | Time: 96
Note On [0] (62, 82) | Time: 0
Note Off [0] (62, 0) | Time: 48
Note On [0] (65, 82) | Time: 0
Note Off [0] (65, 0) | Time: 48
Note On [0] (67, 82) | Time: 0
Note Off [0] (67, 0) | Time: 48
Note On [0] (60, 82) | Time: 0
Note Off [0] (60, 0) | Time: 48
Note On [0] (60, 82) | Time: 0
Note Off [0] (60, 0) | Time: 48
Note On [0] (74, 82) | Time: 0
Note Off [0] (74, 0) | Time: 96
Note On [0] (69, 82) | Time: 0
Note Off [0] (69, 0) | Time: 144
Note On [0] (68, 82) | Time: 0
Note Off [0] (68, 0) | Time: 96
Note On [0] (67, 82) | Time: 0
Note Off [0] (67, 0) | Time: 96
Note On [0] (65, 82) | Time: 0
Note Off [0] (65, 0) | Time: 96
Note On [0] (62, 82) | Time: 0
Note Off [0] (62, 0) | Time: 48
Note On [0] (65, 82) | Time: 0
Note Off [0] (65, 0) | Time: 48
Note On [0] (67, 82) | Time: 0
Note Off [0] (67, 0) | Time: 48
Note On [0] (59, 82) | Time: 0
Note Off [0] (59, 0) | Time: 48
Note On [0] (59, 82) | Time: 0
Note Off [0] (59, 0) | Time: 48
Note On [0] (74, 82) | Time: 0
Note Off [0] (74, 0) | Time: 96
Note On [0] (69, 82) | Time: 0
Note Off [0] (69, 0) | Time: 144
Note On [0] (68, 82) | Time: 0
Note Off [0] (68, 0) | Time: 96
Note On [0] (67, 82) | Time: 0
Note Off [0] (67, 0) | Time: 96
Note On [0] (65, 82) | Time: 0
Note Off [0] (65, 0) | Time: 96
Note On [0] (62, 82) | Time: 0
Note Off [0] (62, 0) | Time: 48
Note On [0] (65, 82) | Time: 0
Note Off [0] (65, 0) | Time: 48
Note On [0] (67, 82) | Time: 0
Note Off [0] (67, 0) | Time: 48
Note On [0] (58, 82) | Time: 0
Note Off [0] (58, 0) | Time: 48
Note On [0] (58, 82) | Time: 0
Note Off [0] (58, 0) | Time: 48
Note On [0] (74, 82) | Time: 0
Note Off [0] (74, 0) | Time: 96
Note On [0] (69, 82) | Time: 0
Note Off [0] (69, 0) | Time: 144
Note On [0] (68, 82) | Time: 0
Note Off [0] (68, 0) | Time: 96
Note On [0] (67, 82) | Time: 0
Note Off [0] (67, 0) | Time: 96
Note On [0] (65, 82) | Time: 0
Note Off [0] (65, 0) | Time: 96
Note On [0] (62, 82) | Time: 0
Note Off [0] (62, 0) | Time: 48
Note On [0] (65, 82) | Time: 0
Note Off [0] (65, 0) | Time: 48
Note On [0] (67, 82) | Time: 0
Note Off [0] (67, 0) | Time: 48
Note On [0] (62, 82) | Time: 0
Note Off [0] (62, 0) | Time: 48
Note On [0] (62, 82) | Time: 0
Note Off [0] (62, 0) | Time: 48
Note On [0] (74, 82) | Time: 0
Note Off [0] (74, 0) | Time: 96
Note On [0] (69, 82) | Time: 0
Note Off [0] (69, 0) | Time: 144
Note On [0] (68, 82) | Time: 0
Note Off [0] (68, 0) | Time: 96
Note On [0] (67, 82) | Time: 0
Note Off [0] (67, 0) | Time: 96
Note On [0] (65, 82) | Time: 0
Note Off [0] (65, 0) | Time: 96
Note On [0] (62, 82) | Time: 0
Note Off [0] (62, 0) | Time: 48
Note On [0] (65, 82) | Time: 0
Note Off [0] (65, 0) | Time: 48
Note On [0] (67, 82) | Time: 0
Note Off [0] (67, 0) | Time: 48
Note On [0] (60, 82) | Time: 0
Note Off [0] (60, 0) | Time: 48
Note On [0] (60, 82) | Time: 0
Note Off [0] (60, 0) | Time: 48
Note On [0] (74, 82) | Time: 0
Note Off [0] (74, 0) | Time: 96
Note On [0] (69, 82) | Time: 0
Note Off [0] (69, 0) | Time: 144
Note On [0] (68, 82) | Time: 0
Note Off [0] (68, 0) | Time: 96
Note On [0] (67, 82) | Time: 0
Note Off [0] (67, 0) | Time: 96
Note On [0] (65, 82) | Time: 0
Note Off [0] (65, 0) | Time: 96
Note On [0] (62, 82) | Time: 0
Note Off [0] (62, 0) | Time: 48
Note On [0] (65, 82) | Time: 0
Note Off [0] (65, 0) | Time: 48
Note On [0] (67, 82) | Time: 0
Note Off [0] (67, 0) | Time: 48
Note On [0] (59, 82) | Time: 0
Note Off [0] (59, 0) | Time: 48
Note On [0] (59, 82) | Time: 0
Note Off [0] (59, 0) | Time: 48
Note On [0] (74, 82) | Time: 0
Note Off [0] (74, 0) | Time: 96
Note On [0] (69, 82) | Time: 0
Note Off [0] (69, 0) | Time: 144
Note On [0] (68, 82) | Time: 0
Note Off [0] (68, 0) | Time: 96
Note On [0] (67, 82) | Time: 0
Note Off [0] (67, 0) | Time: 96
Note On [0] (65, 82) | Time: 0
Note Off [0] (65, 0) | Time: 96
Note On [0] (62, 82) | Time: 0
Note Off [0] (62, 0) | Time: 48
Note On [0] (65, 82) | Time: 0
Note Off [0] (65, 0) | Time: 48
Note On [0] (67, 82) | Time: 0
Note Off [0] (67, 0) | Time: 48
Note On [0] (58, 82) | Time: 0
Note Off [0] (58, 0) | Time: 48
Note On [0] (58, 82) | Time: 0
Note Off [0] (58, 0) | Time: 48
Note On [0] (74, 82) | Time: 0
Note Off [0] (74, 0) | Time: 96
Note On [0] (69, 82) | Time: 0
Note Off [0] (69, 0) | Time: 144
Note On [0] (68, 82) | Time: 0
Note Off [0] (68, 0) | Time: 96
Note On [0] (67, 82) | Time: 0
Note Off [0] (67, 0) | Time: 96
Note On [0] (65, 82) | Time: 0
Note Off [0] (65, 0) | Time: 96
Note On [0] (62, 82) | Time: 0
Note Off [0] (62, 0) | Time: 48
Note On [0] (65, 82) | Time: 0
Note Off [0] (65, 0) | Time: 48
Note On [0] (67, 82) | Time: 0
Note Off [0] (67, 0) | Time: 48
Note On [0] (74, 92) | Time: 0
Note Off [0] (74, 0) | Time: 48
Note On [0] (74, 92) | Time: 0
Note Off [0] (74, 0) | Time: 48
Note On [0] (86, 92) | Time: 0
Note Off [0] (86, 0) | Time: 96
Note On [0] (81, 92) | Time: 0
Note Off [0] (81, 0) | Time: 144
Note On [0] (80, 92) | Time: 0
Note Off [0] (80, 0) | Time: 96
Note On [0] (79, 92) | Time: 0
Note Off [0] (79, 0) | Time: 96
Note On [0] (77, 92) | Time: 0
Note Off [0] (77, 0) | Time: 96
Note On [0] (74, 92) | Time: 0
Note Off [0] (74, 0) | Time: 48
Note On [0] (77, 92) | Time: 0
Note Off [0] (77, 0) | Time: 48
Note On [0] (79, 92) | Time: 0
Note Off [0] (79, 0) | Time: 48
Note On [0] (72, 92) | Time: 0
Note Off [0] (72, 0) | Time: 48
Note On [0] (72, 92) | Time: 0
Note Off [0] (72, 0) | Time: 48
Note On [0] (86, 92) | Time: 0
Note Off [0] (86, 0) | Time: 96
Note On [0] (81, 92) | Time: 0
Note Off [0] (81, 0) | Time: 144
Note On [0] (80, 92) | Time: 0
Note Off [0] (80, 0) | Time: 96
Note On [0] (79, 92) | Time: 0
Note Off [0] (79, 0) | Time: 96
Note On [0] (77, 92) | Time: 0
Note Off [0] (77, 0) | Time: 96
Note On [0] (74, 92) | Time: 0
Note Off [0] (74, 0) | Time: 48
Note On [0] (77, 92) | Time: 0
Note Off [0] (77, 0) | Time: 48
Note On [0] (79, 92) | Time: 0
Note Off [0] (79, 0) | Time: 48
Note On [0] (71, 92) | Time: 0
Note Off [0] (71, 0) | Time: 48
Note On [0] (71, 92) | Time: 0
Note Off [0] (71, 0) | Time: 48
Note On [0] (86, 92) | Time: 0
Note Off [0] (86, 0) | Time: 96
Note On [0] (81, 92) | Time: 0
Note Off [0] (81, 0) | Time: 144
Note On [0] (80, 92) | Time: 0
Note Off [0] (80, 0) | Time: 96
Note On [0] (79, 92) | Time: 0
Note Off [0] (79, 0) | Time: 96
Note On [0] (77, 92) | Time: 0
Note Off [0] (77, 0) | Time: 96
Note On [0] (74, 92) | Time: 0
Note Off [0] (74, 0) | Time: 48
Note On [0] (77, 92) | Time: 0
Note Off [0] (77, 0) | Time: 48
Note On [0] (79, 92) | Time: 0
Note Off [0] (79, 0) | Time: 48
Note On [0] (70, 92) | Time: 0
Note Off [0] (70, 0) | Time: 48
Note On [0] (70, 92) | Time: 0
Note Off [0] (70, 0) | Time: 48
Note On [0] (86, 92) | Time: 0
Note Off [0] (86, 0) | Time: 96
Note On [0] (81, 92) | Time: 0
Note Off [0] (81, 0) | Time: 144
Note On [0] (80, 92) | Time: 0
Note Off [0] (80, 0) | Time: 96
Note On [0] (79, 92) | Time: 0
Note Off [0] (79, 0) | Time: 96
Note On [0] (77, 92) | Time: 0
Note Off [0] (77, 0) | Time: 96
Note On [0] (74, 92) | Time: 0
Note Off [0] (74, 0) | Time: 48
Note On [0] (77, 92) | Time: 0
Note Off [0] (77, 0) | Time: 48
Note On [0] (79, 92) | Time: 0
Note Off [0] (79, 0) | Time: 48
Note On [0] (74, 92) | Time: 0
Note Off [0] (74, 0) | Time: 48
Note On [0] (74, 92) | Time: 0
Note Off [0] (74, 0) | Time: 48
Note On [0] (86, 92) | Time: 0
Note Off [0] (86, 0) | Time: 96
Note On [0] (81, 92) | Time: 0
Note Off [0] (81, 0) | Time: 144
Note On [0] (80, 92) | Time: 0
Note Off [0] (80, 0) | Time: 96
Note On [0] (79, 92) | Time: 0
Note Off [0] (79, 0) | Time: 96
Note On [0] (77, 92) | Time: 0
Note Off [0] (77, 0) | Time: 96
Note On [0] (74, 92) | Time: 0
Note Off [0] (74, 0) | Time: 48
Note On [0] (77, 92) | Time: 0
Note Off [0] (77, 0) | Time: 48
Note On [0] (79, 92) | Time: 0
Note Off [0] (79, 0) | Time: 48
Note On [0] (72, 92) | Time: 0
Note Off [0] (72, 0) | Time: 48
Note On [0] (72, 92) | Time: 0
Note Off [0] (72, 0) | Time: 48
Note On [0] (86, 92) | Time: 0
Note Off [0] (86, 0) | Time: 96
Note On [0] (81, 92) | Time: 0
Note Off [0] (81, 0) | Time: 144
Note On [0] (80, 92) | Time: 0
Note Off [0] (80, 0) | Time: 96
Note On [0] (79, 92) | Time: 0
Note Off [0] (79, 0) | Time: 96
Note On [0] (77, 92) | Time: 0
Note Off [0] (77, 0) | Time: 96
Note On [0] (74, 92) | Time: 0
Note Off [0] (74, 0) | Time: 48
Note On [0] (77, 92) | Time: 0
Note Off [0] (77, 0) | Time: 48
Note On [0] (79, 92) | Time: 0
Note Off [0] (79, 0) | Time: 48
Note On [0] (71, 92) | Time: 0
Note Off [0] (71, 0) | Time: 48
Note On [0] (71, 92) | Time: 0
Note Off [0] (71, 0) | Time: 48
Note On [0] (86, 92) | Time: 0
Note Off [0] (86, 0) | Time: 96
Note On [0] (81, 92) | Time: 0
Note Off [0] (81, 0) | Time: 144
Note On [0] (80, 92) | Time: 0
Note Off [0] (80, 0) | Time: 96
Note On [0] (79, 92) | Time: 0
Note Off [0] (79, 0) | Time: 96
Note On [0] (77, 92) | Time: 0
Note Off [0] (77, 0) | Time: 96
Note On [0] (74, 92) | Time: 0
Note Off [0] (74, 0) | Time: 48
Note On [0] (77, 92) | Time: 0
Note Off [0] (77, 0) | Time: 48
Note On [0] (79, 92) | Time: 0
Note Off [0] (79, 0) | Time: 48
Note On [0] (70, 92) | Time: 0
Note Off [0] (70, 0) | Time: 48
Note On [0] (70, 92) | Time: 0
Note Off [0] (70, 0) | Time: 48
Note On [0] (86, 92) | Time: 0
Note Off [0] (86, 0) | Time: 96
Note On [0] (81, 92) | Time: 0
Note Off [0] (81, 0) | Time: 144
Note On [0] (80, 92) | Time: 0
Note Off [0] (80, 0) | Time: 96
Note On [0] (79, 92) | Time: 0
Note Off [0] (79, 0) | Time: 96
Note On [0] (77, 92) | Time: 0
Note Off [0] (77, 0) | Time: 96
Note On [0] (74, 92) | Time: 0
Note Off [0] (74, 0) | Time: 48
Note On [0] (77, 92) | Time: 0
Note Off [0] (77, 0) | Time: 48
Note On [0] (79, 92) | Time: 0
Note Off [0] (79, 0) | Time: 48
Note On [0] (77, 92) | Time: 0
Note Off [0] (77, 0) | Time: 48
Note On [0] (77, 92) | Time: 48
Note Off [0] (77, 0) | Time: 48
Note On [0] (77, 92) | Time: 0
Note Off [0] (77, 0) | Time: 96
Note On [0] (77, 92) | Time: 0
Note Off [0] (77, 0) | Time: 96
Note On [0] (77, 92) | Time: 0
Note Off [0] (77, 0) | Time: 96
Note On [0] (74, 92) | Time: 0
Note Off [0] (74, 0) | Time: 96
Note On [0] (74, 92) | Time: 0
Note Off [0] (74, 0) | Time: 240
Note On [0] (77, 92) | Time: 0
Note Off [0] (77, 0) | Time: 96
Note On [0] (77, 92) | Time: 0
Note Off [0] (77, 0) | Time: 48
Note On [0] (77, 92) | Time: 0
Note Off [0] (77, 0) | Time: 96
Note On [0] (79, 92) | Time: 0
Note Off [0] (79, 0) | Time: 96
Note On [0] (80, 92) | Time: 0
Note Off [0] (80, 0) | Time: 96
Note On [0] (79, 92) | Time: 0
Note Off [0] (79, 0) | Time: 48
Note On [0] (77, 92) | Time: 0
Note Off [0] (77, 0) | Time: 48
Note On [0] (74, 92) | Time: 0
Note Off [0] (74, 0) | Time: 48
Note On [0] (77, 92) | Time: 0
Note Off [0] (77, 0) | Time: 48
Note On [0] (79, 92) | Time: 0
Note Off [0] (79, 0) | Time: 144
Note On [0] (77, 92) | Time: 0
Note Off [0] (77, 0) | Time: 48
Note On [0] (77, 92) | Time: 48
Note Off [0] (77, 0) | Time: 48
Note On [0] (77, 92) | Time: 0
Note Off [0] (77, 0) | Time: 96
Note On [0] (79, 92) | Time: 0
Note Off [0] (79, 0) | Time: 96
Note On [0] (80, 92) | Time: 0
Note Off [0] (80, 0) | Time: 96
Note On [0] (81, 92) | Time: 0
Note Off [0] (81, 0) | Time: 96
Note On [0] (84, 92) | Time: 0
Note Off [0] (84, 0) | Time: 48
Note On [0] (81, 92) | Time: 48
Note Off [0] (81, 0) | Time: 144
Note On [0] (86, 92) | Time: 0
Note Off [0] (86, 0) | Time: 96
Note On [0] (86, 92) | Time: 0
Note Off [0] (86, 0) | Time: 96
Note On [0] (86, 92) | Time: 0
Note Off [0] (86, 0) | Time: 48
Note On [0] (81, 92) | Time: 0
Note Off [0] (81, 0) | Time: 48
Note On [0] (86, 92) | Time: 0
Note Off [0] (86, 0) | Time: 48
Note On [0] (84, 92) | Time: 0
Note Off [0] (84, 0) | Time: 432
Note On [0] (77, 92) | Time: 0
Note On [0] (81, 92) | Time: 0
Note Off [0] (77, 0) | Time: 48
Note Off [0] (81, 0) | Time: 0
Note On [0] (81, 92) | Time: 48
Note On [0] (77, 92) | Time: 0
Note Off [0] (81, 0) | Time: 48
Note Off [0] (77, 0) | Time: 0
Note On [0] (77, 92) | Time: 0
Note On [0] (81, 92) | Time: 0
Note Off [0] (81, 0) | Time: 96
Note Off [0] (77, 0) | Time: 0
Note On [0] (77, 92) | Time: 0
Note On [0] (81, 92) | Time: 0
Note Off [0] (81, 0) | Time: 96
Note Off [0] (77, 0) | Time: 0
Note On [0] (77, 92) | Time: 0
Note On [0] (81, 92) | Time: 0
Note Off [0] (81, 0) | Time: 96
Note Off [0] (77, 0) | Time: 0
Note On [0] (74, 92) | Time: 0
Note On [0] (79, 92) | Time: 0
Note Off [0] (79, 0) | Time: 96
Note Off [0] (74, 0) | Time: 0
Note On [0] (74, 92) | Time: 0
Note On [0] (79, 92) | Time: 0
Note Off [0] (79, 0) | Time: 240
Note Off [0] (74, 0) | Time: 0
Note On [0] (81, 92) | Time: 0
Note On [0] (77, 92) | Time: 0
Note Off [0] (77, 0) | Time: 48
Note Off [0] (81, 0) | Time: 0
Note On [0] (81, 92) | Time: 48
Note On [0] (77, 92) | Time: 0
Note Off [0] (81, 0) | Time: 48
Note Off [0] (77, 0) | Time: 0
Note On [0] (77, 92) | Time: 0
Note On [0] (81, 92) | Time: 0
Note Off [0] (81, 0) | Time: 96
Note Off [0] (77, 0) | Time: 0
Note On [0] (77, 92) | Time: 0
Note On [0] (81, 92) | Time: 0
Note Off [0] (81, 0) | Time: 96
Note Off [0] (77, 0) | Time: 0
Note On [0] (74, 92) | Time: 0
Note On [0] (79, 92) | Time: 0
Note Off [0] (79, 0) | Time: 96
Note Off [0] (74, 0) | Time: 0
Note On [0] (77, 92) | Time: 0
Note On [0] (81, 92) | Time: 0
Note Off [0] (81, 0) | Time: 96
Note Off [0] (77, 0) | Time: 0
Note On [0] (81, 92) | Time: 0
Note On [0] (86, 92) | Time: 0
Note Off [0] (86, 0) | Time: 96
Note Off [0] (81, 0) | Time: 0
Note On [0] (77, 92) | Time: 0
Note On [0] (81, 92) | Time: 0
Note Off [0] (81, 0) | Time: 48
Note Off [0] (77, 0) | Time: 0
Note On [0] (79, 92) | Time: 0
Note On [0] (74, 92) | Time: 0
Note Off [0] (79, 0) | Time: 96
Note Off [0] (74, 0) | Time: 0
Note On [0] (86, 92) | Time: 0
Note On [0] (77, 92) | Time: 0
Note Off [0] (77, 0) | Time: 96
Note Off [0] (86, 0) | Time: 0
Note On [0] (81, 92) | Time: 0
Note On [0] (77, 92) | Time: 0
Note Off [0] (77, 0) | Time: 96
Note Off [0] (81, 0) | Time: 0
Note On [0] (79, 92) | Time: 0
Note On [0] (74, 92) | Time: 0
Note Off [0] (74, 0) | Time: 96
Note Off [0] (79, 0) | Time: 0
Note On [0] (77, 92) | Time: 0
Note On [0] (74, 92) | Time: 0
Note Off [0] (74, 0) | Time: 96
Note Off [0] (77, 0) | Time: 0
Note On [0] (77, 92) | Time: 0
Note On [0] (84, 92) | Time: 0
Note Off [0] (84, 0) | Time: 96
Note Off [0] (77, 0) | Time: 0
Note On [0] (77, 92) | Time: 0
Note On [0] (79, 92) | Time: 0
Note Off [0] (77, 0) | Time: 96
Note Off [0] (79, 0) | Time: 0
Note On [0] (74, 92) | Time: 0
Note On [0] (77, 92) | Time: 0
Note Off [0] (74, 0) | Time: 96
Note Off [0] (77, 0) | Time: 0
Note On [0] (74, 92) | Time: 0
Note On [0] (76, 92) | Time: 0
Note Off [0] (76, 0) | Time: 96
Note Off [0] (74, 0) | Time: 0
Note On [0] (70, 92) | Time: 0
Note Off [0] (70, 0) | Time: 96
Note On [0] (72, 92) | Time: 0
Note Off [0] (72, 0) | Time: 48
Note On [0] (74, 92) | Time: 0
Note Off [0] (74, 0) | Time: 48
Note On [0] (77, 92) | Time: 48
Note On [0] (70, 92) | Time: 0
Note Off [0] (70, 0) | Time: 96
Note Off [0] (77, 0) | Time: 0
Note On [0] (72, 92) | Time: 0
Note On [0] (76, 92) | Time: 0
Note On [0] (84, 92) | Time: 0
Note Off [0] (84, 0) | Time: 432
Note Off [0] (76, 0) | Time: 0
Note Off [0] (72, 0) | Time: 0
Note On [0] (77, 92) | Time: 384
Note Off [0] (77, 0) | Time: 48
Note On [0] (74, 92) | Time: 0
Note Off [0] (74, 0) | Time: 48
Note On [0] (77, 92) | Time: 0
Note Off [0] (77, 0) | Time: 48
Note On [0] (79, 92) | Time: 0
Note Off [0] (79, 0) | Time: 48
Note On [0] (80, 92) | Time: 0
Note Off [0] (80, 0) | Time: 48
Note On [0] (79, 92) | Time: 0
Note Off [0] (79, 0) | Time: 48
Note On [0] (77, 92) | Time: 0
Note Off [0] (77, 0) | Time: 48
Note On [0] (74, 92) | Time: 0
Note Off [0] (74, 0) | Time: 48
Note On [0] (80, 92) | Time: 0
Note Off [0] (80, 0) | Time: 24
Note On [0] (79, 92) | Time: 0
Note Off [0] (79, 0) | Time: 24
Note On [0] (77, 92) | Time: 0
Note Off [0] (77, 0) | Time: 24
Note On [0] (74, 92) | Time: 0
Note Off [0] (74, 0) | Time: 24
Note On [0] (77, 92) | Time: 0
Note Off [0] (77, 0) | Time: 48
Note On [0] (79, 92) | Time: 48
Note On [0] (72, 92) | Time: 0
Note Off [0] (72, 0) | Time: 384
Note Off [0] (79, 0) | Time: 0
Note On [0] (80, 92) | Time: 48
Note Off [0] (80, 0) | Time: 96
Note On [0] (81, 92) | Time: 0
Note Off [0] (81, 0) | Time: 48
Note On [0] (84, 92) | Time: 0
Note Off [0] (84, 0) | Time: 48
Note On [0] (81, 92) | Time: 48
Note Off [0] (81, 0) | Time: 48
Note On [0] (80, 92) | Time: 0
Note Off [0] (80, 0) | Time: 48
Note On [0] (79, 92) | Time: 0
Note Off [0] (79, 0) | Time: 48
Note On [0] (77, 92) | Time: 0
Note Off [0] (77, 0) | Time: 48
Note On [0] (74, 92) | Time: 0
Note Off [0] (74, 0) | Time: 48
Note On [0] (76, 92) | Time: 0
Note Off [0] (76, 0) | Time: 48
Note On [0] (77, 92) | Time: 0
Note Off [0] (77, 0) | Time: 96
Note On [0] (79, 92) | Time: 0
Note Off [0] (79, 0) | Time: 96
Note On [0] (81, 92) | Time: 0
Note Off [0] (81, 0) | Time: 96
Note On [0] (84, 92) | Time: 0
Note Off [0] (84, 0) | Time: 96
Note On [0] (85, 92) | Time: 0
Note On [0] (73, 92) | Time: 0
Note Off [0] (85, 0) | Time: 96
Note Off [0] (73, 0) | Time: 0
Note On [0] (80, 92) | Time: 0
Note Off [0] (80, 0) | Time: 96
Note On [0] (80, 92) | Time: 0
Note Off [0] (80, 0) | Time: 48
Note On [0] (79, 92) | Time: 0
Note Off [0] (79, 0) | Time: 48
Note On [0] (77, 92) | Time: 0
Note Off [0] (77, 0) | Time: 48
Note On [0] (79, 92) | Time: 0
Note On [0] (75, 92) | Time: 0
Note Off [0] (75, 0) | Time: 432
Note Off [0] (79, 0) | Time: 0
Note On [0] (65, 92) | Time: 0
Note Off [0] (65, 0) | Time: 96
Note On [0] (67, 92) | Time: 0
Note Off [0] (67, 0) | Time: 96
Note On [0] (65, 92) | Time: 0
Note On [0] (69, 92) | Time: 0
Note Off [0] (69, 0) | Time: 96
Note Off [0] (65, 0) | Time: 0
Note On [0] (77, 92) | Time: 0
Note Off [0] (77, 0) | Time: 96
Note On [0] (72, 92) | Time: 0
Note On [0] (76, 92) | Time: 0
Note Off [0] (76, 0) | Time: 192
Note Off [0] (72, 0) | Time: 0
Note On [0] (69, 92) | Time: 0
Note On [0] (74, 92) | Time: 0
Note Off [0] (69, 0) | Time: 192
Note Off [0] (74, 0) | Time: 0
Note On [0] (76, 92) | Time: 0
Note On [0] (67, 92) | Time: 0
Note Off [0] (67, 0) | Time: 192
Note Off [0] (76, 0) | Time: 0
Note On [0] (69, 92) | Time: 0
Note On [0] (77, 92) | Time: 0
Note Off [0] (77, 0) | Time: 192
Note Off [0] (69, 0) | Time: 0
Note On [0] (72, 92) | Time: 0
Note On [0] (79, 92) | Time: 0
Note Off [0] (79, 0) | Time: 192
Note Off [0] (72, 0) | Time: 0
Note On [0] (69, 92) | Time: 0
Note On [0] (76, 92) | Time: 0
Note Off [0] (69, 0) | Time: 192
Note Off [0] (76, 0) | Time: 0
Note On [0] (81, 92) | Time: 0
Note On [0] (74, 92) | Time: 0
Note Off [0] (74, 0) | Time: 384
Note Off [0] (81, 0) | Time: 0
Note On [0] (81, 92) | Time: 0
Note Off [0] (81, 0) | Time: 48
Note On [0] (80, 92) | Time: 0
Note Off [0] (80, 0) | Time: 48
Note On [0] (79, 92) | Time: 0
Note Off [0] (79, 0) | Time: 48
Note On [0] (78, 92) | Time: 0
Note Off [0] (78, 0) | Time: 48
Note On [0] (77, 92) | Time: 0
Note Off [0] (77, 0) | Time: 48
Note On [0] (76, 92) | Time: 0
Note Off [0] (76, 0) | Time: 48
Note On [0] (75, 92) | Time: 0
Note Off [0] (75, 0) | Time: 48
Note On [0] (74, 92) | Time: 0
Note Off [0] (74, 0) | Time: 48
Note On [0] (73, 92) | Time: 0
Note On [0] (68, 92) | Time: 0
Note Off [0] (73, 0) | Time: 336
Note Off [0] (68, 0) | Time: 0
Note On [0] (70, 92) | Time: 0
Note On [0] (75, 92) | Time: 0
Note Off [0] (75, 0) | Time: 432
Note Off [0] (70, 0) | Time: 0
Note On [0] (77, 92) | Time: 384
Note Off [0] (77, 0) | Time: 48
Note On [0] (74, 92) | Time: 0
Note Off [0] (74, 0) | Time: 48
Note On [0] (77, 92) | Time: 0
Note Off [0] (77, 0) | Time: 48
Note On [0] (79, 92) | Time: 0
Note Off [0] (79, 0) | Time: 48
Note On [0] (80, 92) | Time: 0
Note Off [0] (80, 0) | Time: 48
Note On [0] (79, 92) | Time: 0
Note Off [0] (79, 0) | Time: 48
Note On [0] (77, 92) | Time: 0
Note Off [0] (77, 0) | Time: 48
Note On [0] (74, 92) | Time: 0
Note Off [0] (74, 0) | Time: 48
Note On [0] (80, 92) | Time: 0
Note Off [0] (80, 0) | Time: 24
Note On [0] (79, 92) | Time: 0
Note Off [0] (79, 0) | Time: 24
Note On [0] (77, 92) | Time: 0
Note Off [0] (77, 0) | Time: 24
Note On [0] (74, 92) | Time: 0
Note Off [0] (74, 0) | Time: 24
Note On [0] (77, 92) | Time: 0
Note Off [0] (77, 0) | Time: 48
Note On [0] (79, 92) | Time: 48
Note On [0] (72, 92) | Time: 0
Note Off [0] (79, 0) | Time: 384
Note Off [0] (72, 0) | Time: 0
Note On [0] (80, 92) | Time: 48
Note Off [0] (80, 0) | Time: 96
Note On [0] (81, 92) | Time: 0
Note Off [0] (81, 0) | Time: 48
Note On [0] (84, 92) | Time: 0
Note Off [0] (84, 0) | Time: 48
Note On [0] (81, 92) | Time: 48
Note Off [0] (81, 0) | Time: 48
Note On [0] (80, 92) | Time: 0
Note Off [0] (80, 0) | Time: 48
Note On [0] (79, 92) | Time: 0
Note Off [0] (79, 0) | Time: 48
Note On [0] (77, 92) | Time: 0
Note Off [0] (77, 0) | Time: 48
Note On [0] (74, 92) | Time: 0
Note Off [0] (74, 0) | Time: 48
Note On [0] (76, 92) | Time: 0
Note Off [0] (76, 0) | Time: 48
Note On [0] (77, 92) | Time: 0
Note Off [0] (77, 0) | Time: 96
Note On [0] (79, 92) | Time: 0
Note Off [0] (79, 0) | Time: 96
Note On [0] (81, 92) | Time: 0
Note Off [0] (81, 0) | Time: 96
Note On [0] (84, 92) | Time: 0
Note Off [0] (84, 0) | Time: 96
Note On [0] (85, 92) | Time: 0
Note On [0] (73, 92) | Time: 0
Note Off [0] (73, 0) | Time: 96
Note Off [0] (85, 0) | Time: 0
Note On [0] (80, 92) | Time: 0
Note Off [0] (80, 0) | Time: 96
Note On [0] (80, 92) | Time: 0
Note Off [0] (80, 0) | Time: 48
Note On [0] (79, 92) | Time: 0
Note Off [0] (79, 0) | Time: 48
Note On [0] (77, 92) | Time: 0
Note Off [0] (77, 0) | Time: 48
Note On [0] (79, 92) | Time: 0
Note On [0] (75, 92) | Time: 0
Note Off [0] (75, 0) | Time: 432
Note Off [0] (79, 0) | Time: 0
Note On [0] (65, 92) | Time: 0
Note Off [0] (65, 0) | Time: 96
Note On [0] (67, 92) | Time: 0
Note Off [0] (67, 0) | Time: 96
Note On [0] (65, 92) | Time: 0
Note On [0] (69, 92) | Time: 0
Note Off [0] (69, 0) | Time: 96
Note Off [0] (65, 0) | Time: 0
Note On [0] (77, 92) | Time: 0
Note Off [0] (77, 0) | Time: 96
Note On [0] (72, 92) | Time: 0
Note On [0] (76, 92) | Time: 0
Note Off [0] (76, 0) | Time: 192
Note Off [0] (72, 0) | Time: 0
Note On [0] (69, 92) | Time: 0
Note On [0] (74, 92) | Time: 0
Note Off [0] (69, 0) | Time: 192
Note Off [0] (74, 0) | Time: 0
Note On [0] (76, 92) | Time: 0
Note On [0] (67, 92) | Time: 0
Note Off [0] (67, 0) | Time: 192
Note Off [0] (76, 0) | Time: 0
Note On [0] (69, 92) | Time: 0
Note On [0] (77, 92) | Time: 0
Note Off [0] (77, 0) | Time: 192
Note Off [0] (69, 0) | Time: 0
Note On [0] (72, 92) | Time: 0
Note On [0] (79, 92) | Time: 0
Note Off [0] (79, 0) | Time: 192
Note Off [0] (72, 0) | Time: 0
Note On [0] (69, 92) | Time: 0
Note On [0] (76, 92) | Time: 0
Note Off [0] (69, 0) | Time: 192
Note Off [0] (76, 0) | Time: 0
Note On [0] (81, 92) | Time: 0
Note On [0] (74, 92) | Time: 0
Note Off [0] (74, 0) | Time: 384
Note Off [0] (81, 0) | Time: 0
Note On [0] (81, 92) | Time: 0
Note Off [0] (81, 0) | Time: 48
Note On [0] (80, 92) | Time: 0
Note Off [0] (80, 0) | Time: 48
Note On [0] (79, 92) | Time: 0
Note Off [0] (79, 0) | Time: 48
Note On [0] (78, 92) | Time: 0
Note Off [0] (78, 0) | Time: 48
Note On [0] (77, 92) | Time: 0
Note Off [0] (77, 0) | Time: 48
Note On [0] (76, 92) | Time: 0
Note Off [0] (76, 0) | Time: 48
Note On [0] (75, 92) | Time: 0
Note Off [0] (75, 0) | Time: 48
Note On [0] (74, 92) | Time: 0
Note Off [0] (74, 0) | Time: 48
Note On [0] (73, 92) | Time: 0
Note On [0] (68, 92) | Time: 0
Note Off [0] (68, 0) | Time: 336
Note Off [0] (73, 0) | Time: 0
Note On [0] (70, 92) | Time: 0
Note On [0] (75, 92) | Time: 0
Note Off [0] (70, 0) | Time: 432
Note Off [0] (75, 0) | Time: 0
Note On [0] (58, 104) | Time: 0
Note Off [0] (58, 0) | Time: 576
Note On [0] (65, 104) | Time: 0
Note Off [0] (65, 0) | Time: 192
Note On [0] (64, 104) | Time: 0
Note Off [0] (64, 0) | Time: 384
Note On [0] (62, 104) | Time: 0
Note Off [0] (62, 0) | Time: 384
Note On [0] (65, 104) | Time: 0
Note Off [0] (65, 0) | Time: 768
Note On [0] (58, 104) | Time: 768
Note Off [0] (58, 0) | Time: 576
Note On [0] (65, 104) | Time: 0
Note Off [0] (65, 0) | Time: 192
Note On [0] (64, 104) | Time: 0
Note Off [0] (64, 0) | Time: 384
Note On [0] (62, 104) | Time: 0
Note Off [0] (62, 0) | Time: 384
Note On [0] (62, 104) | Time: 0
Note Off [0] (62, 0) | Time: 768
Note On [0] (62, 104) | Time: 768
Note Off [0] (62, 0) | Time: 48
Note On [0] (62, 104) | Time: 0
Note Off [0] (62, 0) | Time: 48
Note On [0] (74, 104) | Time: 0
Note Off [0] (74, 0) | Time: 96
Note On [0] (69, 104) | Time: 0
Note Off [0] (69, 0) | Time: 144
Note On [0] (68, 104) | Time: 0
Note Off [0] (68, 0) | Time: 96
Note On [0] (67, 104) | Time: 0
Note Off [0] (67, 0) | Time: 96
Note On [0] (65, 104) | Time: 0
Note Off [0] (65, 0) | Time: 96
Note On [0] (62, 104) | Time: 0
Note Off [0] (62, 0) | Time: 48
Note On [0] (65, 104) | Time: 0
Note Off [0] (65, 0) | Time: 48
Note On [0] (67, 104) | Time: 0
Note Off [0] (67, 0) | Time: 48
Note On [0] (60, 104) | Time: 0
Note Off [0] (60, 0) | Time: 48
Note On [0] (60, 104) | Time: 0
Note Off [0] (60, 0) | Time: 48
Note On [0] (74, 104) | Time: 0
Note Off [0] (74, 0) | Time: 96
Note On [0] (69, 104) | Time: 0
Note Off [0] (69, 0) | Time: 144
Note On [0] (68, 104) | Time: 0
Note Off [0] (68, 0) | Time: 96
Note On [0] (67, 104) | Time: 0
Note Off [0] (67, 0) | Time: 96
Note On [0] (65, 104) | Time: 0
Note Off [0] (65, 0) | Time: 96
Note On [0] (62, 104) | Time: 0
Note Off [0] (62, 0) | Time: 48
Note On [0] (65, 104) | Time: 0
Note Off [0] (65, 0) | Time: 48
Note On [0] (67, 104) | Time: 0
Note Off [0] (67, 0) | Time: 48
Note On [0] (59, 104) | Time: 0
Note Off [0] (59, 0) | Time: 48
Note On [0] (59, 104) | Time: 0
Note Off [0] (59, 0) | Time: 48
Note On [0] (74, 104) | Time: 0
Note Off [0] (74, 0) | Time: 96
Note On [0] (69, 104) | Time: 0
Note Off [0] (69, 0) | Time: 144
Note On [0] (68, 104) | Time: 0
Note Off [0] (68, 0) | Time: 96
Note On [0] (67, 104) | Time: 0
Note Off [0] (67, 0) | Time: 96
Note On [0] (65, 104) | Time: 0
Note Off [0] (65, 0) | Time: 96
Note On [0] (62, 104) | Time: 0
Note Off [0] (62, 0) | Time: 48
Note On [0] (65, 104) | Time: 0
Note Off [0] (65, 0) | Time: 48
Note On [0] (67, 104) | Time: 0
Note Off [0] (67, 0) | Time: 48
Note On [0] (59, 104) | Time: 0
Note Off [0] (59, 0) | Time: 48
Note On [0] (59, 104) | Time: 0
Note Off [0] (59, 0) | Time: 48
Note On [0] (74, 104) | Time: 0
Note Off [0] (74, 0) | Time: 96
Note On [0] (69, 104) | Time: 0
Note Off [0] (69, 0) | Time: 144
Note On [0] (68, 104) | Time: 0
Note Off [0] (68, 0) | Time: 96
Note On [0] (67, 104) | Time: 0
Note Off [0] (67, 0) | Time: 96
Note On [0] (65, 104) | Time: 0
Note Off [0] (65, 0) | Time: 96
Note On [0] (62, 104) | Time: 0
Note Off [0] (62, 0) | Time: 48
Note On [0] (65, 104) | Time: 0
Note Off [0] (65, 0) | Time: 48
Note On [0] (67, 104) | Time: 0
Note Off [0] (67, 0) | Time: 48
Note On [0] (62, 104) | Time: 0
Note Off [0] (62, 0) | Time: 48
Note On [0] (62, 104) | Time: 0
Note Off [0] (62, 0) | Time: 48
Note On [0] (74, 104) | Time: 0
Note Off [0] (74, 0) | Time: 96
Note On [0] (69, 104) | Time: 0
Note Off [0] (69, 0) | Time: 144
Note On [0] (68, 104) | Time: 0
Note Off [0] (68, 0) | Time: 96
Note On [0] (67, 104) | Time: 0
Note Off [0] (67, 0) | Time: 96
Note On [0] (65, 104) | Time: 0
Note Off [0] (65, 0) | Time: 96
Note On [0] (62, 104) | Time: 0
Note Off [0] (62, 0) | Time: 48
Note On [0] (65, 104) | Time: 0
Note Off [0] (65, 0) | Time: 48
Note On [0] (67, 104) | Time: 0
Note Off [0] (67, 0) | Time: 48
Note On [0] (60, 104) | Time: 0
Note Off [0] (60, 0) | Time: 48
Note On [0] (60, 104) | Time: 0
Note Off [0] (60, 0) | Time: 48
Note On [0] (74, 104) | Time: 0
Note Off [0] (74, 0) | Time: 96
Note On [0] (69, 104) | Time: 0
Note Off [0] (69, 0) | Time: 144
Note On [0] (68, 104) | Time: 0
Note Off [0] (68, 0) | Time: 96
Note On [0] (67, 104) | Time: 0
Note Off [0] (67, 0) | Time: 96
Note On [0] (65, 104) | Time: 0
Note Off [0] (65, 0) | Time: 96
Note On [0] (62, 104) | Time: 0
Note Off [0] (62, 0) | Time: 48
Note On [0] (65, 104) | Time: 0
Note Off [0] (65, 0) | Time: 48
Note On [0] (67, 104) | Time: 0
Note Off [0] (67, 0) | Time: 48
Note On [0] (74, 104) | Time: 96
Note On [0] (77, 104) | Time: 0
Note Off [0] (74, 0) | Time: 72
Note Off [0] (77, 0) | Time: 24
Note On [0] (69, 104) | Time: 0
Note On [0] (76, 104) | Time: 0
Note Off [0] (76, 0) | Time: 48
Note Off [0] (69, 0) | Time: 0
Note On [0] (68, 104) | Time: 96
Note On [0] (72, 104) | Time: 0
Note Off [0] (68, 0) | Time: 96
Note Off [0] (72, 0) | Time: 0
Note On [0] (67, 104) | Time: 0
Note On [0] (76, 104) | Time: 0
Note Off [0] (76, 0) | Time: 48
Note Off [0] (67, 0) | Time: 0
Note On [0] (65, 104) | Time: 48
Note On [0] (74, 104) | Time: 0
Note Off [0] (65, 0) | Time: 96
Note Off [0] (74, 0) | Time: 0
Note On [0] (60, 104) | Time: 0
Note On [0] (69, 104) | Time: 0
Note Off [0] (69, 0) | Time: 48
Note Off [0] (60, 0) | Time: 0
Note On [0] (64, 104) | Time: 0
Note On [0] (72, 104) | Time: 0
Note Off [0] (72, 0) | Time: 48
Note Off [0] (64, 0) | Time: 0
Note On [0] (74, 104) | Time: 0
Note On [0] (65, 104) | Time: 0
Note Off [0] (65, 0) | Time: 48
Note Off [0] (74, 0) | Time: 0
Note On [0] (74, 104) | Time: 96
Note On [0] (77, 104) | Time: 0
Note Off [0] (74, 0) | Time: 72
Note Off [0] (77, 0) | Time: 24
Note On [0] (76, 104) | Time: 0
Note On [0] (69, 104) | Time: 0
Note Off [0] (69, 0) | Time: 48
Note Off [0] (76, 0) | Time: 0
Note On [0] (68, 104) | Time: 96
Note On [0] (72, 104) | Time: 0
Note Off [0] (68, 0) | Time: 96
Note Off [0] (72, 0) | Time: 0
Note On [0] (76, 104) | Time: 0
Note On [0] (67, 104) | Time: 0
Note Off [0] (67, 0) | Time: 48
Note Off [0] (76, 0) | Time: 0
Note On [0] (65, 104) | Time: 48
Note On [0] (74, 104) | Time: 0
Note Off [0] (65, 0) | Time: 96
Note Off [0] (74, 0) | Time: 0
Note On [0] (69, 104) | Time: 0
Note On [0] (60, 104) | Time: 0
Note Off [0] (60, 0) | Time: 48
Note Off [0] (69, 0) | Time: 0
Note On [0] (64, 104) | Time: 0
Note On [0] (72, 104) | Time: 0
Note Off [0] (72, 0) | Time: 48
Note Off [0] (64, 0) | Time: 0
Note On [0] (65, 104) | Time: 0
Note On [0] (74, 104) | Time: 0
Note Off [0] (74, 0) | Time: 48
Note Off [0] (65, 0) | Time: 0
Note On [0] (70, 85) | Time: 0
Note On [0] (65, 85) | Time: 0
Note Off [0] (70, 0) | Time: 96
Note Off [0] (65, 0) | Time: 0
Note On [0] (65, 87) | Time: 0
Note On [0] (70, 87) | Time: 0
Note Off [0] (70, 0) | Time: 96
Note Off [0] (65, 0) | Time: 0
Note On [0] (70, 87) | Time: 0
Note On [0] (65, 87) | Time: 0
Note Off [0] (65, 0) | Time: 48
Note Off [0] (70, 0) | Time: 0
Note On [0] (70, 87) | Time: 0
Note On [0] (65, 87) | Time: 0
Note Off [0] (65, 0) | Time: 96
Note Off [0] (70, 0) | Time: 0
Note On [0] (65, 87) | Time: 0
Note On [0] (70, 87) | Time: 0
Note Off [0] (70, 0) | Time: 96
Note Off [0] (65, 0) | Time: 0
Note On [0] (70, 87) | Time: 0
Note On [0] (65, 87) | Time: 0
Note Off [0] (65, 0) | Time: 96
Note Off [0] (70, 0) | Time: 0
Note On [0] (65, 87) | Time: 0
Note On [0] (70, 87) | Time: 0
Note Off [0] (70, 0) | Time: 96
Note Off [0] (65, 0) | Time: 0
Note On [0] (70, 87) | Time: 0
Note On [0] (65, 87) | Time: 0
Note Off [0] (65, 0) | Time: 48
Note Off [0] (70, 0) | Time: 0
Note On [0] (65, 87) | Time: 0
Note On [0] (70, 87) | Time: 0
Note Off [0] (65, 0) | Time: 96
Note Off [0] (70, 0) | Time: 0
Note On [0] (72, 87) | Time: 0
Note On [0] (67, 87) | Time: 0
Note Off [0] (67, 0) | Time: 96
Note Off [0] (72, 0) | Time: 0
Note On [0] (67, 87) | Time: 0
Note On [0] (72, 87) | Time: 0
Note Off [0] (72, 0) | Time: 96
Note Off [0] (67, 0) | Time: 0
Note On [0] (72, 87) | Time: 0
Note On [0] (67, 87) | Time: 0
Note Off [0] (67, 0) | Time: 48
Note Off [0] (72, 0) | Time: 0
Note On [0] (72, 87) | Time: 0
Note On [0] (67, 87) | Time: 0
Note Off [0] (67, 0) | Time: 96
Note Off [0] (72, 0) | Time: 0
Note On [0] (67, 87) | Time: 0
Note On [0] (72, 87) | Time: 0
Note Off [0] (72, 0) | Time: 96
Note Off [0] (67, 0) | Time: 0
Note On [0] (72, 87) | Time: 0
Note On [0] (67, 87) | Time: 0
Note Off [0] (67, 0) | Time: 96
Note Off [0] (72, 0) | Time: 0
Note On [0] (67, 87) | Time: 0
Note On [0] (72, 87) | Time: 0
Note Off [0] (72, 0) | Time: 96
Note Off [0] (67, 0) | Time: 0
Note On [0] (72, 87) | Time: 0
Note On [0] (67, 87) | Time: 0
Note Off [0] (67, 0) | Time: 48
Note Off [0] (72, 0) | Time: 0
Note On [0] (67, 87) | Time: 0
Note On [0] (72, 87) | Time: 0
Note Off [0] (67, 0) | Time: 96
Note Off [0] (72, 0) | Time: 0
Note On [0] (74, 87) | Time: 0
Note On [0] (69, 87) | Time: 0
Note Off [0] (69, 0) | Time: 96
Note Off [0] (74, 0) | Time: 0
Note On [0] (69, 87) | Time: 0
Note On [0] (74, 87) | Time: 0
Note Off [0] (74, 0) | Time: 96
Note Off [0] (69, 0) | Time: 0
Note On [0] (74, 87) | Time: 0
Note On [0] (69, 87) | Time: 0
Note Off [0] (69, 0) | Time: 48
Note Off [0] (74, 0) | Time: 0
Note On [0] (74, 87) | Time: 0
Note On [0] (69, 87) | Time: 0
Note Off [0] (69, 0) | Time: 96
Note Off [0] (74, 0) | Time: 0
Note On [0] (68, 87) | Time: 0
Note On [0] (73, 87) | Time: 0
Note Off [0] (73, 0) | Time: 96
Note Off [0] (68, 0) | Time: 0
Note On [0] (73, 87) | Time: 0
Note On [0] (68, 87) | Time: 0
Note Off [0] (68, 0) | Time: 96
Note Off [0] (73, 0) | Time: 0
Note On [0] (68, 87) | Time: 0
Note On [0] (73, 87) | Time: 0
Note Off [0] (73, 0) | Time: 96
Note Off [0] (68, 0) | Time: 0
Note On [0] (73, 87) | Time: 0
Note On [0] (68, 87) | Time: 0
Note Off [0] (68, 0) | Time: 48
Note Off [0] (73, 0) | Time: 0
Note On [0] (68, 87) | Time: 0
Note On [0] (73, 87) | Time: 0
Note Off [0] (68, 0) | Time: 96
Note Off [0] (73, 0) | Time: 0
Note On [0] (72, 87) | Time: 0
Note On [0] (67, 87) | Time: 0
Note Off [0] (67, 0) | Time: 96
Note Off [0] (72, 0) | Time: 0
Note On [0] (67, 87) | Time: 0
Note On [0] (72, 87) | Time: 0
Note Off [0] (72, 0) | Time: 96
Note Off [0] (67, 0) | Time: 0
Note On [0] (72, 87) | Time: 0
Note On [0] (67, 87) | Time: 0
Note Off [0] (67, 0) | Time: 48
Note Off [0] (72, 0) | Time: 0
Note On [0] (72, 87) | Time: 0
Note On [0] (67, 87) | Time: 0
Note Off [0] (67, 0) | Time: 96
Note Off [0] (72, 0) | Time: 0
Note On [0] (67, 87) | Time: 0
Note On [0] (71, 87) | Time: 0
Note Off [0] (71, 0) | Time: 96
Note Off [0] (67, 0) | Time: 0
Note On [0] (71, 87) | Time: 0
Note On [0] (67, 87) | Time: 0
Note Off [0] (67, 0) | Time: 96
Note Off [0] (71, 0) | Time: 0
Note On [0] (67, 87) | Time: 0
Note On [0] (71, 87) | Time: 0
Note Off [0] (71, 0) | Time: 96
Note Off [0] (67, 0) | Time: 0
Note On [0] (71, 87) | Time: 0
Note On [0] (67, 87) | Time: 0
Note Off [0] (67, 0) | Time: 48
Note Off [0] (71, 0) | Time: 0
Note On [0] (67, 87) | Time: 0
Note On [0] (71, 87) | Time: 0
Note Off [0] (67, 0) | Time: 96
Note Off [0] (71, 0) | Time: 0
Note On [0] (70, 87) | Time: 0
Note On [0] (65, 87) | Time: 0
Note Off [0] (65, 0) | Time: 96
Note Off [0] (70, 0) | Time: 0
Note On [0] (65, 87) | Time: 0
Note On [0] (70, 87) | Time: 0
Note Off [0] (70, 0) | Time: 96
Note Off [0] (65, 0) | Time: 0
Note On [0] (70, 87) | Time: 0
Note On [0] (65, 87) | Time: 0
Note Off [0] (65, 0) | Time: 48
Note Off [0] (70, 0) | Time: 0
Note On [0] (70, 87) | Time: 0
Note On [0] (65, 87) | Time: 0
Note Off [0] (65, 0) | Time: 96
Note Off [0] (70, 0) | Time: 0
Note On [0] (65, 87) | Time: 0
Note On [0] (70, 87) | Time: 0
Note Off [0] (70, 0) | Time: 96
Note Off [0] (65, 0) | Time: 0
Note On [0] (70, 87) | Time: 0
Note On [0] (65, 87) | Time: 0
Note Off [0] (65, 0) | Time: 96
Note Off [0] (70, 0) | Time: 0
Note On [0] (65, 87) | Time: 0
Note On [0] (70, 87) | Time: 0
Note Off [0] (70, 0) | Time: 96
Note Off [0] (65, 0) | Time: 0
Note On [0] (70, 87) | Time: 0
Note On [0] (65, 87) | Time: 0
Note Off [0] (65, 0) | Time: 48
Note Off [0] (70, 0) | Time: 0
Note On [0] (65, 87) | Time: 0
Note On [0] (70, 87) | Time: 0
Note Off [0] (65, 0) | Time: 96
Note Off [0] (70, 0) | Time: 0
Note On [0] (72, 87) | Time: 0
Note On [0] (67, 87) | Time: 0
Note Off [0] (67, 0) | Time: 96
Note Off [0] (72, 0) | Time: 0
Note On [0] (67, 87) | Time: 0
Note On [0] (72, 87) | Time: 0
Note Off [0] (72, 0) | Time: 96
Note Off [0] (67, 0) | Time: 0
Note On [0] (72, 87) | Time: 0
Note On [0] (67, 87) | Time: 0
Note Off [0] (67, 0) | Time: 48
Note Off [0] (72, 0) | Time: 0
Note On [0] (72, 87) | Time: 0
Note On [0] (67, 87) | Time: 0
Note Off [0] (67, 0) | Time: 96
Note Off [0] (72, 0) | Time: 0
Note On [0] (67, 87) | Time: 0
Note On [0] (72, 87) | Time: 0
Note Off [0] (72, 0) | Time: 96
Note Off [0] (67, 0) | Time: 0
Note On [0] (72, 87) | Time: 0
Note On [0] (67, 87) | Time: 0
Note Off [0] (67, 0) | Time: 96
Note Off [0] (72, 0) | Time: 0
Note On [0] (67, 87) | Time: 0
Note On [0] (72, 87) | Time: 0
Note Off [0] (72, 0) | Time: 96
Note Off [0] (67, 0) | Time: 0
Note On [0] (72, 87) | Time: 0
Note On [0] (67, 87) | Time: 0
Note Off [0] (67, 0) | Time: 48
Note Off [0] (72, 0) | Time: 0
Note On [0] (67, 87) | Time: 0
Note On [0] (72, 87) | Time: 0
Note Off [0] (67, 0) | Time: 96
Note Off [0] (72, 0) | Time: 0
Note On [0] (74, 87) | Time: 0
Note On [0] (69, 87) | Time: 0
Note Off [0] (69, 0) | Time: 96
Note Off [0] (74, 0) | Time: 0
Note On [0] (69, 87) | Time: 0
Note On [0] (74, 87) | Time: 0
Note Off [0] (74, 0) | Time: 96
Note Off [0] (69, 0) | Time: 0
Note On [0] (74, 87) | Time: 0
Note On [0] (69, 87) | Time: 0
Note Off [0] (69, 0) | Time: 48
Note Off [0] (74, 0) | Time: 0
Note On [0] (74, 87) | Time: 0
Note On [0] (69, 87) | Time: 0
Note Off [0] (69, 0) | Time: 96
Note Off [0] (74, 0) | Time: 0
Note On [0] (69, 87) | Time: 0
Note On [0] (74, 87) | Time: 0
Note Off [0] (74, 0) | Time: 96
Note Off [0] (69, 0) | Time: 0
Note On [0] (74, 87) | Time: 0
Note On [0] (69, 87) | Time: 0
Note Off [0] (69, 0) | Time: 96
Note Off [0] (74, 0) | Time: 0
Note On [0] (69, 87) | Time: 0
Note On [0] (74, 87) | Time: 0
Note Off [0] (74, 0) | Time: 96
Note Off [0] (69, 0) | Time: 0
Note On [0] (74, 87) | Time: 0
Note On [0] (69, 87) | Time: 0
Note Off [0] (69, 0) | Time: 48
Note Off [0] (74, 0) | Time: 0
Note On [0] (69, 87) | Time: 0
Note On [0] (74, 87) | Time: 0
Note Off [0] (69, 0) | Time: 96
Note Off [0] (74, 0) | Time: 0
Note On [0] (74, 86) | Time: 0
Note On [0] (69, 86) | Time: 0
Note Off [0] (69, 0) | Time: 96
Note Off [0] (74, 0) | Time: 0
Note On [0] (69, 86) | Time: 0
Note On [0] (74, 86) | Time: 0
Note Off [0] (74, 0) | Time: 96
Note Off [0] (69, 0) | Time: 0
Note On [0] (74, 86) | Time: 0
Note On [0] (69, 86) | Time: 0
Note Off [0] (69, 0) | Time: 48
Note Off [0] (74, 0) | Time: 0
Note On [0] (74, 86) | Time: 0
Note On [0] (69, 86) | Time: 0
Note Off [0] (69, 0) | Time: 96
Note Off [0] (74, 0) | Time: 0
Note On [0] (69, 86) | Time: 0
Note On [0] (74, 86) | Time: 0
Note Off [0] (74, 0) | Time: 96
Note Off [0] (69, 0) | Time: 0
Note On [0] (74, 86) | Time: 0
Note On [0] (69, 86) | Time: 0
Note Off [0] (69, 0) | Time: 96
Note Off [0] (74, 0) | Time: 0
Note On [0] (69, 86) | Time: 0
Note On [0] (74, 86) | Time: 0
Note Off [0] (74, 0) | Time: 96
Note Off [0] (69, 0) | Time: 0
Note On [0] (74, 86) | Time: 0
Note On [0] (69, 86) | Time: 0
Note Off [0] (69, 0) | Time: 48
Note Off [0] (74, 0) | Time: 0
Note On [0] (69, 86) | Time: 0
Note On [0] (74, 86) | Time: 0
Note Off [0] (69, 0) | Time: 96
Note Off [0] (74, 0) | Time: 0
Note On [0] (70, 86) | Time: 0
Note On [0] (65, 86) | Time: 0
Note Off [0] (70, 0) | Time: 96
Note Off [0] (65, 0) | Time: 0
Note On [0] (65, 86) | Time: 0
Note On [0] (70, 86) | Time: 0
Note Off [0] (70, 0) | Time: 96
Note Off [0] (65, 0) | Time: 0
Note On [0] (70, 86) | Time: 0
Note On [0] (65, 86) | Time: 0
Note Off [0] (65, 0) | Time: 48
Note Off [0] (70, 0) | Time: 0
Note On [0] (70, 86) | Time: 0
Note On [0] (65, 86) | Time: 0
Note Off [0] (65, 0) | Time: 96
Note Off [0] (70, 0) | Time: 0
Note On [0] (65, 86) | Time: 0
Note On [0] (70, 86) | Time: 0
Note Off [0] (70, 0) | Time: 96
Note Off [0] (65, 0) | Time: 0
Note On [0] (70, 86) | Time: 0
Note On [0] (65, 86) | Time: 0
Note Off [0] (65, 0) | Time: 96
Note Off [0] (70, 0) | Time: 0
Note On [0] (65, 86) | Time: 0
Note On [0] (70, 86) | Time: 0
Note Off [0] (70, 0) | Time: 96
Note Off [0] (65, 0) | Time: 0
Note On [0] (70, 86) | Time: 0
Note On [0] (65, 86) | Time: 0
Note Off [0] (65, 0) | Time: 48
Note Off [0] (70, 0) | Time: 0
Note On [0] (65, 86) | Time: 0
Note On [0] (70, 86) | Time: 0
Note Off [0] (65, 0) | Time: 96
Note Off [0] (70, 0) | Time: 0
Note On [0] (72, 86) | Time: 0
Note On [0] (67, 86) | Time: 0
Note Off [0] (67, 0) | Time: 96
Note Off [0] (72, 0) | Time: 0
Note On [0] (67, 86) | Time: 0
Note On [0] (72, 86) | Time: 0
Note Off [0] (72, 0) | Time: 96
Note Off [0] (67, 0) | Time: 0
Note On [0] (72, 86) | Time: 0
Note On [0] (67, 86) | Time: 0
Note Off [0] (67, 0) | Time: 48
Note Off [0] (72, 0) | Time: 0
Note On [0] (72, 86) | Time: 0
Note On [0] (67, 86) | Time: 0
Note Off [0] (67, 0) | Time: 96
Note Off [0] (72, 0) | Time: 0
Note On [0] (67, 86) | Time: 0
Note On [0] (72, 86) | Time: 0
Note Off [0] (72, 0) | Time: 96
Note Off [0] (67, 0) | Time: 0
Note On [0] (72, 86) | Time: 0
Note On [0] (67, 86) | Time: 0
Note Off [0] (67, 0) | Time: 96
Note Off [0] (72, 0) | Time: 0
Note On [0] (67, 86) | Time: 0
Note On [0] (72, 86) | Time: 0
Note Off [0] (72, 0) | Time: 96
Note Off [0] (67, 0) | Time: 0
Note On [0] (72, 86) | Time: 0
Note On [0] (67, 86) | Time: 0
Note Off [0] (67, 0) | Time: 48
Note Off [0] (72, 0) | Time: 0
Note On [0] (67, 86) | Time: 0
Note On [0] (72, 86) | Time: 0
Note Off [0] (67, 0) | Time: 96
Note Off [0] (72, 0) | Time: 0
Note On [0] (74, 86) | Time: 0
Note On [0] (69, 86) | Time: 0
Note Off [0] (69, 0) | Time: 96
Note Off [0] (74, 0) | Time: 0
Note On [0] (69, 86) | Time: 0
Note On [0] (74, 86) | Time: 0
Note Off [0] (74, 0) | Time: 96
Note Off [0] (69, 0) | Time: 0
Note On [0] (74, 86) | Time: 0
Note On [0] (69, 86) | Time: 0
Note Off [0] (69, 0) | Time: 48
Note Off [0] (74, 0) | Time: 0
Note On [0] (74, 86) | Time: 0
Note On [0] (69, 86) | Time: 0
Note Off [0] (69, 0) | Time: 96
Note Off [0] (74, 0) | Time: 0
Note On [0] (68, 86) | Time: 0
Note On [0] (73, 86) | Time: 0
Note Off [0] (73, 0) | Time: 96
Note Off [0] (68, 0) | Time: 0
Note On [0] (73, 86) | Time: 0
Note On [0] (68, 86) | Time: 0
Note Off [0] (68, 0) | Time: 96
Note Off [0] (73, 0) | Time: 0
Note On [0] (68, 86) | Time: 0
Note On [0] (73, 86) | Time: 0
Note Off [0] (73, 0) | Time: 96
Note Off [0] (68, 0) | Time: 0
Note On [0] (73, 86) | Time: 0
Note On [0] (68, 86) | Time: 0
Note Off [0] (68, 0) | Time: 48
Note Off [0] (73, 0) | Time: 0
Note On [0] (68, 86) | Time: 0
Note On [0] (73, 86) | Time: 0
Note Off [0] (68, 0) | Time: 96
Note Off [0] (73, 0) | Time: 0
Note On [0] (72, 86) | Time: 0
Note On [0] (67, 86) | Time: 0
Note Off [0] (67, 0) | Time: 96
Note Off [0] (72, 0) | Time: 0
Note On [0] (67, 86) | Time: 0
Note On [0] (72, 86) | Time: 0
Note Off [0] (72, 0) | Time: 96
Note Off [0] (67, 0) | Time: 0
Note On [0] (72, 86) | Time: 0
Note On [0] (67, 86) | Time: 0
Note Off [0] (67, 0) | Time: 48
Note Off [0] (72, 0) | Time: 0
Note On [0] (72, 86) | Time: 0
Note On [0] (67, 86) | Time: 0
Note Off [0] (67, 0) | Time: 96
Note Off [0] (72, 0) | Time: 0
Note On [0] (67, 86) | Time: 0
Note On [0] (71, 86) | Time: 0
Note Off [0] (71, 0) | Time: 96
Note Off [0] (67, 0) | Time: 0
Note On [0] (71, 86) | Time: 0
Note On [0] (67, 86) | Time: 0
Note Off [0] (67, 0) | Time: 96
Note Off [0] (71, 0) | Time: 0
Note On [0] (67, 86) | Time: 0
Note On [0] (71, 86) | Time: 0
Note Off [0] (71, 0) | Time: 96
Note Off [0] (67, 0) | Time: 0
Note On [0] (71, 86) | Time: 0
Note On [0] (67, 86) | Time: 0
Note Off [0] (67, 0) | Time: 48
Note Off [0] (71, 0) | Time: 0
Note On [0] (67, 86) | Time: 0
Note On [0] (71, 86) | Time: 0
Note Off [0] (67, 0) | Time: 96
Note Off [0] (71, 0) | Time: 0
Note On [0] (70, 86) | Time: 0
Note On [0] (65, 86) | Time: 0
Note Off [0] (65, 0) | Time: 96
Note Off [0] (70, 0) | Time: 0
Note On [0] (65, 86) | Time: 0
Note On [0] (70, 86) | Time: 0
Note Off [0] (70, 0) | Time: 96
Note Off [0] (65, 0) | Time: 0
Note On [0] (70, 86) | Time: 0
Note On [0] (65, 86) | Time: 0
Note Off [0] (65, 0) | Time: 48
Note Off [0] (70, 0) | Time: 0
Note On [0] (70, 86) | Time: 0
Note On [0] (65, 86) | Time: 0
Note Off [0] (65, 0) | Time: 96
Note Off [0] (70, 0) | Time: 0
Note On [0] (65, 86) | Time: 0
Note On [0] (70, 86) | Time: 0
Note Off [0] (70, 0) | Time: 96
Note Off [0] (65, 0) | Time: 0
Note On [0] (70, 86) | Time: 0
Note On [0] (65, 86) | Time: 0
Note Off [0] (65, 0) | Time: 96
Note Off [0] (70, 0) | Time: 0
Note On [0] (65, 86) | Time: 0
Note On [0] (70, 86) | Time: 0
Note Off [0] (70, 0) | Time: 96
Note Off [0] (65, 0) | Time: 0
Note On [0] (70, 86) | Time: 0
Note On [0] (65, 86) | Time: 0
Note Off [0] (65, 0) | Time: 48
Note Off [0] (70, 0) | Time: 0
Note On [0] (65, 86) | Time: 0
Note On [0] (70, 86) | Time: 0
Note Off [0] (65, 0) | Time: 96
Note Off [0] (70, 0) | Time: 0
Note On [0] (72, 86) | Time: 0
Note On [0] (67, 86) | Time: 0
Note Off [0] (67, 0) | Time: 96
Note Off [0] (72, 0) | Time: 0
Note On [0] (67, 86) | Time: 0
Note On [0] (72, 86) | Time: 0
Note Off [0] (72, 0) | Time: 96
Note Off [0] (67, 0) | Time: 0
Note On [0] (72, 86) | Time: 0
Note On [0] (67, 86) | Time: 0
Note Off [0] (67, 0) | Time: 48
Note Off [0] (72, 0) | Time: 0
Note On [0] (72, 86) | Time: 0
Note On [0] (67, 86) | Time: 0
Note Off [0] (67, 0) | Time: 96
Note Off [0] (72, 0) | Time: 0
Note On [0] (67, 86) | Time: 0
Note On [0] (72, 86) | Time: 0
Note Off [0] (72, 0) | Time: 96
Note Off [0] (67, 0) | Time: 0
Note On [0] (72, 86) | Time: 0
Note On [0] (67, 86) | Time: 0
Note Off [0] (67, 0) | Time: 96
Note Off [0] (72, 0) | Time: 0
Note On [0] (67, 86) | Time: 0
Note On [0] (72, 86) | Time: 0
Note Off [0] (72, 0) | Time: 96
Note Off [0] (67, 0) | Time: 0
Note On [0] (72, 87) | Time: 0
Note On [0] (67, 87) | Time: 0
Note Off [0] (67, 0) | Time: 48
Note Off [0] (72, 0) | Time: 0
Note On [0] (67, 87) | Time: 0
Note On [0] (72, 87) | Time: 0
Note Off [0] (67, 0) | Time: 96
Note Off [0] (72, 0) | Time: 0
Note On [0] (62, 87) | Time: 0
Note Off [0] (62, 0) | Time: 48
Note On [0] (62, 87) | Time: 0
Note Off [0] (62, 0) | Time: 48
Note On [0] (74, 87) | Time: 0
Note Off [0] (74, 0) | Time: 96
Note On [0] (69, 87) | Time: 0
Note Off [0] (69, 0) | Time: 144
Note On [0] (68, 87) | Time: 0
Note Off [0] (68, 0) | Time: 96
Note On [0] (67, 87) | Time: 0
Note Off [0] (67, 0) | Time: 96
Note On [0] (65, 87) | Time: 0
Note Off [0] (65, 0) | Time: 96
Note On [0] (62, 87) | Time: 0
Note Off [0] (62, 0) | Time: 48
Note On [0] (65, 87) | Time: 0
Note Off [0] (65, 0) | Time: 48
Note On [0] (67, 87) | Time: 0
Note Off [0] (67, 0) | Time: 48
Note On [0] (62, 87) | Time: 0
Note Off [0] (62, 0) | Time: 48
Note On [0] (62, 87) | Time: 0
Note Off [0] (62, 0) | Time: 48
Note On [0] (74, 87) | Time: 0
Note Off [0] (74, 0) | Time: 96
Note On [0] (69, 87) | Time: 0
Note Off [0] (69, 0) | Time: 144
Note On [0] (68, 87) | Time: 0
Note Off [0] (68, 0) | Time: 96
Note On [0] (67, 87) | Time: 0
Note Off [0] (67, 0) | Time: 96
Note On [0] (65, 87) | Time: 0
Note Off [0] (65, 0) | Time: 96
Note On [0] (62, 87) | Time: 0
Note Off [0] (62, 0) | Time: 48
Note On [0] (65, 87) | Time: 0
Note Off [0] (65, 0) | Time: 48
Note On [0] (67, 87) | Time: 0
Note Off [0] (67, 0) | Time: 48
Note On [0] (58, 87) | Time: 0
Note Off [0] (58, 0) | Time: 48
Note On [0] (58, 87) | Time: 0
Note Off [0] (58, 0) | Time: 48
Note On [0] (74, 87) | Time: 0
Note Off [0] (74, 0) | Time: 96
Note On [0] (69, 87) | Time: 0
Note Off [0] (69, 0) | Time: 144
Note On [0] (68, 87) | Time: 0
Note Off [0] (68, 0) | Time: 96
Note On [0] (67, 87) | Time: 0
Note Off [0] (67, 0) | Time: 96
Note On [0] (65, 87) | Time: 0
Note Off [0] (65, 0) | Time: 96
Note On [0] (62, 87) | Time: 0
Note Off [0] (62, 0) | Time: 48
Note On [0] (65, 87) | Time: 0
Note Off [0] (65, 0) | Time: 48
Note On [0] (67, 87) | Time: 0
Note Off [0] (67, 0) | Time: 48
Note On [0] (60, 87) | Time: 0
Note Off [0] (60, 0) | Time: 48
Note On [0] (60, 87) | Time: 0
Note Off [0] (60, 0) | Time: 48
Note On [0] (74, 87) | Time: 0
Note Off [0] (74, 0) | Time: 96
Note On [0] (69, 87) | Time: 0
Note Off [0] (69, 0) | Time: 144
Note On [0] (68, 87) | Time: 0
Note Off [0] (68, 0) | Time: 96
Note On [0] (67, 87) | Time: 0
Note Off [0] (67, 0) | Time: 96
Note On [0] (65, 87) | Time: 0
Note Off [0] (65, 0) | Time: 96
Note On [0] (62, 87) | Time: 0
Note Off [0] (62, 0) | Time: 48
Note On [0] (65, 87) | Time: 0
Note Off [0] (65, 0) | Time: 48
Note On [0] (67, 87) | Time: 0
Note Off [0] (67, 0) | Time: 48
Note On [0] (62, 87) | Time: 0
Note Off [0] (62, 0) | Time: 48
Note On [0] (62, 87) | Time: 0
Note Off [0] (62, 0) | Time: 48
Note On [0] (74, 87) | Time: 0
Note Off [0] (74, 0) | Time: 96
Note On [0] (69, 87) | Time: 0
Note Off [0] (69, 0) | Time: 144
Note On [0] (68, 87) | Time: 0
Note Off [0] (68, 0) | Time: 96
Note On [0] (67, 87) | Time: 0
Note Off [0] (67, 0) | Time: 96
Note On [0] (65, 87) | Time: 0
Note Off [0] (65, 0) | Time: 96
Note On [0] (62, 87) | Time: 0
Note Off [0] (62, 0) | Time: 48
Note On [0] (65, 87) | Time: 0
Note Off [0] (65, 0) | Time: 48
Note On [0] (67, 87) | Time: 0
Note Off [0] (67, 0) | Time: 48
Note On [0] (62, 87) | Time: 0
Note Off [0] (62, 0) | Time: 48
Note On [0] (62, 87) | Time: 0
Note Off [0] (62, 0) | Time: 48
Note On [0] (74, 87) | Time: 0
Note Off [0] (74, 0) | Time: 96
Note On [0] (69, 88) | Time: 0
Note Off [0] (69, 0) | Time: 144
Note On [0] (68, 88) | Time: 0
Note Off [0] (68, 0) | Time: 96
Note On [0] (67, 88) | Time: 0
Note Off [0] (67, 0) | Time: 96
Note On [0] (65, 88) | Time: 0
Note Off [0] (65, 0) | Time: 96
Note On [0] (62, 88) | Time: 0
Note Off [0] (62, 0) | Time: 48
Note On [0] (65, 88) | Time: 0
Note Off [0] (65, 0) | Time: 48
Note On [0] (67, 88) | Time: 0
Note Off [0] (67, 0) | Time: 48
------------------------------------------------
Chunk size: 2357
Events: 
Control Change [1] (10, 51) | Time: 0
Control Change [1] (7, 100) | Time: 0
Pitch Bend [1] (8192) | Time: 0
Control Change [1] (101, 0) | Time: 0
Control Change [1] (100, 0) | Time: 0
Control Change [1] (6, 12) | Time: 0
Program Change [1] (0) | Time: 0
Control Change [1] (91, 48) | Time: 0
Control Change [1] (64, 0) | Time: 0
Note On [1] (50, 69) | Time: 3072
Note Off [1] (50, 0) | Time: 96
Note On [1] (50, 80) | Time: 0
Note Off [1] (50, 0) | Time: 96
Note On [1] (50, 76) | Time: 0
Note Off [1] (50, 0) | Time: 48
Note On [1] (50, 76) | Time: 0
Note Off [1] (50, 0) | Time: 96
Note On [1] (50, 75) | Time: 0
Note Off [1] (50, 0) | Time: 96
Note On [1] (50, 74) | Time: 0
Note Off [1] (50, 0) | Time: 96
Note On [1] (50, 77) | Time: 0
Note Off [1] (50, 0) | Time: 96
Note On [1] (50, 76) | Time: 0
Note Off [1] (50, 0) | Time: 48
Note On [1] (50, 79) | Time: 0
Note Off [1] (50, 0) | Time: 96
Note On [1] (48, 74) | Time: 0
Note Off [1] (48, 0) | Time: 96
Note On [1] (48, 76) | Time: 0
Note Off [1] (48, 0) | Time: 96
Note On [1] (48, 74) | Time: 0
Note Off [1] (48, 0) | Time: 48
Note On [1] (48, 75) | Time: 0
Note Off [1] (48, 0) | Time: 96
Note On [1] (48, 74) | Time: 0
Note Off [1] (48, 0) | Time: 96
Note On [1] (48, 73) | Time: 0
Note Off [1] (48, 0) | Time: 96
Note On [1] (48, 74) | Time: 0
Note Off [1] (48, 0) | Time: 96
Note On [1] (48, 70) | Time: 0
Note Off [1] (48, 0) | Time: 48
Note On [1] (48, 75) | Time: 0
Note Off [1] (48, 0) | Time: 96
Note On [1] (47, 75) | Time: 0
Note Off [1] (47, 0) | Time: 96
Note On [1] (47, 73) | Time: 0
Note Off [1] (47, 0) | Time: 96
Note On [1] (47, 77) | Time: 0
Note Off [1] (47, 0) | Time: 48
Note On [1] (47, 77) | Time: 0
Note Off [1] (47, 0) | Time: 96
Note On [1] (47, 79) | Time: 0
Note Off [1] (47, 0) | Time: 96
Note On [1] (47, 76) | Time: 0
Note Off [1] (47, 0) | Time: 96
Note On [1] (47, 76) | Time: 0
Note Off [1] (47, 0) | Time: 96
Note On [1] (47, 76) | Time: 0
Note Off [1] (47, 0) | Time: 48
Note On [1] (47, 76) | Time: 0
Note Off [1] (47, 0) | Time: 96
Note On [1] (46, 73) | Time: 0
Note Off [1] (46, 0) | Time: 96
Note On [1] (46, 76) | Time: 0
Note Off [1] (46, 0) | Time: 96
Note On [1] (46, 74) | Time: 0
Note Off [1] (46, 0) | Time: 48
Note On [1] (46, 72) | Time: 0
Note Off [1] (46, 0) | Time: 96
Note On [1] (48, 75) | Time: 0
Note Off [1] (48, 0) | Time: 96
Note On [1] (48, 78) | Time: 0
Note Off [1] (48, 0) | Time: 96
Note On [1] (48, 74) | Time: 0
Note Off [1] (48, 0) | Time: 96
Note On [1] (48, 75) | Time: 0
Note Off [1] (48, 0) | Time: 48
Note On [1] (48, 75) | Time: 0
Note Off [1] (48, 0) | Time: 96
Note On [1] (38, 82) | Time: 0
Note On [1] (50, 82) | Time: 0
Note Off [1] (50, 0) | Time: 96
Note Off [1] (38, 0) | Time: 0
Note On [1] (50, 76) | Time: 0
Note On [1] (38, 76) | Time: 0
Note Off [1] (38, 0) | Time: 96
Note Off [1] (50, 0) | Time: 0
Note On [1] (50, 79) | Time: 0
Note On [1] (38, 79) | Time: 0
Note Off [1] (50, 0) | Time: 48
Note Off [1] (38, 0) | Time: 0
Note On [1] (38, 79) | Time: 0
Note On [1] (50, 79) | Time: 0
Note Off [1] (50, 0) | Time: 96
Note Off [1] (38, 0) | Time: 0
Note On [1] (38, 73) | Time: 0
Note On [1] (50, 73) | Time: 0
Note Off [1] (50, 0) | Time: 96
Note Off [1] (38, 0) | Time: 0
Note On [1] (50, 75) | Time: 0
Note On [1] (38, 75) | Time: 0
Note Off [1] (38, 0) | Time: 96
Note Off [1] (50, 0) | Time: 0
Note On [1] (38, 73) | Time: 0
Note On [1] (50, 73) | Time: 0
Note Off [1] (50, 0) | Time: 96
Note Off [1] (38, 0) | Time: 0
Note On [1] (38, 78) | Time: 0
Note On [1] (50, 78) | Time: 0
Note Off [1] (50, 0) | Time: 48
Note Off [1] (38, 0) | Time: 0
Note On [1] (38, 74) | Time: 0
Note On [1] (50, 74) | Time: 0
Note Off [1] (50, 0) | Time: 96
Note Off [1] (38, 0) | Time: 0
Note On [1] (48, 73) | Time: 0
Note On [1] (36, 73) | Time: 0
Note Off [1] (36, 0) | Time: 96
Note Off [1] (48, 0) | Time: 0
Note On [1] (48, 74) | Time: 0
Note On [1] (36, 74) | Time: 0
Note Off [1] (36, 0) | Time: 96
Note Off [1] (48, 0) | Time: 0
Note On [1] (48, 80) | Time: 0
Note On [1] (36, 80) | Time: 0
Note Off [1] (48, 0) | Time: 48
Note Off [1] (36, 0) | Time: 0
Note On [1] (36, 80) | Time: 0
Note On [1] (48, 80) | Time: 0
Note Off [1] (48, 0) | Time: 96
Note Off [1] (36, 0) | Time: 0
Note On [1] (48, 77) | Time: 0
Note On [1] (36, 77) | Time: 0
Note Off [1] (36, 0) | Time: 96
Note Off [1] (48, 0) | Time: 0
Note On [1] (36, 78) | Time: 0
Note On [1] (48, 78) | Time: 0
Note Off [1] (48, 0) | Time: 96
Note Off [1] (36, 0) | Time: 0
Note On [1] (48, 78) | Time: 0
Note On [1] (36, 78) | Time: 0
Note Off [1] (36, 0) | Time: 96
Note Off [1] (48, 0) | Time: 0
Note On [1] (36, 77) | Time: 0
Note On [1] (48, 77) | Time: 0
Note Off [1] (48, 0) | Time: 48
Note Off [1] (36, 0) | Time: 0
Note On [1] (48, 75) | Time: 0
Note On [1] (36, 75) | Time: 0
Note Off [1] (36, 0) | Time: 96
Note Off [1] (48, 0) | Time: 0
Note On [1] (35, 77) | Time: 0
Note On [1] (47, 77) | Time: 0
Note Off [1] (47, 0) | Time: 96
Note Off [1] (35, 0) | Time: 0
Note On [1] (35, 77) | Time: 0
Note On [1] (47, 77) | Time: 0
Note Off [1] (47, 0) | Time: 96
Note Off [1] (35, 0) | Time: 0
Note On [1] (35, 74) | Time: 0
Note On [1] (47, 74) | Time: 0
Note Off [1] (35, 0) | Time: 48
Note Off [1] (47, 0) | Time: 0
Note On [1] (35, 76) | Time: 0
Note On [1] (47, 76) | Time: 0
Note Off [1] (47, 0) | Time: 96
Note Off [1] (35, 0) | Time: 0
Note On [1] (35, 73) | Time: 0
Note On [1] (47, 73) | Time: 0
Note Off [1] (47, 0) | Time: 96
Note Off [1] (35, 0) | Time: 0
Note On [1] (35, 77) | Time: 0
Note On [1] (47, 77) | Time: 0
Note Off [1] (47, 0) | Time: 96
Note Off [1] (35, 0) | Time: 0
Note On [1] (35, 75) | Time: 0
Note On [1] (47, 75) | Time: 0
Note Off [1] (47, 0) | Time: 96
Note Off [1] (35, 0) | Time: 0
Note On [1] (35, 78) | Time: 0
Note On [1] (47, 78) | Time: 0
Note Off [1] (47, 0) | Time: 48
Note Off [1] (35, 0) | Time: 0
Note On [1] (35, 80) | Time: 0
Note On [1] (47, 80) | Time: 0
Note Off [1] (47, 0) | Time: 96
Note Off [1] (35, 0) | Time: 0
Note On [1] (34, 77) | Time: 0
Note On [1] (46, 77) | Time: 0
Note Off [1] (46, 0) | Time: 96
Note Off [1] (34, 0) | Time: 0
Note On [1] (34, 76) | Time: 0
Note On [1] (46, 76) | Time: 0
Note Off [1] (46, 0) | Time: 96
Note Off [1] (34, 0) | Time: 0
Note On [1] (34, 72) | Time: 0
Note On [1] (46, 72) | Time: 0
Note Off [1] (34, 0) | Time: 48
Note Off [1] (46, 0) | Time: 0
Note On [1] (34, 76) | Time: 0
Note On [1] (46, 76) | Time: 0
Note Off [1] (46, 0) | Time: 96
Note Off [1] (34, 0) | Time: 0
Note On [1] (36, 72) | Time: 0
Note On [1] (48, 72) | Time: 0
Note Off [1] (36, 0) | Time: 96
Note Off [1] (48, 0) | Time: 0
Note On [1] (36, 74) | Time: 0
Note On [1] (48, 74) | Time: 0
Note Off [1] (48, 0) | Time: 96
Note Off [1] (36, 0) | Time: 0
Note On [1] (36, 79) | Time: 0
Note On [1] (48, 79) | Time: 0
Note Off [1] (48, 0) | Time: 96
Note Off [1] (36, 0) | Time: 0
Note On [1] (36, 79) | Time: 0
Note On [1] (48, 79) | Time: 0
Note Off [1] (48, 0) | Time: 48
Note Off [1] (36, 0) | Time: 0
Note On [1] (36, 77) | Time: 0
Note On [1] (48, 77) | Time: 0
Note Off [1] (48, 0) | Time: 96
Note Off [1] (36, 0) | Time: 0
Note On [1] (38, 74) | Time: 0
Note On [1] (50, 74) | Time: 0
Note Off [1] (50, 0) | Time: 96
Note Off [1] (38, 0) | Time: 0
Note On [1] (38, 73) | Time: 0
Note On [1] (50, 73) | Time: 0
Note Off [1] (50, 0) | Time: 96
Note Off [1] (38, 0) | Time: 0
Note On [1] (38, 83) | Time: 0
Note On [1] (50, 83) | Time: 0
Note Off [1] (38, 0) | Time: 48
Note Off [1] (50, 0) | Time: 0
Note On [1] (38, 75) | Time: 0
Note On [1] (50, 75) | Time: 0
Note Off [1] (50, 0) | Time: 96
Note Off [1] (38, 0) | Time: 0
Note On [1] (38, 76) | Time: 0
Note On [1] (50, 76) | Time: 0
Note Off [1] (50, 0) | Time: 96
Note Off [1] (38, 0) | Time: 0
Note On [1] (38, 76) | Time: 0
Note On [1] (50, 76) | Time: 0
Note Off [1] (50, 0) | Time: 96
Note Off [1] (38, 0) | Time: 0
Note On [1] (38, 81) | Time: 0
Note On [1] (50, 81) | Time: 0
Note Off [1] (50, 0) | Time: 96
Note Off [1] (38, 0) | Time: 0
Note On [1] (38, 77) | Time: 0
Note On [1] (50, 77) | Time: 0
Note Off [1] (50, 0) | Time: 48
Note Off [1] (38, 0) | Time: 0
Note On [1] (38, 73) | Time: 0
Note On [1] (50, 73) | Time: 0
Note Off [1] (50, 0) | Time: 96
Note Off [1] (38, 0) | Time: 0
Note On [1] (36, 73) | Time: 0
Note On [1] (48, 73) | Time: 0
Note Off [1] (48, 0) | Time: 96
Note Off [1] (36, 0) | Time: 0
Note On [1] (36, 78) | Time: 0
Note On [1] (48, 78) | Time: 0
Note Off [1] (48, 0) | Time: 96
Note Off [1] (36, 0) | Time: 0
Note On [1] (36, 78) | Time: 0
Note On [1] (48, 78) | Time: 0
Note Off [1] (36, 0) | Time: 48
Note Off [1] (48, 0) | Time: 0
Note On [1] (36, 74) | Time: 0
Note On [1] (48, 74) | Time: 0
Note Off [1] (48, 0) | Time: 96
Note Off [1] (36, 0) | Time: 0
Note On [1] (36, 78) | Time: 0
Note On [1] (48, 78) | Time: 0
Note Off [1] (48, 0) | Time: 96
Note Off [1] (36, 0) | Time: 0
Note On [1] (36, 79) | Time: 0
Note On [1] (48, 79) | Time: 0
Note Off [1] (48, 0) | Time: 96
Note Off [1] (36, 0) | Time: 0
Note On [1] (36, 75) | Time: 0
Note On [1] (48, 75) | Time: 0
Note Off [1] (48, 0) | Time: 96
Note Off [1] (36, 0) | Time: 0
Note On [1] (36, 77) | Time: 0
Note On [1] (48, 77) | Time: 0
Note Off [1] (48, 0) | Time: 48
Note Off [1] (36, 0) | Time: 0
Note On [1] (36, 75) | Time: 0
Note On [1] (48, 75) | Time: 0
Note Off [1] (48, 0) | Time: 96
Note Off [1] (36, 0) | Time: 0
Note On [1] (35, 71) | Time: 0
Note On [1] (47, 71) | Time: 0
Note Off [1] (47, 0) | Time: 96
Note Off [1] (35, 0) | Time: 0
Note On [1] (35, 79) | Time: 0
Note On [1] (47, 79) | Time: 0
Note Off [1] (47, 0) | Time: 96
Note Off [1] (35, 0) | Time: 0
Note On [1] (35, 75) | Time: 0
Note On [1] (47, 75) | Time: 0
Note Off [1] (35, 0) | Time: 48
Note Off [1] (47, 0) | Time: 0
Note On [1] (47, 77) | Time: 0
Note On [1] (35, 77) | Time: 0
Note Off [1] (35, 0) | Time: 96
Note Off [1] (47, 0) | Time: 0
Note On [1] (35, 78) | Time: 0
Note On [1] (47, 78) | Time: 0
Note Off [1] (47, 0) | Time: 96
Note Off [1] (35, 0) | Time: 0
Note On [1] (47, 75) | Time: 0
Note On [1] (35, 75) | Time: 0
Note Off [1] (35, 0) | Time: 96
Note Off [1] (47, 0) | Time: 0
Note On [1] (35, 73) | Time: 0
Note On [1] (47, 73) | Time: 0
Note Off [1] (47, 0) | Time: 96
Note Off [1] (35, 0) | Time: 0
Note On [1] (47, 74) | Time: 0
Note On [1] (35, 74) | Time: 0
Note Off [1] (35, 0) | Time: 48
Note Off [1] (47, 0) | Time: 0
Note On [1] (35, 76) | Time: 0
Note On [1] (47, 76) | Time: 0
Note Off [1] (47, 0) | Time: 96
Note Off [1] (35, 0) | Time: 0
Note On [1] (34, 79) | Time: 0
Note On [1] (46, 79) | Time: 0
Note Off [1] (46, 0) | Time: 96
Note Off [1] (34, 0) | Time: 0
Note On [1] (34, 75) | Time: 0
Note On [1] (46, 75) | Time: 0
Note Off [1] (46, 0) | Time: 96
Note Off [1] (34, 0) | Time: 0
Note On [1] (34, 75) | Time: 0
Note On [1] (46, 75) | Time: 0
Note Off [1] (34, 0) | Time: 48
Note Off [1] (46, 0) | Time: 0
Note On [1] (46, 77) | Time: 0
Note On [1] (34, 77) | Time: 0
Note Off [1] (34, 0) | Time: 96
Note Off [1] (46, 0) | Time: 0
Note On [1] (36, 81) | Time: 0
Note On [1] (48, 81) | Time: 0
Note Off [1] (36, 0) | Time: 96
Note Off [1] (48, 0) | Time: 0
Note On [1] (48, 75) | Time: 0
Note On [1] (36, 75) | Time: 0
Note Off [1] (36, 0) | Time: 96
Note Off [1] (48, 0) | Time: 0
Note On [1] (36, 79) | Time: 0
Note On [1] (48, 79) | Time: 0
Note Off [1] (48, 0) | Time: 96
Note Off [1] (36, 0) | Time: 0
Note On [1] (48, 79) | Time: 0
Note On [1] (36, 79) | Time: 0
Note Off [1] (36, 0) | Time: 48
Note Off [1] (48, 0) | Time: 0
Note On [1] (36, 80) | Time: 0
Note On [1] (48, 80) | Time: 0
Note Off [1] (48, 0) | Time: 96
Note Off [1] (36, 0) | Time: 0
Note On [1] (57, 83) | Time: 0
Note On [1] (50, 83) | Time: 0
Note Off [1] (50, 0) | Time: 96
Note Off [1] (57, 0) | Time: 0
Note On [1] (50, 77) | Time: 0
Note On [1] (57, 77) | Time: 0
Note Off [1] (57, 0) | Time: 96
Note Off [1] (50, 0) | Time: 0
Note On [1] (57, 74) | Time: 0
Note On [1] (50, 74) | Time: 0
Note Off [1] (50, 0) | Time: 48
Note Off [1] (57, 0) | Time: 0
Note On [1] (50, 80) | Time: 0
Note On [1] (57, 80) | Time: 0
Note Off [1] (57, 0) | Time: 96
Note Off [1] (50, 0) | Time: 0
Note On [1] (50, 81) | Time: 0
Note On [1] (57, 81) | Time: 0
Note Off [1] (57, 0) | Time: 96
Note Off [1] (50, 0) | Time: 0
Note On [1] (57, 76) | Time: 0
Note On [1] (50, 76) | Time: 0
Note Off [1] (57, 0) | Time: 96
Note Off [1] (50, 0) | Time: 0
Note On [1] (57, 75) | Time: 0
Note On [1] (50, 75) | Time: 0
Note Off [1] (50, 0) | Time: 96
Note Off [1] (57, 0) | Time: 0
Note On [1] (50, 76) | Time: 0
Note On [1] (57, 76) | Time: 0
Note Off [1] (57, 0) | Time: 48
Note Off [1] (50, 0) | Time: 0
Note On [1] (50, 73) | Time: 0
Note On [1] (57, 73) | Time: 0
Note Off [1] (50, 0) | Time: 96
Note Off [1] (57, 0) | Time: 0
Note On [1] (55, 77) | Time: 0
Note On [1] (48, 77) | Time: 0
Note Off [1] (48, 0) | Time: 96
Note Off [1] (55, 0) | Time: 0
Note On [1] (48, 75) | Time: 0
Note On [1] (55, 75) | Time: 0
Note Off [1] (55, 0) | Time: 96
Note Off [1] (48, 0) | Time: 0
Note On [1] (48, 79) | Time: 0
Note On [1] (55, 79) | Time: 0
Note Off [1] (55, 0) | Time: 48
Note Off [1] (48, 0) | Time: 0
Note On [1] (48, 79) | Time: 0
Note On [1] (55, 79) | Time: 0
Note Off [1] (55, 0) | Time: 96
Note Off [1] (48, 0) | Time: 0
Note On [1] (55, 82) | Time: 0
Note On [1] (48, 82) | Time: 0
Note Off [1] (48, 0) | Time: 96
Note Off [1] (55, 0) | Time: 0
Note On [1] (48, 75) | Time: 0
Note On [1] (55, 75) | Time: 0
Note Off [1] (48, 0) | Time: 96
Note Off [1] (55, 0) | Time: 0
Note On [1] (48, 76) | Time: 0
Note On [1] (55, 76) | Time: 0
Note Off [1] (55, 0) | Time: 96
Note Off [1] (48, 0) | Time: 0
Note On [1] (55, 71) | Time: 0
Note On [1] (48, 71) | Time: 0
Note Off [1] (48, 0) | Time: 48
Note Off [1] (55, 0) | Time: 0
Note On [1] (48, 76) | Time: 0
Note On [1] (55, 76) | Time: 0
Note Off [1] (48, 0) | Time: 96
Note Off [1] (55, 0) | Time: 0
Note On [1] (47, 77) | Time: 0
Note On [1] (55, 77) | Time: 0
Note Off [1] (55, 0) | Time: 96
Note Off [1] (47, 0) | Time: 0
Note On [1] (47, 74) | Time: 0
Note On [1] (55, 74) | Time: 0
Note Off [1] (55, 0) | Time: 96
Note Off [1] (47, 0) | Time: 0
Note On [1] (47, 77) | Time: 0
Note On [1] (55, 77) | Time: 0
Note Off [1] (55, 0) | Time: 48
Note Off [1] (47, 0) | Time: 0
Note On [1] (55, 77) | Time: 0
Note On [1] (47, 77) | Time: 0
Note Off [1] (47, 0) | Time: 96
Note Off [1] (55, 0) | Time: 0
Note On [1] (55, 80) | Time: 0
Note On [1] (47, 80) | Time: 0
Note Off [1] (47, 0) | Time: 96
Note Off [1] (55, 0) | Time: 0
Note On [1] (47, 80) | Time: 0
Note On [1] (55, 80) | Time: 0
Note Off [1] (47, 0) | Time: 96
Note Off [1] (55, 0) | Time: 0
Note On [1] (55, 73) | Time: 0
Note On [1] (47, 73) | Time: 0
Note Off [1] (55, 0) | Time: 96
Note Off [1] (47, 0) | Time: 0
Note On [1] (47, 75) | Time: 0
Note On [1] (55, 75) | Time: 0
Note Off [1] (55, 0) | Time: 48
Note Off [1] (47, 0) | Time: 0
Note On [1] (47, 78) | Time: 0
Note On [1] (55, 78) | Time: 0
Note Off [1] (47, 0) | Time: 96
Note Off [1] (55, 0) | Time: 0
Note On [1] (46, 72) | Time: 0
Note On [1] (53, 72) | Time: 0
Note Off [1] (53, 0) | Time: 96
Note Off [1] (46, 0) | Time: 0
Note On [1] (46, 75) | Time: 0
Note On [1] (53, 75) | Time: 0
Note Off [1] (53, 0) | Time: 96
Note Off [1] (46, 0) | Time: 0
Note On [1] (46, 78) | Time: 0
Note On [1] (53, 78) | Time: 0
Note Off [1] (53, 0) | Time: 48
Note Off [1] (46, 0) | Time: 0
Note On [1] (53, 78) | Time: 0
Note On [1] (46, 78) | Time: 0
Note Off [1] (53, 0) | Time: 96
Note Off [1] (46, 0) | Time: 0
Note On [1] (55, 80) | Time: 0
Note On [1] (48, 80) | Time: 0
Note Off [1] (48, 0) | Time: 96
Note Off [1] (55, 0) | Time: 0
Note On [1] (55, 77) | Time: 0
Note On [1] (48, 77) | Time: 0
Note Off [1] (48, 0) | Time: 96
Note Off [1] (55, 0) | Time: 0
Note On [1] (55, 76) | Time: 0
Note On [1] (48, 76) | Time: 0
Note Off [1] (48, 0) | Time: 96
Note Off [1] (55, 0) | Time: 0
Note On [1] (55, 77) | Time: 0
Note On [1] (48, 77) | Time: 0
Note Off [1] (48, 0) | Time: 48
Note Off [1] (55, 0) | Time: 0
Note On [1] (48, 77) | Time: 0
Note On [1] (55, 77) | Time: 0
Note Off [1] (55, 0) | Time: 96
Note Off [1] (48, 0) | Time: 0
Note On [1] (50, 79) | Time: 0
Note On [1] (57, 79) | Time: 0
Note Off [1] (57, 0) | Time: 96
Note Off [1] (50, 0) | Time: 0
Note On [1] (57, 73) | Time: 0
Note On [1] (50, 73) | Time: 0
Note Off [1] (57, 0) | Time: 96
Note Off [1] (50, 0) | Time: 0
Note On [1] (57, 75) | Time: 0
Note On [1] (50, 75) | Time: 0
Note Off [1] (57, 0) | Time: 48
Note Off [1] (50, 0) | Time: 0
Note On [1] (50, 75) | Time: 0
Note On [1] (57, 75) | Time: 0
Note Off [1] (57, 0) | Time: 96
Note Off [1] (50, 0) | Time: 0
Note On [1] (50, 82) | Time: 0
Note On [1] (57, 82) | Time: 0
Note Off [1] (57, 0) | Time: 96
Note Off [1] (50, 0) | Time: 0
Note On [1] (50, 78) | Time: 0
Note On [1] (57, 78) | Time: 0
Note Off [1] (57, 0) | Time: 96
Note Off [1] (50, 0) | Time: 0
Note On [1] (50, 79) | Time: 0
Note On [1] (57, 79) | Time: 0
Note Off [1] (57, 0) | Time: 96
Note Off [1] (50, 0) | Time: 0
Note On [1] (50, 74) | Time: 0
Note On [1] (57, 74) | Time: 0
Note Off [1] (57, 0) | Time: 48
Note Off [1] (50, 0) | Time: 0
Note On [1] (57, 76) | Time: 0
Note On [1] (50, 76) | Time: 0
Note Off [1] (50, 0) | Time: 96
Note Off [1] (57, 0) | Time: 0
Note On [1] (55, 73) | Time: 0
Note On [1] (48, 73) | Time: 0
Note Off [1] (48, 0) | Time: 96
Note Off [1] (55, 0) | Time: 0
Note On [1] (55, 76) | Time: 0
Note On [1] (48, 76) | Time: 0
Note Off [1] (55, 0) | Time: 96
Note Off [1] (48, 0) | Time: 0
Note On [1] (55, 74) | Time: 0
Note On [1] (48, 74) | Time: 0
Note Off [1] (55, 0) | Time: 48
Note Off [1] (48, 0) | Time: 0
Note On [1] (48, 79) | Time: 0
Note On [1] (55, 79) | Time: 0
Note Off [1] (55, 0) | Time: 96
Note Off [1] (48, 0) | Time: 0
Note On [1] (48, 76) | Time: 0
Note On [1] (55, 76) | Time: 0
Note Off [1] (55, 0) | Time: 96
Note Off [1] (48, 0) | Time: 0
Note On [1] (48, 80) | Time: 0
Note On [1] (55, 80) | Time: 0
Note Off [1] (55, 0) | Time: 96
Note Off [1] (48, 0) | Time: 0
Note On [1] (48, 77) | Time: 0
Note On [1] (55, 77) | Time: 0
Note Off [1] (55, 0) | Time: 96
Note Off [1] (48, 0) | Time: 0
Note On [1] (48, 77) | Time: 0
Note On [1] (55, 77) | Time: 0
Note Off [1] (55, 0) | Time: 48
Note Off [1] (48, 0) | Time: 0
Note On [1] (55, 75) | Time: 0
Note On [1] (48, 75) | Time: 0
Note Off [1] (48, 0) | Time: 96
Note Off [1] (55, 0) | Time: 0
Note On [1] (55, 74) | Time: 0
Note On [1] (47, 74) | Time: 0
Note Off [1] (47, 0) | Time: 96
Note Off [1] (55, 0) | Time: 0
Note On [1] (55, 78) | Time: 0
Note On [1] (47, 78) | Time: 0
Note Off [1] (47, 0) | Time: 96
Note Off [1] (55, 0) | Time: 0
Note On [1] (55, 76) | Time: 0
Note On [1] (47, 76) | Time: 0
Note Off [1] (55, 0) | Time: 48
Note Off [1] (47, 0) | Time: 0
Note On [1] (55, 84) | Time: 0
Note On [1] (47, 84) | Time: 0
Note Off [1] (47, 0) | Time: 96
Note Off [1] (55, 0) | Time: 0
Note On [1] (55, 75) | Time: 0
Note On [1] (47, 75) | Time: 0
Note Off [1] (47, 0) | Time: 96
Note Off [1] (55, 0) | Time: 0
Note On [1] (55, 78) | Time: 0
Note On [1] (47, 78) | Time: 0
Note Off [1] (47, 0) | Time: 96
Note Off [1] (55, 0) | Time: 0
Note On [1] (55, 77) | Time: 0
Note On [1] (47, 77) | Time: 0
Note Off [1] (47, 0) | Time: 96
Note Off [1] (55, 0) | Time: 0
Note On [1] (55, 76) | Time: 0
Note On [1] (47, 76) | Time: 0
Note Off [1] (47, 0) | Time: 48
Note Off [1] (55, 0) | Time: 0
Note On [1] (55, 75) | Time: 0
Note On [1] (47, 75) | Time: 0
Note Off [1] (55, 0) | Time: 96
Note Off [1] (47, 0) | Time: 0
Note On [1] (53, 80) | Time: 0
Note On [1] (46, 80) | Time: 0
Note Off [1] (53, 0) | Time: 96
Note Off [1] (46, 0) | Time: 0
Note On [1] (53, 74) | Time: 0
Note On [1] (46, 74) | Time: 0
Note Off [1] (53, 0) | Time: 96
Note Off [1] (46, 0) | Time: 0
Note On [1] (53, 75) | Time: 0
Note On [1] (46, 75) | Time: 0
Note Off [1] (46, 0) | Time: 48
Note Off [1] (53, 0) | Time: 0
Note On [1] (53, 75) | Time: 0
Note On [1] (46, 75) | Time: 0
Note Off [1] (46, 0) | Time: 96
Note Off [1] (53, 0) | Time: 0
Note On [1] (55, 78) | Time: 0
Note On [1] (48, 78) | Time: 0
Note Off [1] (48, 0) | Time: 96
Note Off [1] (55, 0) | Time: 0
Note On [1] (48, 76) | Time: 0
Note On [1] (55, 76) | Time: 0
Note Off [1] (55, 0) | Time: 96
Note Off [1] (48, 0) | Time: 0
Note On [1] (55, 75) | Time: 0
Note On [1] (48, 75) | Time: 0
Note Off [1] (48, 0) | Time: 96
Note Off [1] (55, 0) | Time: 0
Note On [1] (48, 72) | Time: 0
Note On [1] (55, 72) | Time: 0
Note Off [1] (55, 0) | Time: 48
Note Off [1] (48, 0) | Time: 0
Note On [1] (48, 71) | Time: 0
Note On [1] (55, 71) | Time: 0
Note Off [1] (55, 0) | Time: 96
Note Off [1] (48, 0) | Time: 0
Note On [1] (53, 73) | Time: 0
Note On [1] (46, 73) | Time: 0
Note Off [1] (53, 0) | Time: 96
Note Off [1] (46, 0) | Time: 0
Note On [1] (53, 76) | Time: 0
Note On [1] (46, 76) | Time: 0
Note Off [1] (46, 0) | Time: 96
Note Off [1] (53, 0) | Time: 0
Note On [1] (53, 79) | Time: 0
Note On [1] (46, 79) | Time: 0
Note Off [1] (53, 0) | Time: 48
Note Off [1] (46, 0) | Time: 0
Note On [1] (53, 76) | Time: 0
Note On [1] (46, 76) | Time: 0
Note Off [1] (46, 0) | Time: 96
Note Off [1] (53, 0) | Time: 0
Note On [1] (53, 76) | Time: 0
Note On [1] (46, 76) | Time: 0
Note Off [1] (46, 0) | Time: 96
Note Off [1] (53, 0) | Time: 0
Note On [1] (53, 76) | Time: 0
Note On [1] (46, 76) | Time: 0
Note Off [1] (46, 0) | Time: 96
Note Off [1] (53, 0) | Time: 0
Note On [1] (53, 78) | Time: 0
Note On [1] (46, 78) | Time: 0
Note Off [1] (46, 0) | Time: 96
Note Off [1] (53, 0) | Time: 0
Note On [1] (53, 78) | Time: 0
Note On [1] (46, 78) | Time: 0
Note Off [1] (46, 0) | Time: 48
Note Off [1] (53, 0) | Time: 0
Note On [1] (53, 77) | Time: 0
Note On [1] (46, 77) | Time: 0
Note Off [1] (46, 0) | Time: 96
Note Off [1] (53, 0) | Time: 0
Note On [1] (55, 79) | Time: 0
Note On [1] (48, 79) | Time: 0
Note Off [1] (55, 0) | Time: 96
Note Off [1] (48, 0) | Time: 0
Note On [1] (55, 71) | Time: 0
Note On [1] (48, 71) | Time: 0
Note Off [1] (55, 0) | Time: 96
Note Off [1] (48, 0) | Time: 0
Note On [1] (55, 78) | Time: 0
Note On [1] (48, 78) | Time: 0
Note Off [1] (55, 0) | Time: 48
Note Off [1] (48, 0) | Time: 0
Note On [1] (55, 78) | Time: 0
Note On [1] (48, 78) | Time: 0
Note Off [1] (48, 0) | Time: 96
Note Off [1] (55, 0) | Time: 0
Note On [1] (55, 73) | Time: 0
Note On [1] (48, 73) | Time: 0
Note Off [1] (48, 0) | Time: 96
Note Off [1] (55, 0) | Time: 0
Note On [1] (55, 73) | Time: 0
Note On [1] (48, 73) | Time: 0
Note Off [1] (48, 0) | Time: 96
Note Off [1] (55, 0) | Time: 0
Note On [1] (55, 77) | Time: 0
Note On [1] (48, 77) | Time: 0
Note Off [1] (48, 0) | Time: 96
Note Off [1] (55, 0) | Time: 0
Note On [1] (55, 70) | Time: 0
Note On [1] (48, 70) | Time: 0
Note Off [1] (48, 0) | Time: 48
Note Off [1] (55, 0) | Time: 0
Note On [1] (55, 74) | Time: 0
Note On [1] (48, 74) | Time: 0
Note Off [1] (48, 0) | Time: 96
Note Off [1] (55, 0) | Time: 0
Note On [1] (57, 84) | Time: 0
Note On [1] (50, 84) | Time: 0
Note Off [1] (57, 0) | Time: 96
Note Off [1] (50, 0) | Time: 0
Note On [1] (57, 76) | Time: 0
Note On [1] (50, 76) | Time: 0
Note Off [1] (50, 0) | Time: 96
Note Off [1] (57, 0) | Time: 0
Note On [1] (57, 72) | Time: 0
Note On [1] (50, 72) | Time: 0
Note Off [1] (50, 0) | Time: 48
Note Off [1] (57, 0) | Time: 0
Note On [1] (57, 78) | Time: 0
Note On [1] (50, 78) | Time: 0
Note Off [1] (50, 0) | Time: 96
Note Off [1] (57, 0) | Time: 0
Note On [1] (57, 77) | Time: 0
Note On [1] (50, 77) | Time: 0
Note Off [1] (50, 0) | Time: 96
Note Off [1] (57, 0) | Time: 0
Note On [1] (57, 76) | Time: 0
Note On [1] (50, 76) | Time: 0
Note Off [1] (50, 0) | Time: 96
Note Off [1] (57, 0) | Time: 0
Note On [1] (57, 77) | Time: 0
Note On [1] (50, 77) | Time: 0
Note Off [1] (50, 0) | Time: 96
Note Off [1] (57, 0) | Time: 0
Note On [1] (57, 78) | Time: 0
Note On [1] (50, 78) | Time: 0
Note Off [1] (50, 0) | Time: 48
Note Off [1] (57, 0) | Time: 0
Note On [1] (57, 74) | Time: 0
Note On [1] (50, 74) | Time: 0
Note Off [1] (50, 0) | Time: 96
Note Off [1] (57, 0) | Time: 0
Note On [1] (56, 75) | Time: 0
Note On [1] (49, 75) | Time: 0
Note Off [1] (49, 0) | Time: 96
Note Off [1] (56, 0) | Time: 0
Note On [1] (56, 75) | Time: 0
Note On [1] (49, 75) | Time: 0
Note Off [1] (56, 0) | Time: 96
Note Off [1] (49, 0) | Time: 0
Note On [1] (56, 75) | Time: 0
Note On [1] (49, 75) | Time: 0
Note Off [1] (56, 0) | Time: 48
Note Off [1] (49, 0) | Time: 0
Note On [1] (56, 82) | Time: 0
Note On [1] (49, 82) | Time: 0
Note Off [1] (49, 0) | Time: 96
Note Off [1] (56, 0) | Time: 0
Note On [1] (58, 77) | Time: 0
Note On [1] (51, 77) | Time: 0
Note Off [1] (51, 0) | Time: 96
Note Off [1] (58, 0) | Time: 0
Note On [1] (58, 77) | Time: 0
Note On [1] (51, 77) | Time: 0
Note Off [1] (51, 0) | Time: 96
Note Off [1] (58, 0) | Time: 0
Note On [1] (58, 76) | Time: 0
Note On [1] (51, 76) | Time: 0
Note Off [1] (58, 0) | Time: 96
Note Off [1] (51, 0) | Time: 0
Note On [1] (58, 72) | Time: 0
Note On [1] (51, 72) | Time: 0
Note Off [1] (51, 0) | Time: 48
Note Off [1] (58, 0) | Time: 0
Note On [1] (58, 78) | Time: 0
Note On [1] (51, 78) | Time: 0
Note Off [1] (51, 0) | Time: 96
Note Off [1] (58, 0) | Time: 0
Note On [1] (53, 71) | Time: 0
Note On [1] (46, 71) | Time: 0
Note Off [1] (46, 0) | Time: 96
Note Off [1] (53, 0) | Time: 0
Note On [1] (53, 80) | Time: 0
Note On [1] (46, 80) | Time: 0
Note Off [1] (46, 0) | Time: 96
Note Off [1] (53, 0) | Time: 0
Note On [1] (46, 78) | Time: 0
Note On [1] (53, 78) | Time: 0
Note Off [1] (46, 0) | Time: 48
Note Off [1] (53, 0) | Time: 0
Note On [1] (46, 75) | Time: 0
Note On [1] (53, 75) | Time: 0
Note Off [1] (53, 0) | Time: 96
Note Off [1] (46, 0) | Time: 0
Note On [1] (46, 75) | Time: 0
Note On [1] (53, 75) | Time: 0
Note Off [1] (53, 0) | Time: 96
Note Off [1] (46, 0) | Time: 0
Note On [1] (46, 80) | Time: 0
Note On [1] (53, 80) | Time: 0
Note Off [1] (53, 0) | Time: 96
Note Off [1] (46, 0) | Time: 0
Note On [1] (46, 76) | Time: 0
Note On [1] (53, 76) | Time: 0
Note Off [1] (53, 0) | Time: 96
Note Off [1] (46, 0) | Time: 0
Note On [1] (46, 77) | Time: 0
Note On [1] (53, 77) | Time: 0
Note Off [1] (53, 0) | Time: 48
Note Off [1] (46, 0) | Time: 0
Note On [1] (53, 81) | Time: 0
Note On [1] (46, 81) | Time: 0
Note Off [1] (46, 0) | Time: 96
Note Off [1] (53, 0) | Time: 0
Note On [1] (55, 75) | Time: 0
Note On [1] (48, 75) | Time: 0
Note Off [1] (48, 0) | Time: 96
Note Off [1] (55, 0) | Time: 0
Note On [1] (55, 75) | Time: 0
Note On [1] (48, 75) | Time: 0
Note Off [1] (48, 0) | Time: 96
Note Off [1] (55, 0) | Time: 0
Note On [1] (48, 78) | Time: 0
Note On [1] (55, 78) | Time: 0
Note Off [1] (48, 0) | Time: 48
Note Off [1] (55, 0) | Time: 0
Note On [1] (48, 76) | Time: 0
Note On [1] (55, 76) | Time: 0
Note Off [1] (55, 0) | Time: 96
Note Off [1] (48, 0) | Time: 0
Note On [1] (48, 78) | Time: 0
Note On [1] (55, 78) | Time: 0
Note Off [1] (55, 0) | Time: 96
Note Off [1] (48, 0) | Time: 0
Note On [1] (48, 75) | Time: 0
Note On [1] (55, 75) | Time: 0
Note Off [1] (55, 0) | Time: 96
Note Off [1] (48, 0) | Time: 0
Note On [1] (48, 78) | Time: 0
Note On [1] (55, 78) | Time: 0
Note Off [1] (55, 0) | Time: 96
Note Off [1] (48, 0) | Time: 0
Note On [1] (48, 77) | Time: 0
Note On [1] (55, 77) | Time: 0
Note Off [1] (55, 0) | Time: 48
Note Off [1] (48, 0) | Time: 0
Note On [1] (55, 77) | Time: 0
Note On [1] (48, 77) | Time: 0
Note Off [1] (48, 0) | Time: 96
Note Off [1] (55, 0) | Time: 0
Note On [1] (57, 76) | Time: 0
Note On [1] (50, 76) | Time: 0
Note Off [1] (50, 0) | Time: 96
Note Off [1] (57, 0) | Time: 0
Note On [1] (57, 76) | Time: 0
Note On [1] (50, 76) | Time: 0
Note Off [1] (50, 0) | Time: 96
Note Off [1] (57, 0) | Time: 0
Note On [1] (50, 81) | Time: 0
Note On [1] (57, 81) | Time: 0
Note Off [1] (50, 0) | Time: 48
Note Off [1] (57, 0) | Time: 0
Note On [1] (50, 73) | Time: 0
Note On [1] (57, 73) | Time: 0
Note Off [1] (57, 0) | Time: 96
Note Off [1] (50, 0) | Time: 0
Note On [1] (50, 75) | Time: 0
Note On [1] (57, 75) | Time: 0
Note Off [1] (57, 0) | Time: 96
Note Off [1] (50, 0) | Time: 0
Note On [1] (50, 80) | Time: 0
Note On [1] (57, 80) | Time: 0
Note Off [1] (57, 0) | Time: 96
Note Off [1] (50, 0) | Time: 0
Note On [1] (50, 75) | Time: 0
Note On [1] (57, 75) | Time: 0
Note Off [1] (57, 0) | Time: 96
Note Off [1] (50, 0) | Time: 0
Note On [1] (50, 74) | Time: 0
Note On [1] (57, 74) | Time: 0
Note Off [1] (57, 0) | Time: 48
Note Off [1] (50, 0) | Time: 0
Note On [1] (50, 78) | Time: 0
Note On [1] (57, 78) | Time: 0
Note Off [1] (57, 0) | Time: 96
Note Off [1] (50, 0) | Time: 0
Note On [1] (56, 71) | Time: 0
Note On [1] (49, 71) | Time: 0
Note Off [1] (49, 0) | Time: 96
Note Off [1] (56, 0) | Time: 0
Note On [1] (56, 74) | Time: 0
Note On [1] (49, 74) | Time: 0
Note Off [1] (49, 0) | Time: 96
Note Off [1] (56, 0) | Time: 0
Note On [1] (49, 78) | Time: 0
Note On [1] (56, 78) | Time: 0
Note Off [1] (49, 0) | Time: 48
Note Off [1] (56, 0) | Time: 0
Note On [1] (49, 78) | Time: 0
Note On [1] (56, 78) | Time: 0
Note Off [1] (56, 0) | Time: 96
Note Off [1] (49, 0) | Time: 0
Note On [1] (51, 80) | Time: 0
Note On [1] (58, 80) | Time: 0
Note Off [1] (51, 0) | Time: 96
Note Off [1] (58, 0) | Time: 0
Note On [1] (51, 78) | Time: 0
Note On [1] (58, 78) | Time: 0
Note Off [1] (58, 0) | Time: 96
Note Off [1] (51, 0) | Time: 0
Note On [1] (51, 76) | Time: 0
Note On [1] (58, 76) | Time: 0
Note Off [1] (51, 0) | Time: 96
Note Off [1] (58, 0) | Time: 0
Note On [1] (51, 74) | Time: 0
Note On [1] (58, 74) | Time: 0
Note Off [1] (58, 0) | Time: 48
Note Off [1] (51, 0) | Time: 0
Note On [1] (58, 74) | Time: 0
Note On [1] (51, 74) | Time: 0
Note Off [1] (51, 0) | Time: 96
Note Off [1] (58, 0) | Time: 0
Note On [1] (53, 69) | Time: 0
Note On [1] (46, 69) | Time: 0
Note Off [1] (46, 0) | Time: 96
Note Off [1] (53, 0) | Time: 0
Note On [1] (53, 75) | Time: 0
Note On [1] (46, 75) | Time: 0
Note Off [1] (46, 0) | Time: 96
Note Off [1] (53, 0) | Time: 0
Note On [1] (53, 76) | Time: 0
Note On [1] (46, 76) | Time: 0
Note Off [1] (53, 0) | Time: 48
Note Off [1] (46, 0) | Time: 0
Note On [1] (53, 78) | Time: 0
Note On [1] (46, 78) | Time: 0
Note Off [1] (46, 0) | Time: 96
Note Off [1] (53, 0) | Time: 0
Note On [1] (53, 70) | Time: 0
Note On [1] (46, 70) | Time: 0
Note Off [1] (46, 0) | Time: 96
Note Off [1] (53, 0) | Time: 0
Note On [1] (53, 74) | Time: 0
Note On [1] (46, 74) | Time: 0
Note Off [1] (46, 0) | Time: 96
Note Off [1] (53, 0) | Time: 0
Note On [1] (53, 75) | Time: 0
Note On [1] (46, 75) | Time: 0
Note Off [1] (46, 0) | Time: 96
Note Off [1] (53, 0) | Time: 0
Note On [1] (53, 71) | Time: 0
Note On [1] (46, 71) | Time: 0
Note Off [1] (46, 0) | Time: 48
Note Off [1] (53, 0) | Time: 0
Note On [1] (53, 73) | Time: 0
Note On [1] (46, 73) | Time: 0
Note Off [1] (46, 0) | Time: 96
Note Off [1] (53, 0) | Time: 0
Note On [1] (55, 79) | Time: 0
Note On [1] (48, 79) | Time: 0
Note Off [1] (55, 0) | Time: 96
Note Off [1] (48, 0) | Time: 0
Note On [1] (55, 77) | Time: 0
Note On [1] (48, 77) | Time: 0
Note Off [1] (55, 0) | Time: 96
Note Off [1] (48, 0) | Time: 0
Note On [1] (55, 78) | Time: 0
Note On [1] (48, 78) | Time: 0
Note Off [1] (55, 0) | Time: 48
Note Off [1] (48, 0) | Time: 0
Note On [1] (55, 77) | Time: 0
Note On [1] (48, 77) | Time: 0
Note Off [1] (48, 0) | Time: 96
Note Off [1] (55, 0) | Time: 0
Note On [1] (55, 78) | Time: 0
Note On [1] (48, 78) | Time: 0
Note Off [1] (48, 0) | Time: 96
Note Off [1] (55, 0) | Time: 0
Note On [1] (55, 73) | Time: 0
Note On [1] (48, 73) | Time: 0
Note Off [1] (48, 0) | Time: 96
Note Off [1] (55, 0) | Time: 0
Note On [1] (55, 76) | Time: 0
Note On [1] (48, 76) | Time: 0
Note Off [1] (48, 0) | Time: 96
Note Off [1] (55, 0) | Time: 0
Note On [1] (55, 77) | Time: 0
Note On [1] (48, 77) | Time: 0
Note Off [1] (48, 0) | Time: 48
Note Off [1] (55, 0) | Time: 0
Note On [1] (55, 75) | Time: 0
Note On [1] (48, 75) | Time: 0
Note Off [1] (48, 0) | Time: 96
Note Off [1] (55, 0) | Time: 0
Note On [1] (57, 76) | Time: 0
Note On [1] (50, 76) | Time: 0
Note Off [1] (57, 0) | Time: 96
Note Off [1] (50, 0) | Time: 0
Note On [1] (57, 76) | Time: 0
Note On [1] (50, 76) | Time: 0
Note Off [1] (50, 0) | Time: 96
Note Off [1] (57, 0) | Time: 0
Note On [1] (57, 76) | Time: 0
Note On [1] (50, 76) | Time: 0
Note Off [1] (50, 0) | Time: 48
Note Off [1] (57, 0) | Time: 0
Note On [1] (57, 79) | Time: 0
Note On [1] (50, 79) | Time: 0
Note Off [1] (50, 0) | Time: 96
Note Off [1] (57, 0) | Time: 0
Note On [1] (57, 75) | Time: 0
Note On [1] (50, 75) | Time: 0
Note Off [1] (50, 0) | Time: 96
Note Off [1] (57, 0) | Time: 0
Note On [1] (57, 78) | Time: 0
Note On [1] (50, 78) | Time: 0
Note Off [1] (50, 0) | Time: 96
Note Off [1] (57, 0) | Time: 0
Note On [1] (57, 77) | Time: 0
Note On [1] (50, 77) | Time: 0
Note Off [1] (50, 0) | Time: 96
Note Off [1] (57, 0) | Time: 0
Note On [1] (57, 78) | Time: 0
Note On [1] (50, 78) | Time: 0
Note Off [1] (50, 0) | Time: 48
Note Off [1] (57, 0) | Time: 0
Note On [1] (57, 77) | Time: 0
Note On [1] (50, 77) | Time: 0
Note Off [1] (50, 0) | Time: 96
Note Off [1] (57, 0) | Time: 0
Note On [1] (56, 69) | Time: 0
Note On [1] (49, 69) | Time: 0
Note Off [1] (56, 0) | Time: 96
Note Off [1] (49, 0) | Time: 0
Note On [1] (56, 79) | Time: 0
Note On [1] (49, 79) | Time: 0
Note Off [1] (56, 0) | Time: 96
Note Off [1] (49, 0) | Time: 0
Note On [1] (56, 76) | Time: 0
Note On [1] (49, 76) | Time: 0
Note Off [1] (49, 0) | Time: 48
Note Off [1] (56, 0) | Time: 0
Note On [1] (56, 78) | Time: 0
Note On [1] (49, 78) | Time: 0
Note Off [1] (49, 0) | Time: 96
Note Off [1] (56, 0) | Time: 0
Note On [1] (58, 78) | Time: 0
Note On [1] (51, 78) | Time: 0
Note Off [1] (51, 0) | Time: 96
Note Off [1] (58, 0) | Time: 0
Note On [1] (58, 76) | Time: 0
Note On [1] (51, 76) | Time: 0
Note Off [1] (51, 0) | Time: 96
Note Off [1] (58, 0) | Time: 0
Note On [1] (58, 76) | Time: 0
Note On [1] (51, 76) | Time: 0
Note Off [1] (58, 0) | Time: 96
Note Off [1] (51, 0) | Time: 0
Note On [1] (58, 76) | Time: 0
Note On [1] (51, 76) | Time: 0
Note Off [1] (51, 0) | Time: 48
Note Off [1] (58, 0) | Time: 0
Note On [1] (58, 80) | Time: 0
Note On [1] (51, 80) | Time: 0
Note Off [1] (51, 0) | Time: 96
Note Off [1] (58, 0) | Time: 0
Note On [1] (46, 72) | Time: 0
Note On [1] (53, 72) | Time: 0
Note Off [1] (53, 0) | Time: 96
Note Off [1] (46, 0) | Time: 0
Note On [1] (53, 73) | Time: 0
Note On [1] (46, 73) | Time: 0
Note Off [1] (53, 0) | Time: 96
Note Off [1] (46, 0) | Time: 0
Note On [1] (46, 74) | Time: 0
Note On [1] (53, 74) | Time: 0
Note Off [1] (53, 0) | Time: 48
Note Off [1] (46, 0) | Time: 0
Note On [1] (46, 78) | Time: 0
Note On [1] (53, 78) | Time: 0
Note Off [1] (53, 0) | Time: 96
Note Off [1] (46, 0) | Time: 0
Note On [1] (53, 75) | Time: 0
Note On [1] (46, 75) | Time: 0
Note Off [1] (46, 0) | Time: 96
Note Off [1] (53, 0) | Time: 0
Note On [1] (46, 76) | Time: 0
Note On [1] (53, 76) | Time: 0
Note Off [1] (53, 0) | Time: 96
Note Off [1] (46, 0) | Time: 0
Note On [1] (53, 77) | Time: 0
Note On [1] (46, 77) | Time: 0
Note Off [1] (46, 0) | Time: 96
Note Off [1] (53, 0) | Time: 0
Note On [1] (46, 74) | Time: 0
Note On [1] (53, 74) | Time: 0
Note Off [1] (53, 0) | Time: 48
Note Off [1] (46, 0) | Time: 0
Note On [1] (53, 76) | Time: 0
Note On [1] (46, 76) | Time: 0
Note Off [1] (46, 0) | Time: 96
Note Off [1] (53, 0) | Time: 0
Note On [1] (48, 82) | Time: 0
Note On [1] (55, 82) | Time: 0
Note Off [1] (55, 0) | Time: 96
Note Off [1] (48, 0) | Time: 0
Note On [1] (55, 78) | Time: 0
Note On [1] (48, 78) | Time: 0
Note Off [1] (48, 0) | Time: 96
Note Off [1] (55, 0) | Time: 0
Note On [1] (48, 77) | Time: 0
Note On [1] (55, 77) | Time: 0
Note Off [1] (55, 0) | Time: 48
Note Off [1] (48, 0) | Time: 0
Note On [1] (48, 78) | Time: 0
Note On [1] (55, 78) | Time: 0
Note Off [1] (55, 0) | Time: 96
Note Off [1] (48, 0) | Time: 0
Note On [1] (55, 82) | Time: 0
Note On [1] (48, 82) | Time: 0
Note Off [1] (48, 0) | Time: 96
Note Off [1] (55, 0) | Time: 0
Note On [1] (48, 75) | Time: 0
Note On [1] (55, 75) | Time: 0
Note Off [1] (55, 0) | Time: 96
Note Off [1] (48, 0) | Time: 0
Note On [1] (55, 75) | Time: 0
Note On [1] (48, 75) | Time: 0
Note Off [1] (48, 0) | Time: 96
Note Off [1] (55, 0) | Time: 0
Note On [1] (48, 76) | Time: 0
Note On [1] (55, 76) | Time: 0
Note Off [1] (55, 0) | Time: 48
Note Off [1] (48, 0) | Time: 0
Note On [1] (55, 75) | Time: 0
Note On [1] (48, 75) | Time: 0
Note Off [1] (48, 0) | Time: 96
Note Off [1] (55, 0) | Time: 0
Note On [1] (50, 83) | Time: 0
Note On [1] (57, 83) | Time: 0
Note Off [1] (57, 0) | Time: 96
Note Off [1] (50, 0) | Time: 0
Note On [1] (57, 73) | Time: 0
Note On [1] (50, 73) | Time: 0
Note Off [1] (50, 0) | Time: 96
Note Off [1] (57, 0) | Time: 0
Note On [1] (50, 75) | Time: 0
Note On [1] (57, 75) | Time: 0
Note Off [1] (50, 0) | Time: 48
Note Off [1] (57, 0) | Time: 0
Note On [1] (50, 73) | Time: 0
Note On [1] (57, 73) | Time: 0
Note Off [1] (57, 0) | Time: 96
Note Off [1] (50, 0) | Time: 0
Note On [1] (57, 80) | Time: 0
Note On [1] (50, 80) | Time: 0
Note Off [1] (57, 0) | Time: 96
Note Off [1] (50, 0) | Time: 0
Note On [1] (50, 78) | Time: 0
Note On [1] (57, 78) | Time: 0
Note Off [1] (57, 0) | Time: 96
Note Off [1] (50, 0) | Time: 0
Note On [1] (57, 77) | Time: 0
Note On [1] (50, 77) | Time: 0
Note Off [1] (50, 0) | Time: 96
Note Off [1] (57, 0) | Time: 0
Note On [1] (50, 80) | Time: 0
Note On [1] (57, 80) | Time: 0
Note Off [1] (57, 0) | Time: 48
Note Off [1] (50, 0) | Time: 0
Note On [1] (57, 75) | Time: 0
Note On [1] (50, 75) | Time: 0
Note Off [1] (50, 0) | Time: 96
Note Off [1] (57, 0) | Time: 0
Note On [1] (49, 78) | Time: 0
Note On [1] (56, 78) | Time: 0
Note Off [1] (49, 0) | Time: 96
Note Off [1] (56, 0) | Time: 0
Note On [1] (56, 75) | Time: 0
Note On [1] (49, 75) | Time: 0
Note Off [1] (49, 0) | Time: 96
Note Off [1] (56, 0) | Time: 0
Note On [1] (49, 74) | Time: 0
Note On [1] (56, 74) | Time: 0
Note Off [1] (49, 0) | Time: 48
Note Off [1] (56, 0) | Time: 0
Note On [1] (49, 78) | Time: 0
Note On [1] (56, 78) | Time: 0
Note Off [1] (56, 0) | Time: 96
Note Off [1] (49, 0) | Time: 0
Note On [1] (58, 81) | Time: 0
Note On [1] (51, 81) | Time: 0
Note Off [1] (51, 0) | Time: 96
Note Off [1] (58, 0) | Time: 0
Note On [1] (58, 73) | Time: 0
Note On [1] (51, 73) | Time: 0
Note Off [1] (51, 0) | Time: 96
Note Off [1] (58, 0) | Time: 0
Note On [1] (58, 72) | Time: 0
Note On [1] (51, 72) | Time: 0
Note Off [1] (58, 0) | Time: 96
Note Off [1] (51, 0) | Time: 0
Note On [1] (58, 75) | Time: 0
Note On [1] (51, 75) | Time: 0
Note Off [1] (51, 0) | Time: 48
Note Off [1] (58, 0) | Time: 0
Note On [1] (58, 75) | Time: 0
Note On [1] (51, 75) | Time: 0
Note Off [1] (51, 0) | Time: 96
Note Off [1] (58, 0) | Time: 0
Note On [1] (46, 78) | Time: 0
Note On [1] (53, 78) | Time: 0
Note Off [1] (53, 0) | Time: 96
Note Off [1] (46, 0) | Time: 0
Note On [1] (46, 75) | Time: 0
Note On [1] (53, 75) | Time: 0
Note Off [1] (46, 0) | Time: 96
Note Off [1] (53, 0) | Time: 0
Note On [1] (46, 74) | Time: 0
Note On [1] (53, 74) | Time: 0
Note Off [1] (46, 0) | Time: 48
Note Off [1] (53, 0) | Time: 0
Note On [1] (53, 74) | Time: 0
Note On [1] (46, 74) | Time: 0
Note Off [1] (46, 0) | Time: 96
Note Off [1] (53, 0) | Time: 0
Note On [1] (46, 73) | Time: 0
Note On [1] (53, 73) | Time: 0
Note Off [1] (53, 0) | Time: 96
Note Off [1] (46, 0) | Time: 0
Note On [1] (46, 73) | Time: 0
Note On [1] (53, 73) | Time: 0
Note Off [1] (53, 0) | Time: 96
Note Off [1] (46, 0) | Time: 0
Note On [1] (46, 75) | Time: 0
Note On [1] (53, 75) | Time: 0
Note Off [1] (53, 0) | Time: 96
Note Off [1] (46, 0) | Time: 0
Note On [1] (46, 75) | Time: 0
Note On [1] (53, 75) | Time: 0
Note Off [1] (53, 0) | Time: 48
Note Off [1] (46, 0) | Time: 0
Note On [1] (46, 79) | Time: 0
Note On [1] (53, 79) | Time: 0
Note Off [1] (53, 0) | Time: 96
Note Off [1] (46, 0) | Time: 0
Note On [1] (55, 77) | Time: 0
Note On [1] (48, 77) | Time: 0
Note Off [1] (55, 0) | Time: 96
Note Off [1] (48, 0) | Time: 0
Note On [1] (48, 75) | Time: 0
Note On [1] (55, 75) | Time: 0
Note Off [1] (48, 0) | Time: 96
Note Off [1] (55, 0) | Time: 0
Note On [1] (55, 78) | Time: 0
Note On [1] (48, 78) | Time: 0
Note Off [1] (55, 0) | Time: 48
Note Off [1] (48, 0) | Time: 0
Note On [1] (48, 76) | Time: 0
Note On [1] (55, 76) | Time: 0
Note Off [1] (55, 0) | Time: 96
Note Off [1] (48, 0) | Time: 0
Note On [1] (48, 75) | Time: 0
Note On [1] (55, 75) | Time: 0
Note Off [1] (55, 0) | Time: 96
Note Off [1] (48, 0) | Time: 0
Note On [1] (48, 75) | Time: 0
Note On [1] (55, 75) | Time: 0
Note Off [1] (55, 0) | Time: 96
Note Off [1] (48, 0) | Time: 0
Note On [1] (48, 71) | Time: 0
Note On [1] (55, 71) | Time: 0
Note Off [1] (55, 0) | Time: 96
Note Off [1] (48, 0) | Time: 0
Note On [1] (48, 75) | Time: 0
Note On [1] (55, 75) | Time: 0
Note Off [1] (55, 0) | Time: 48
Note Off [1] (48, 0) | Time: 0
Note On [1] (48, 77) | Time: 0
Note On [1] (55, 77) | Time: 0
Note Off [1] (55, 0) | Time: 96
Note Off [1] (48, 0) | Time: 0
Note On [1] (55, 77) | Time: 0
Note On [1] (47, 77) | Time: 0
Note Off [1] (55, 0) | Time: 96
Note Off [1] (47, 0) | Time: 0
Note On [1] (55, 77) | Time: 0
Note On [1] (47, 77) | Time: 0
Note Off [1] (55, 0) | Time: 96
Note Off [1] (47, 0) | Time: 0
Note On [1] (55, 76) | Time: 0
Note On [1] (47, 76) | Time: 0
Note Off [1] (55, 0) | Time: 48
Note Off [1] (47, 0) | Time: 0
Note On [1] (55, 76) | Time: 0
Note On [1] (47, 76) | Time: 0
Note Off [1] (47, 0) | Time: 96
Note Off [1] (55, 0) | Time: 0
Note On [1] (47, 76) | Time: 0
Note On [1] (55, 76) | Time: 0
Note Off [1] (55, 0) | Time: 96
Note Off [1] (47, 0) | Time: 0
Note On [1] (55, 76) | Time: 0
Note On [1] (47, 76) | Time: 0
Note Off [1] (47, 0) | Time: 96
Note Off [1] (55, 0) | Time: 0
Note On [1] (47, 78) | Time: 0
Note On [1] (55, 78) | Time: 0
Note Off [1] (55, 0) | Time: 96
Note Off [1] (47, 0) | Time: 0
Note On [1] (55, 74) | Time: 0
Note On [1] (47, 74) | Time: 0
Note Off [1] (47, 0) | Time: 48
Note Off [1] (55, 0) | Time: 0
Note On [1] (55, 77) | Time: 0
Note On [1] (47, 77) | Time: 0
Note Off [1] (47, 0) | Time: 96
Note Off [1] (55, 0) | Time: 0
Note On [1] (47, 78) | Time: 0
Note On [1] (55, 78) | Time: 0
Note Off [1] (47, 0) | Time: 96
Note Off [1] (55, 0) | Time: 0
Note On [1] (47, 72) | Time: 0
Note On [1] (55, 72) | Time: 0
Note Off [1] (47, 0) | Time: 96
Note Off [1] (55, 0) | Time: 0
Note On [1] (47, 71) | Time: 0
Note On [1] (55, 71) | Time: 0
Note Off [1] (47, 0) | Time: 48
Note Off [1] (55, 0) | Time: 0
Note On [1] (47, 75) | Time: 0
Note On [1] (55, 75) | Time: 0
Note Off [1] (55, 0) | Time: 96
Note Off [1] (47, 0) | Time: 0
Note On [1] (47, 78) | Time: 0
Note On [1] (55, 78) | Time: 0
Note Off [1] (55, 0) | Time: 96
Note Off [1] (47, 0) | Time: 0
Note On [1] (47, 78) | Time: 0
Note On [1] (55, 78) | Time: 0
Note Off [1] (55, 0) | Time: 96
Note Off [1] (47, 0) | Time: 0
Note On [1] (47, 73) | Time: 0
Note On [1] (55, 73) | Time: 0
Note Off [1] (55, 0) | Time: 96
Note Off [1] (47, 0) | Time: 0
Note On [1] (47, 78) | Time: 0
Note On [1] (55, 78) | Time: 0
Note Off [1] (55, 0) | Time: 48
Note Off [1] (47, 0) | Time: 0
Note On [1] (47, 77) | Time: 0
Note On [1] (55, 77) | Time: 0
Note Off [1] (55, 0) | Time: 96
Note Off [1] (47, 0) | Time: 0
Note On [1] (46, 73) | Time: 0
Note On [1] (53, 73) | Time: 0
Note Off [1] (53, 0) | Time: 96
Note Off [1] (46, 0) | Time: 0
Note On [1] (46, 77) | Time: 0
Note On [1] (53, 77) | Time: 0
Note Off [1] (46, 0) | Time: 96
Note Off [1] (53, 0) | Time: 0
Note On [1] (46, 78) | Time: 0
Note On [1] (53, 78) | Time: 0
Note Off [1] (46, 0) | Time: 48
Note Off [1] (53, 0) | Time: 0
Note On [1] (46, 78) | Time: 0
Note On [1] (53, 78) | Time: 0
Note Off [1] (53, 0) | Time: 96
Note Off [1] (46, 0) | Time: 0
Note On [1] (46, 70) | Time: 0
Note On [1] (53, 70) | Time: 0
Note Off [1] (53, 0) | Time: 96
Note Off [1] (46, 0) | Time: 0
Note On [1] (46, 83) | Time: 0
Note On [1] (53, 83) | Time: 0
Note Off [1] (53, 0) | Time: 96
Note Off [1] (46, 0) | Time: 0
Note On [1] (46, 73) | Time: 0
Note On [1] (53, 73) | Time: 0
Note Off [1] (53, 0) | Time: 96
Note Off [1] (46, 0) | Time: 0
Note On [1] (46, 77) | Time: 0
Note On [1] (53, 77) | Time: 0
Note Off [1] (53, 0) | Time: 48
Note Off [1] (46, 0) | Time: 0
Note On [1] (46, 73) | Time: 0
Note On [1] (53, 73) | Time: 0
Note Off [1] (53, 0) | Time: 48
Note Off [1] (46, 0) | Time: 0
Note On [1] (46, 79) | Time: 0
Note On [1] (53, 79) | Time: 0
Note Off [1] (53, 0) | Time: 48
Note Off [1] (46, 0) | Time: 0
Note On [1] (48, 81) | Time: 0
Note On [1] (55, 81) | Time: 0
Note Off [1] (48, 0) | Time: 96
Note Off [1] (55, 0) | Time: 0
Note On [1] (48, 77) | Time: 0
Note On [1] (55, 77) | Time: 0
Note Off [1] (48, 0) | Time: 96
Note Off [1] (55, 0) | Time: 0
Note On [1] (48, 75) | Time: 0
Note On [1] (55, 75) | Time: 0
Note Off [1] (48, 0) | Time: 48
Note Off [1] (55, 0) | Time: 0
Note On [1] (48, 78) | Time: 0
Note On [1] (55, 78) | Time: 0
Note Off [1] (55, 0) | Time: 96
Note Off [1] (48, 0) | Time: 0
Note On [1] (48, 81) | Time: 0
Note On [1] (55, 81) | Time: 0
Note Off [1] (55, 0) | Time: 96
Note Off [1] (48, 0) | Time: 0
Note On [1] (48, 79) | Time: 0
Note On [1] (55, 79) | Time: 0
Note Off [1] (55, 0) | Time: 96
Note Off [1] (48, 0) | Time: 0
Note On [1] (48, 76) | Time: 0
Note On [1] (55, 76) | Time: 0
Note Off [1] (55, 0) | Time: 96
Note Off [1] (48, 0) | Time: 0
Note On [1] (48, 80) | Time: 0
Note On [1] (55, 80) | Time: 0
Note Off [1] (55, 0) | Time: 48
Note Off [1] (48, 0) | Time: 0
Note On [1] (48, 78) | Time: 0
Note On [1] (55, 78) | Time: 0
Note Off [1] (55, 0) | Time: 96
Note Off [1] (48, 0) | Time: 0
Note On [1] (50, 77) | Time: 0
Note On [1] (57, 77) | Time: 0
Note Off [1] (50, 0) | Time: 96
Note Off [1] (57, 0) | Time: 0
Note On [1] (57, 75) | Time: 0
Note On [1] (50, 75) | Time: 0
Note Off [1] (57, 0) | Time: 96
Note Off [1] (50, 0) | Time: 0
Note On [1] (50, 77) | Time: 0
Note On [1] (57, 77) | Time: 0
Note Off [1] (50, 0) | Time: 48
Note Off [1] (57, 0) | Time: 0
Note On [1] (50, 75) | Time: 0
Note On [1] (57, 75) | Time: 0
Note Off [1] (57, 0) | Time: 96
Note Off [1] (50, 0) | Time: 0
Note On [1] (57, 80) | Time: 0
Note On [1] (50, 80) | Time: 0
Note Off [1] (50, 0) | Time: 96
Note Off [1] (57, 0) | Time: 0
Note On [1] (50, 73) | Time: 0
Note On [1] (57, 73) | Time: 0
Note Off [1] (57, 0) | Time: 96
Note Off [1] (50, 0) | Time: 0
Note On [1] (57, 76) | Time: 0
Note On [1] (50, 76) | Time: 0
Note Off [1] (50, 0) | Time: 96
Note Off [1] (57, 0) | Time: 0
Note On [1] (50, 69) | Time: 0
Note On [1] (57, 69) | Time: 0
Note Off [1] (57, 0) | Time: 48
Note Off [1] (50, 0) | Time: 0
Note On [1] (57, 75) | Time: 0
Note On [1] (50, 75) | Time: 0
Note Off [1] (50, 0) | Time: 96
Note Off [1] (57, 0) | Time: 0
Note On [1] (50, 77) | Time: 0
Note On [1] (57, 77) | Time: 0
Note Off [1] (50, 0) | Time: 96
Note Off [1] (57, 0) | Time: 0
Note On [1] (57, 78) | Time: 0
Note On [1] (50, 78) | Time: 0
Note Off [1] (57, 0) | Time: 96
Note Off [1] (50, 0) | Time: 0
Note On [1] (50, 73) | Time: 0
Note On [1] (57, 73) | Time: 0
Note Off [1] (50, 0) | Time: 48
Note Off [1] (57, 0) | Time: 0
Note On [1] (50, 76) | Time: 0
Note On [1] (57, 76) | Time: 0
Note Off [1] (57, 0) | Time: 96
Note Off [1] (50, 0) | Time: 0
Note On [1] (57, 79) | Time: 0
Note On [1] (50, 79) | Time: 0
Note Off [1] (50, 0) | Time: 96
Note Off [1] (57, 0) | Time: 0
Note On [1] (50, 75) | Time: 0
Note On [1] (57, 75) | Time: 0
Note Off [1] (57, 0) | Time: 96
Note Off [1] (50, 0) | Time: 0
Note On [1] (57, 75) | Time: 0
Note On [1] (50, 75) | Time: 0
Note Off [1] (50, 0) | Time: 96
Note Off [1] (57, 0) | Time: 0
Note On [1] (50, 76) | Time: 0
Note On [1] (57, 76) | Time: 0
Note Off [1] (57, 0) | Time: 48
Note Off [1] (50, 0) | Time: 0
Note On [1] (57, 78) | Time: 0
Note On [1] (50, 78) | Time: 0
Note Off [1] (50, 0) | Time: 96
Note Off [1] (57, 0) | Time: 0
Note On [1] (53, 74) | Time: 0
Note On [1] (46, 74) | Time: 0
Note Off [1] (46, 0) | Time: 96
Note Off [1] (53, 0) | Time: 0
Note On [1] (46, 73) | Time: 0
Note On [1] (53, 73) | Time: 0
Note Off [1] (46, 0) | Time: 96
Note Off [1] (53, 0) | Time: 0
Note On [1] (53, 77) | Time: 0
Note On [1] (46, 77) | Time: 0
Note Off [1] (53, 0) | Time: 48
Note Off [1] (46, 0) | Time: 0
Note On [1] (53, 75) | Time: 0
Note On [1] (46, 75) | Time: 0
Note Off [1] (46, 0) | Time: 96
Note Off [1] (53, 0) | Time: 0
Note On [1] (53, 78) | Time: 0
Note On [1] (46, 78) | Time: 0
Note Off [1] (46, 0) | Time: 96
Note Off [1] (53, 0) | Time: 0
Note On [1] (53, 72) | Time: 0
Note On [1] (46, 72) | Time: 0
Note Off [1] (46, 0) | Time: 96
Note Off [1] (53, 0) | Time: 0
Note On [1] (53, 78) | Time: 0
Note On [1] (46, 78) | Time: 0
Note Off [1] (46, 0) | Time: 96
Note Off [1] (53, 0) | Time: 0
Note On [1] (53, 71) | Time: 0
Note On [1] (46, 71) | Time: 0
Note Off [1] (46, 0) | Time: 48
Note Off [1] (53, 0) | Time: 0
Note On [1] (53, 76) | Time: 0
Note On [1] (46, 76) | Time: 0
Note Off [1] (46, 0) | Time: 96
Note Off [1] (53, 0) | Time: 0
Note On [1] (55, 83) | Time: 0
Note On [1] (48, 83) | Time: 0
Note Off [1] (55, 0) | Time: 96
Note Off [1] (48, 0) | Time: 0
Note On [1] (48, 75) | Time: 0
Note On [1] (55, 75) | Time: 0
Note Off [1] (48, 0) | Time: 96
Note Off [1] (55, 0) | Time: 0
Note On [1] (55, 72) | Time: 0
Note On [1] (48, 72) | Time: 0
Note Off [1] (55, 0) | Time: 48
Note Off [1] (48, 0) | Time: 0
Note On [1] (55, 75) | Time: 0
Note On [1] (48, 75) | Time: 0
Note Off [1] (48, 0) | Time: 96
Note Off [1] (55, 0) | Time: 0
Note On [1] (55, 77) | Time: 0
Note On [1] (48, 77) | Time: 0
Note Off [1] (48, 0) | Time: 96
Note Off [1] (55, 0) | Time: 0
Note On [1] (55, 74) | Time: 0
Note On [1] (48, 74) | Time: 0
Note Off [1] (48, 0) | Time: 96
Note Off [1] (55, 0) | Time: 0
Note On [1] (55, 77) | Time: 0
Note On [1] (48, 77) | Time: 0
Note Off [1] (48, 0) | Time: 96
Note Off [1] (55, 0) | Time: 0
Note On [1] (55, 73) | Time: 0
Note On [1] (48, 73) | Time: 0
Note Off [1] (48, 0) | Time: 48
Note Off [1] (55, 0) | Time: 0
Note On [1] (55, 78) | Time: 0
Note On [1] (48, 78) | Time: 0
Note Off [1] (48, 0) | Time: 96
Note Off [1] (55, 0) | Time: 0
Note On [1] (47, 75) | Time: 0
Note On [1] (55, 75) | Time: 0
Note Off [1] (55, 0) | Time: 96
Note Off [1] (47, 0) | Time: 0
Note On [1] (47, 77) | Time: 0
Note On [1] (55, 77) | Time: 0
Note Off [1] (55, 0) | Time: 96
Note Off [1] (47, 0) | Time: 0
Note On [1] (55, 80) | Time: 0
Note On [1] (47, 80) | Time: 0
Note Off [1] (47, 0) | Time: 48
Note Off [1] (55, 0) | Time: 0
Note On [1] (47, 76) | Time: 0
Note On [1] (55, 76) | Time: 0
Note Off [1] (55, 0) | Time: 96
Note Off [1] (47, 0) | Time: 0
Note On [1] (47, 73) | Time: 0
Note On [1] (55, 73) | Time: 0
Note Off [1] (55, 0) | Time: 96
Note Off [1] (47, 0) | Time: 0
Note On [1] (47, 77) | Time: 0
Note On [1] (55, 77) | Time: 0
Note Off [1] (55, 0) | Time: 96
Note Off [1] (47, 0) | Time: 0
Note On [1] (47, 74) | Time: 0
Note On [1] (55, 74) | Time: 0
Note Off [1] (55, 0) | Time: 96
Note Off [1] (47, 0) | Time: 0
Note On [1] (55, 78) | Time: 0
Note On [1] (47, 78) | Time: 0
Note Off [1] (47, 0) | Time: 48
Note Off [1] (55, 0) | Time: 0
Note On [1] (47, 73) | Time: 0
Note On [1] (55, 73) | Time: 0
Note Off [1] (55, 0) | Time: 96
Note Off [1] (47, 0) | Time: 0
Note On [1] (47, 75) | Time: 0
Note On [1] (55, 75) | Time: 0
Note Off [1] (47, 0) | Time: 96
Note Off [1] (55, 0) | Time: 0
Note On [1] (47, 77) | Time: 0
Note On [1] (55, 77) | Time: 0
Note Off [1] (47, 0) | Time: 96
Note Off [1] (55, 0) | Time: 0
Note On [1] (55, 80) | Time: 0
Note On [1] (47, 80) | Time: 0
Note Off [1] (55, 0) | Time: 48
Note Off [1] (47, 0) | Time: 0
Note On [1] (47, 76) | Time: 0
Note On [1] (55, 76) | Time: 0
Note Off [1] (55, 0) | Time: 96
Note Off [1] (47, 0) | Time: 0
Note On [1] (47, 73) | Time: 0
Note On [1] (55, 73) | Time: 0
Note Off [1] (55, 0) | Time: 96
Note Off [1] (47, 0) | Time: 0
Note On [1] (47, 77) | Time: 0
Note On [1] (55, 77) | Time: 0
Note Off [1] (55, 0) | Time: 96
Note Off [1] (47, 0) | Time: 0
Note On [1] (47, 74) | Time: 0
Note On [1] (55, 74) | Time: 0
Note Off [1] (55, 0) | Time: 96
Note Off [1] (47, 0) | Time: 0
Note On [1] (55, 78) | Time: 0
Note On [1] (47, 78) | Time: 0
Note Off [1] (47, 0) | Time: 48
Note Off [1] (55, 0) | Time: 0
Note On [1] (47, 73) | Time: 0
Note On [1] (55, 73) | Time: 0
Note Off [1] (55, 0) | Time: 96
Note Off [1] (47, 0) | Time: 0
Note On [1] (53, 79) | Time: 0
Note On [1] (46, 79) | Time: 0
Note Off [1] (53, 0) | Time: 96
Note Off [1] (46, 0) | Time: 0
Note On [1] (53, 75) | Time: 0
Note On [1] (46, 75) | Time: 0
Note Off [1] (53, 0) | Time: 96
Note Off [1] (46, 0) | Time: 0
Note On [1] (46, 78) | Time: 0
Note On [1] (53, 78) | Time: 0
Note Off [1] (46, 0) | Time: 48
Note Off [1] (53, 0) | Time: 0
Note On [1] (53, 75) | Time: 0
Note On [1] (46, 75) | Time: 0
Note Off [1] (46, 0) | Time: 96
Note Off [1] (53, 0) | Time: 0
Note On [1] (46, 75) | Time: 0
Note On [1] (53, 75) | Time: 0
Note Off [1] (53, 0) | Time: 96
Note Off [1] (46, 0) | Time: 0
Note On [1] (53, 79) | Time: 0
Note On [1] (46, 79) | Time: 0
Note Off [1] (46, 0) | Time: 96
Note Off [1] (53, 0) | Time: 0
Note On [1] (46, 76) | Time: 0
Note On [1] (53, 76) | Time: 0
Note Off [1] (53, 0) | Time: 96
Note Off [1] (46, 0) | Time: 0
Note On [1] (53, 75) | Time: 0
Note On [1] (46, 75) | Time: 0
Note Off [1] (46, 0) | Time: 48
Note Off [1] (53, 0) | Time: 0
Note On [1] (53, 73) | Time: 0
Note On [1] (46, 73) | Time: 0
Note Off [1] (46, 0) | Time: 96
Note Off [1] (53, 0) | Time: 0
Note On [1] (48, 78) | Time: 0
Note On [1] (55, 78) | Time: 0
Note Off [1] (48, 0) | Time: 96
Note Off [1] (55, 0) | Time: 0
Note On [1] (55, 77) | Time: 0
Note On [1] (48, 77) | Time: 0
Note Off [1] (55, 0) | Time: 96
Note Off [1] (48, 0) | Time: 0
Note On [1] (48, 71) | Time: 0
Note On [1] (55, 71) | Time: 0
Note Off [1] (48, 0) | Time: 48
Note Off [1] (55, 0) | Time: 0
Note On [1] (55, 79) | Time: 0
Note On [1] (48, 79) | Time: 0
Note Off [1] (48, 0) | Time: 96
Note Off [1] (55, 0) | Time: 0
Note On [1] (48, 80) | Time: 0
Note On [1] (55, 80) | Time: 0
Note Off [1] (55, 0) | Time: 96
Note Off [1] (48, 0) | Time: 0
Note On [1] (55, 74) | Time: 0
Note On [1] (48, 74) | Time: 0
Note Off [1] (48, 0) | Time: 96
Note Off [1] (55, 0) | Time: 0
Note On [1] (48, 75) | Time: 0
Note On [1] (55, 75) | Time: 0
Note Off [1] (55, 0) | Time: 96
Note Off [1] (48, 0) | Time: 0
Note On [1] (55, 75) | Time: 0
Note On [1] (48, 75) | Time: 0
Note Off [1] (48, 0) | Time: 48
Note Off [1] (55, 0) | Time: 0
Note On [1] (55, 74) | Time: 0
Note On [1] (48, 74) | Time: 0
Note Off [1] (48, 0) | Time: 96
Note Off [1] (55, 0) | Time: 0
Note On [1] (57, 83) | Time: 0
Note On [1] (50, 83) | Time: 0
Note On [1] (62, 83) | Time: 0
Note Off [1] (62, 0) | Time: 48
Note Off [1] (50, 0) | Time: 0
Note Off [1] (57, 0) | Time: 0
Note On [1] (57, 83) | Time: 0
Note On [1] (62, 83) | Time: 0
Note On [1] (50, 83) | Time: 0
Note Off [1] (50, 0) | Time: 48
Note Off [1] (62, 0) | Time: 0
Note Off [1] (57, 0) | Time: 0
Note On [1] (57, 83) | Time: 672
Note On [1] (50, 83) | Time: 0
Note On [1] (62, 83) | Time: 0
Note Off [1] (62, 0) | Time: 48
Note Off [1] (50, 0) | Time: 0
Note Off [1] (57, 0) | Time: 0
Note On [1] (50, 83) | Time: 0
Note On [1] (62, 83) | Time: 0
Note On [1] (57, 83) | Time: 0
Note Off [1] (57, 0) | Time: 48
Note Off [1] (62, 0) | Time: 0
Note Off [1] (50, 0) | Time: 0
Note On [1] (57, 74) | Time: 336
Note On [1] (50, 74) | Time: 0
Note Off [1] (50, 0) | Time: 96
Note Off [1] (57, 0) | Time: 0
Note On [1] (50, 75) | Time: 0
Note On [1] (57, 75) | Time: 0
Note Off [1] (50, 0) | Time: 96
Note Off [1] (57, 0) | Time: 0
Note On [1] (57, 75) | Time: 0
Note On [1] (50, 75) | Time: 0
Note Off [1] (50, 0) | Time: 48
Note Off [1] (57, 0) | Time: 0
Note On [1] (57, 74) | Time: 0
Note On [1] (50, 74) | Time: 0
Note Off [1] (57, 0) | Time: 96
Note Off [1] (50, 0) | Time: 0
Note On [1] (53, 71) | Time: 0
Note On [1] (46, 71) | Time: 0
Note Off [1] (46, 0) | Time: 96
Note Off [1] (53, 0) | Time: 0
Note On [1] (46, 79) | Time: 0
Note On [1] (53, 79) | Time: 0
Note Off [1] (53, 0) | Time: 96
Note Off [1] (46, 0) | Time: 0
Note On [1] (53, 78) | Time: 0
Note On [1] (46, 78) | Time: 0
Note Off [1] (53, 0) | Time: 48
Note Off [1] (46, 0) | Time: 0
Note On [1] (53, 78) | Time: 0
Note On [1] (46, 78) | Time: 0
Note Off [1] (46, 0) | Time: 96
Note Off [1] (53, 0) | Time: 0
Note On [1] (46, 78) | Time: 0
Note On [1] (53, 78) | Time: 0
Note Off [1] (53, 0) | Time: 96
Note Off [1] (46, 0) | Time: 0
Note On [1] (53, 75) | Time: 0
Note On [1] (46, 75) | Time: 0
Note Off [1] (46, 0) | Time: 96
Note Off [1] (53, 0) | Time: 0
Note On [1] (46, 75) | Time: 0
Note On [1] (53, 75) | Time: 0
Note Off [1] (53, 0) | Time: 96
Note Off [1] (46, 0) | Time: 0
Note On [1] (53, 80) | Time: 0
Note On [1] (46, 80) | Time: 0
Note Off [1] (46, 0) | Time: 48
Note Off [1] (53, 0) | Time: 0
Note On [1] (46, 76) | Time: 0
Note On [1] (53, 76) | Time: 0
Note Off [1] (53, 0) | Time: 96
Note Off [1] (46, 0) | Time: 0
Note On [1] (55, 77) | Time: 0
Note On [1] (48, 77) | Time: 0
Note Off [1] (48, 0) | Time: 96
Note Off [1] (55, 0) | Time: 0
Note On [1] (48, 74) | Time: 0
Note On [1] (55, 74) | Time: 0
Note Off [1] (55, 0) | Time: 96
Note Off [1] (48, 0) | Time: 0
Note On [1] (55, 78) | Time: 0
Note On [1] (48, 78) | Time: 0
Note Off [1] (55, 0) | Time: 48
Note Off [1] (48, 0) | Time: 0
Note On [1] (55, 75) | Time: 0
Note On [1] (48, 75) | Time: 0
Note Off [1] (48, 0) | Time: 96
Note Off [1] (55, 0) | Time: 0
Note On [1] (48, 73) | Time: 0
Note On [1] (55, 73) | Time: 0
Note Off [1] (55, 0) | Time: 96
Note Off [1] (48, 0) | Time: 0
Note On [1] (55, 74) | Time: 0
Note On [1] (48, 74) | Time: 0
Note Off [1] (48, 0) | Time: 96
Note Off [1] (55, 0) | Time: 0
Note On [1] (48, 78) | Time: 0
Note On [1] (55, 78) | Time: 0
Note Off [1] (55, 0) | Time: 96
Note Off [1] (48, 0) | Time: 0
Note On [1] (55, 76) | Time: 0
Note On [1] (48, 76) | Time: 0
Note Off [1] (48, 0) | Time: 48
Note Off [1] (55, 0) | Time: 0
Note On [1] (48, 78) | Time: 0
Note On [1] (55, 78) | Time: 0
Note Off [1] (55, 0) | Time: 96
Note Off [1] (48, 0) | Time: 0
Note On [1] (57, 85) | Time: 0
Note On [1] (50, 85) | Time: 0
Note Off [1] (50, 0) | Time: 96
Note Off [1] (57, 0) | Time: 0
Note On [1] (50, 75) | Time: 0
Note On [1] (57, 75) | Time: 0
Note Off [1] (57, 0) | Time: 96
Note Off [1] (50, 0) | Time: 0
Note On [1] (57, 72) | Time: 0
Note On [1] (50, 72) | Time: 0
Note Off [1] (57, 0) | Time: 48
Note Off [1] (50, 0) | Time: 0
Note On [1] (57, 76) | Time: 0
Note On [1] (50, 76) | Time: 0
Note Off [1] (50, 0) | Time: 96
Note Off [1] (57, 0) | Time: 0
Note On [1] (49, 72) | Time: 0
Note On [1] (56, 72) | Time: 0
Note Off [1] (56, 0) | Time: 96
Note Off [1] (49, 0) | Time: 0
Note On [1] (56, 81) | Time: 0
Note On [1] (49, 81) | Time: 0
Note Off [1] (49, 0) | Time: 96
Note Off [1] (56, 0) | Time: 0
Note On [1] (49, 81) | Time: 0
Note On [1] (56, 81) | Time: 0
Note Off [1] (56, 0) | Time: 96
Note Off [1] (49, 0) | Time: 0
Note On [1] (56, 75) | Time: 0
Note On [1] (49, 75) | Time: 0
Note Off [1] (49, 0) | Time: 48
Note Off [1] (56, 0) | Time: 0
Note On [1] (49, 79) | Time: 0
Note On [1] (56, 79) | Time: 0
Note Off [1] (56, 0) | Time: 96
Note Off [1] (49, 0) | Time: 0
Note On [1] (55, 76) | Time: 0
Note On [1] (48, 76) | Time: 0
Note Off [1] (48, 0) | Time: 96
Note Off [1] (55, 0) | Time: 0
Note On [1] (48, 75) | Time: 0
Note On [1] (55, 75) | Time: 0
Note Off [1] (55, 0) | Time: 96
Note Off [1] (48, 0) | Time: 0
Note On [1] (55, 75) | Time: 0
Note On [1] (48, 75) | Time: 0
Note Off [1] (55, 0) | Time: 48
Note Off [1] (48, 0) | Time: 0
Note On [1] (55, 75) | Time: 0
Note On [1] (48, 75) | Time: 0
Note Off [1] (48, 0) | Time: 96
Note Off [1] (55, 0) | Time: 0
Note On [1] (47, 74) | Time: 0
Note On [1] (55, 74) | Time: 0
Note Off [1] (47, 0) | Time: 96
Note Off [1] (55, 0) | Time: 0
Note On [1] (55, 77) | Time: 0
Note On [1] (47, 77) | Time: 0
Note Off [1] (47, 0) | Time: 96
Note Off [1] (55, 0) | Time: 0
Note On [1] (47, 76) | Time: 0
Note On [1] (55, 76) | Time: 0
Note Off [1] (55, 0) | Time: 96
Note Off [1] (47, 0) | Time: 0
Note On [1] (55, 77) | Time: 0
Note On [1] (47, 77) | Time: 0
Note Off [1] (47, 0) | Time: 48
Note Off [1] (55, 0) | Time: 0
Note On [1] (47, 74) | Time: 0
Note On [1] (55, 74) | Time: 0
Note Off [1] (55, 0) | Time: 96
Note Off [1] (47, 0) | Time: 0
Note On [1] (53, 77) | Time: 0
Note On [1] (46, 77) | Time: 0
Note Off [1] (46, 0) | Time: 96
Note Off [1] (53, 0) | Time: 0
Note On [1] (46, 75) | Time: 0
Note On [1] (53, 75) | Time: 0
Note Off [1] (53, 0) | Time: 96
Note Off [1] (46, 0) | Time: 0
Note On [1] (53, 78) | Time: 0
Note On [1] (46, 78) | Time: 0
Note Off [1] (53, 0) | Time: 48
Note Off [1] (46, 0) | Time: 0
Note On [1] (53, 75) | Time: 0
Note On [1] (46, 75) | Time: 0
Note Off [1] (46, 0) | Time: 96
Note Off [1] (53, 0) | Time: 0
Note On [1] (46, 79) | Time: 0
Note On [1] (53, 79) | Time: 0
Note Off [1] (53, 0) | Time: 96
Note Off [1] (46, 0) | Time: 0
Note On [1] (53, 80) | Time: 0
Note On [1] (46, 80) | Time: 0
Note Off [1] (46, 0) | Time: 96
Note Off [1] (53, 0) | Time: 0
Note On [1] (46, 75) | Time: 0
Note On [1] (53, 75) | Time: 0
Note Off [1] (53, 0) | Time: 96
Note Off [1] (46, 0) | Time: 0
Note On [1] (53, 77) | Time: 0
Note On [1] (46, 77) | Time: 0
Note Off [1] (46, 0) | Time: 48
Note Off [1] (53, 0) | Time: 0
Note On [1] (46, 81) | Time: 0
Note On [1] (53, 81) | Time: 0
Note Off [1] (53, 0) | Time: 96
Note Off [1] (46, 0) | Time: 0
Note On [1] (55, 78) | Time: 0
Note On [1] (48, 78) | Time: 0
Note Off [1] (48, 0) | Time: 96
Note Off [1] (55, 0) | Time: 0
Note On [1] (48, 77) | Time: 0
Note On [1] (55, 77) | Time: 0
Note Off [1] (55, 0) | Time: 96
Note Off [1] (48, 0) | Time: 0
Note On [1] (55, 74) | Time: 0
Note On [1] (48, 74) | Time: 0
Note Off [1] (55, 0) | Time: 48
Note Off [1] (48, 0) | Time: 0
Note On [1] (55, 81) | Time: 0
Note On [1] (48, 81) | Time: 0
Note Off [1] (48, 0) | Time: 96
Note Off [1] (55, 0) | Time: 0
Note On [1] (48, 76) | Time: 0
Note On [1] (55, 76) | Time: 0
Note Off [1] (55, 0) | Time: 96
Note Off [1] (48, 0) | Time: 0
Note On [1] (55, 78) | Time: 0
Note On [1] (48, 78) | Time: 0
Note Off [1] (48, 0) | Time: 96
Note Off [1] (55, 0) | Time: 0
Note On [1] (48, 73) | Time: 0
Note On [1] (55, 73) | Time: 0
Note Off [1] (55, 0) | Time: 96
Note Off [1] (48, 0) | Time: 0
Note On [1] (55, 79) | Time: 0
Note On [1] (48, 79) | Time: 0
Note Off [1] (48, 0) | Time: 48
Note Off [1] (55, 0) | Time: 0
Note On [1] (48, 78) | Time: 0
Note On [1] (55, 78) | Time: 0
Note Off [1] (55, 0) | Time: 96
Note Off [1] (48, 0) | Time: 0
Note On [1] (57, 76) | Time: 0
Note On [1] (50, 76) | Time: 0
Note Off [1] (50, 0) | Time: 96
Note Off [1] (57, 0) | Time: 0
Note On [1] (50, 74) | Time: 0
Note On [1] (57, 74) | Time: 0
Note Off [1] (57, 0) | Time: 96
Note Off [1] (50, 0) | Time: 0
Note On [1] (57, 82) | Time: 0
Note On [1] (50, 82) | Time: 0
Note Off [1] (57, 0) | Time: 48
Note Off [1] (50, 0) | Time: 0
Note On [1] (57, 78) | Time: 0
Note On [1] (50, 78) | Time: 0
Note Off [1] (50, 0) | Time: 96
Note Off [1] (57, 0) | Time: 0
Note On [1] (50, 80) | Time: 0
Note On [1] (57, 80) | Time: 0
Note Off [1] (57, 0) | Time: 96
Note Off [1] (50, 0) | Time: 0
Note On [1] (57, 75) | Time: 0
Note On [1] (50, 75) | Time: 0
Note Off [1] (50, 0) | Time: 96
Note Off [1] (57, 0) | Time: 0
Note On [1] (50, 79) | Time: 0
Note On [1] (57, 79) | Time: 0
Note Off [1] (57, 0) | Time: 96
Note Off [1] (50, 0) | Time: 0
Note On [1] (57, 77) | Time: 0
Note On [1] (50, 77) | Time: 0
Note Off [1] (50, 0) | Time: 48
Note Off [1] (57, 0) | Time: 0
Note On [1] (50, 71) | Time: 0
Note On [1] (57, 71) | Time: 0
Note Off [1] (57, 0) | Time: 96
Note Off [1] (50, 0) | Time: 0
Note On [1] (57, 78) | Time: 0
Note On [1] (50, 78) | Time: 0
Note Off [1] (50, 0) | Time: 96
Note Off [1] (57, 0) | Time: 0
Note On [1] (50, 78) | Time: 0
Note On [1] (57, 78) | Time: 0
Note Off [1] (57, 0) | Time: 96
Note Off [1] (50, 0) | Time: 0
Note On [1] (57, 78) | Time: 0
Note On [1] (50, 78) | Time: 0
Note Off [1] (57, 0) | Time: 48
Note Off [1] (50, 0) | Time: 0
Note On [1] (57, 79) | Time: 0
Note On [1] (50, 79) | Time: 0
Note Off [1] (50, 0) | Time: 96
Note Off [1] (57, 0) | Time: 0
Note On [1] (50, 77) | Time: 0
Note On [1] (57, 77) | Time: 0
Note Off [1] (50, 0) | Time: 96
Note Off [1] (57, 0) | Time: 0
Note On [1] (57, 75) | Time: 0
Note On [1] (50, 75) | Time: 0
Note Off [1] (50, 0) | Time: 96
Note Off [1] (57, 0) | Time: 0
Note On [1] (50, 74) | Time: 0
Note On [1] (57, 74) | Time: 0
Note Off [1] (50, 0) | Time: 96
Note Off [1] (57, 0) | Time: 0
Note On [1] (57, 76) | Time: 0
Note On [1] (50, 76) | Time: 0
Note Off [1] (50, 0) | Time: 48
Note Off [1] (57, 0) | Time: 0
Note On [1] (50, 72) | Time: 0
Note On [1] (57, 72) | Time: 0
Note Off [1] (57, 0) | Time: 96
Note Off [1] (50, 0) | Time: 0
Note On [1] (53, 74) | Time: 0
Note On [1] (46, 74) | Time: 0
Note Off [1] (46, 0) | Time: 96
Note Off [1] (53, 0) | Time: 0
Note On [1] (46, 75) | Time: 0
Note On [1] (53, 75) | Time: 0
Note Off [1] (53, 0) | Time: 96
Note Off [1] (46, 0) | Time: 0
Note On [1] (53, 72) | Time: 0
Note On [1] (46, 72) | Time: 0
Note Off [1] (53, 0) | Time: 48
Note Off [1] (46, 0) | Time: 0
Note On [1] (53, 77) | Time: 0
Note On [1] (46, 77) | Time: 0
Note Off [1] (46, 0) | Time: 96
Note Off [1] (53, 0) | Time: 0
Note On [1] (46, 79) | Time: 0
Note On [1] (53, 79) | Time: 0
Note Off [1] (53, 0) | Time: 96
Note Off [1] (46, 0) | Time: 0
Note On [1] (53, 78) | Time: 0
Note On [1] (46, 78) | Time: 0
Note Off [1] (46, 0) | Time: 96
Note Off [1] (53, 0) | Time: 0
Note On [1] (46, 77) | Time: 0
Note On [1] (53, 77) | Time: 0
Note Off [1] (53, 0) | Time: 96
Note Off [1] (46, 0) | Time: 0
Note On [1] (53, 73) | Time: 0
Note On [1] (46, 73) | Time: 0
Note Off [1] (46, 0) | Time: 48
Note Off [1] (53, 0) | Time: 0
Note On [1] (46, 82) | Time: 0
Note On [1] (53, 82) | Time: 0
Note Off [1] (53, 0) | Time: 96
Note Off [1] (46, 0) | Time: 0
Note On [1] (55, 79) | Time: 0
Note On [1] (48, 79) | Time: 0
Note Off [1] (48, 0) | Time: 96
Note Off [1] (55, 0) | Time: 0
Note On [1] (48, 71) | Time: 0
Note On [1] (55, 71) | Time: 0
Note Off [1] (55, 0) | Time: 96
Note Off [1] (48, 0) | Time: 0
Note On [1] (55, 80) | Time: 0
Note On [1] (48, 80) | Time: 0
Note Off [1] (55, 0) | Time: 48
Note Off [1] (48, 0) | Time: 0
Note On [1] (55, 73) | Time: 0
Note On [1] (48, 73) | Time: 0
Note Off [1] (48, 0) | Time: 96
Note Off [1] (55, 0) | Time: 0
Note On [1] (48, 76) | Time: 0
Note On [1] (55, 76) | Time: 0
Note Off [1] (55, 0) | Time: 96
Note Off [1] (48, 0) | Time: 0
Note On [1] (55, 78) | Time: 0
Note On [1] (48, 78) | Time: 0
Note Off [1] (48, 0) | Time: 96
Note Off [1] (55, 0) | Time: 0
Note On [1] (48, 76) | Time: 0
Note On [1] (55, 76) | Time: 0
Note Off [1] (55, 0) | Time: 96
Note Off [1] (48, 0) | Time: 0
Note On [1] (55, 75) | Time: 0
Note On [1] (48, 75) | Time: 0
Note Off [1] (48, 0) | Time: 48
Note Off [1] (55, 0) | Time: 0
Note On [1] (48, 77) | Time: 0
Note On [1] (55, 77) | Time: 0
Note Off [1] (55, 0) | Time: 96
Note Off [1] (48, 0) | Time: 0
Note On [1] (57, 78) | Time: 0
Note On [1] (50, 78) | Time: 0
Note Off [1] (50, 0) | Time: 96
Note Off [1] (57, 0) | Time: 0
Note On [1] (50, 74) | Time: 0
Note On [1] (57, 74) | Time: 0
Note Off [1] (57, 0) | Time: 96
Note Off [1] (50, 0) | Time: 0
Note On [1] (57, 78) | Time: 0
Note On [1] (50, 78) | Time: 0
Note Off [1] (57, 0) | Time: 48
Note Off [1] (50, 0) | Time: 0
Note On [1] (57, 77) | Time: 0
Note On [1] (50, 77) | Time: 0
Note Off [1] (50, 0) | Time: 96
Note Off [1] (57, 0) | Time: 0
Note On [1] (49, 75) | Time: 0
Note On [1] (56, 75) | Time: 0
Note Off [1] (56, 0) | Time: 96
Note Off [1] (49, 0) | Time: 0
Note On [1] (56, 80) | Time: 0
Note On [1] (49, 80) | Time: 0
Note Off [1] (49, 0) | Time: 96
Note Off [1] (56, 0) | Time: 0
Note On [1] (49, 74) | Time: 0
Note On [1] (56, 74) | Time: 0
Note Off [1] (56, 0) | Time: 96
Note Off [1] (49, 0) | Time: 0
Note On [1] (56, 78) | Time: 0
Note On [1] (49, 78) | Time: 0
Note Off [1] (49, 0) | Time: 48
Note Off [1] (56, 0) | Time: 0
Note On [1] (49, 79) | Time: 0
Note On [1] (56, 79) | Time: 0
Note Off [1] (56, 0) | Time: 96
Note Off [1] (49, 0) | Time: 0
Note On [1] (55, 74) | Time: 0
Note On [1] (48, 74) | Time: 0
Note Off [1] (48, 0) | Time: 96
Note Off [1] (55, 0) | Time: 0
Note On [1] (48, 77) | Time: 0
Note On [1] (55, 77) | Time: 0
Note Off [1] (55, 0) | Time: 96
Note Off [1] (48, 0) | Time: 0
Note On [1] (55, 77) | Time: 0
Note On [1] (48, 77) | Time: 0
Note Off [1] (55, 0) | Time: 48
Note Off [1] (48, 0) | Time: 0
Note On [1] (55, 75) | Time: 0
Note On [1] (48, 75) | Time: 0
Note Off [1] (48, 0) | Time: 96
Note Off [1] (55, 0) | Time: 0
Note On [1] (47, 72) | Time: 0
Note On [1] (55, 72) | Time: 0
Note Off [1] (47, 0) | Time: 96
Note Off [1] (55, 0) | Time: 0
Note On [1] (55, 76) | Time: 0
Note On [1] (47, 76) | Time: 0
Note Off [1] (47, 0) | Time: 96
Note Off [1] (55, 0) | Time: 0
Note On [1] (47, 76) | Time: 0
Note On [1] (55, 76) | Time: 0
Note Off [1] (55, 0) | Time: 96
Note Off [1] (47, 0) | Time: 0
Note On [1] (55, 78) | Time: 0
Note On [1] (47, 78) | Time: 0
Note Off [1] (47, 0) | Time: 48
Note Off [1] (55, 0) | Time: 0
Note On [1] (47, 75) | Time: 0
Note On [1] (55, 75) | Time: 0
Note Off [1] (55, 0) | Time: 96
Note Off [1] (47, 0) | Time: 0
Note On [1] (53, 75) | Time: 0
Note On [1] (46, 75) | Time: 0
Note Off [1] (46, 0) | Time: 96
Note Off [1] (53, 0) | Time: 0
Note On [1] (46, 78) | Time: 0
Note On [1] (53, 78) | Time: 0
Note Off [1] (53, 0) | Time: 96
Note Off [1] (46, 0) | Time: 0
Note On [1] (53, 75) | Time: 0
Note On [1] (46, 75) | Time: 0
Note Off [1] (53, 0) | Time: 48
Note Off [1] (46, 0) | Time: 0
Note On [1] (53, 76) | Time: 0
Note On [1] (46, 76) | Time: 0
Note Off [1] (46, 0) | Time: 96
Note Off [1] (53, 0) | Time: 0
Note On [1] (46, 73) | Time: 0
Note On [1] (53, 73) | Time: 0
Note Off [1] (53, 0) | Time: 96
Note Off [1] (46, 0) | Time: 0
Note On [1] (53, 75) | Time: 0
Note On [1] (46, 75) | Time: 0
Note Off [1] (46, 0) | Time: 96
Note Off [1] (53, 0) | Time: 0
Note On [1] (46, 75) | Time: 0
Note On [1] (53, 75) | Time: 0
Note Off [1] (53, 0) | Time: 96
Note Off [1] (46, 0) | Time: 0
Note On [1] (53, 76) | Time: 0
Note On [1] (46, 76) | Time: 0
Note Off [1] (46, 0) | Time: 48
Note Off [1] (53, 0) | Time: 0
Note On [1] (46, 76) | Time: 0
Note On [1] (53, 76) | Time: 0
Note Off [1] (53, 0) | Time: 96
Note Off [1] (46, 0) | Time: 0
Note On [1] (55, 78) | Time: 0
Note On [1] (48, 78) | Time: 0
Note Off [1] (48, 0) | Time: 96
Note Off [1] (55, 0) | Time: 0
Note On [1] (48, 71) | Time: 0
Note On [1] (55, 71) | Time: 0
Note Off [1] (55, 0) | Time: 96
Note Off [1] (48, 0) | Time: 0
Note On [1] (55, 74) | Time: 0
Note On [1] (48, 74) | Time: 0
Note Off [1] (55, 0) | Time: 48
Note Off [1] (48, 0) | Time: 0
Note On [1] (55, 82) | Time: 0
Note On [1] (48, 82) | Time: 0
Note Off [1] (48, 0) | Time: 96
Note Off [1] (55, 0) | Time: 0
Note On [1] (48, 78) | Time: 0
Note On [1] (55, 78) | Time: 0
Note Off [1] (55, 0) | Time: 96
Note Off [1] (48, 0) | Time: 0
Note On [1] (55, 80) | Time: 0
Note On [1] (48, 80) | Time: 0
Note Off [1] (48, 0) | Time: 96
Note Off [1] (55, 0) | Time: 0
Note On [1] (48, 76) | Time: 0
Note On [1] (55, 76) | Time: 0
Note Off [1] (55, 0) | Time: 96
Note Off [1] (48, 0) | Time: 0
Note On [1] (55, 77) | Time: 0
Note On [1] (48, 77) | Time: 0
Note Off [1] (48, 0) | Time: 48
Note Off [1] (55, 0) | Time: 0
Note On [1] (48, 74) | Time: 0
Note On [1] (55, 74) | Time: 0
Note Off [1] (55, 0) | Time: 96
Note Off [1] (48, 0) | Time: 0
Note On [1] (57, 75) | Time: 0
Note On [1] (50, 75) | Time: 0
Note Off [1] (57, 0) | Time: 96
Note Off [1] (50, 0) | Time: 0
Note On [1] (50, 75) | Time: 0
Note On [1] (57, 75) | Time: 0
Note Off [1] (57, 0) | Time: 96
Note Off [1] (50, 0) | Time: 0
Note On [1] (57, 72) | Time: 0
Note On [1] (50, 72) | Time: 0
Note Off [1] (57, 0) | Time: 48
Note Off [1] (50, 0) | Time: 0
Note On [1] (57, 70) | Time: 0
Note On [1] (50, 70) | Time: 0
Note Off [1] (50, 0) | Time: 96
Note Off [1] (57, 0) | Time: 0
Note On [1] (50, 80) | Time: 0
Note On [1] (57, 80) | Time: 0
Note Off [1] (57, 0) | Time: 96
Note Off [1] (50, 0) | Time: 0
Note On [1] (57, 79) | Time: 0
Note On [1] (50, 79) | Time: 0
Note Off [1] (50, 0) | Time: 96
Note Off [1] (57, 0) | Time: 0
Note On [1] (50, 75) | Time: 0
Note On [1] (57, 75) | Time: 0
Note Off [1] (57, 0) | Time: 96
Note Off [1] (50, 0) | Time: 0
Note On [1] (57, 72) | Time: 0
Note On [1] (50, 72) | Time: 0
Note Off [1] (50, 0) | Time: 48
Note Off [1] (57, 0) | Time: 0
Note On [1] (50, 78) | Time: 0
Note On [1] (57, 78) | Time: 0
Note Off [1] (57, 0) | Time: 96
Note Off [1] (50, 0) | Time: 0
Note On [1] (57, 76) | Time: 0
Note On [1] (50, 76) | Time: 0
Note Off [1] (50, 0) | Time: 96
Note Off [1] (57, 0) | Time: 0
Note On [1] (50, 75) | Time: 0
Note On [1] (57, 75) | Time: 0
Note Off [1] (57, 0) | Time: 96
Note Off [1] (50, 0) | Time: 0
Note On [1] (57, 73) | Time: 0
Note On [1] (50, 73) | Time: 0
Note Off [1] (57, 0) | Time: 48
Note Off [1] (50, 0) | Time: 0
Note On [1] (57, 81) | Time: 0
Note On [1] (50, 81) | Time: 0
Note Off [1] (50, 0) | Time: 96
Note Off [1] (57, 0) | Time: 0
Note On [1] (50, 80) | Time: 0
Note On [1] (57, 80) | Time: 0
Note Off [1] (50, 0) | Time: 96
Note Off [1] (57, 0) | Time: 0
Note On [1] (57, 79) | Time: 0
Note On [1] (50, 79) | Time: 0
Note Off [1] (50, 0) | Time: 96
Note Off [1] (57, 0) | Time: 0
Note On [1] (50, 71) | Time: 0
Note On [1] (57, 71) | Time: 0
Note Off [1] (50, 0) | Time: 96
Note Off [1] (57, 0) | Time: 0
Note On [1] (57, 75) | Time: 0
Note On [1] (50, 75) | Time: 0
Note Off [1] (50, 0) | Time: 48
Note Off [1] (57, 0) | Time: 0
Note On [1] (50, 74) | Time: 0
Note On [1] (57, 74) | Time: 0
Note Off [1] (57, 0) | Time: 96
Note Off [1] (50, 0) | Time: 0
------------------------------------------------
